{"glyphs":{"0":{"ha":826,"x_min":86,"x_max":740,"o":"m 413 839 q 583 799 510 839 q 699 664 657 758 q 740 408 740 569 q 699 155 740 249 q 583 20 657 61 q 413 -21 510 -21 q 243 20 317 -21 q 128 155 169 61 q 86 408 86 249 q 128 664 86 569 q 243 799 169 758 q 413 839 317 839 m 414 744 q 308 718 356 744 q 234 619 261 692 q 207 408 207 546 q 234 200 207 272 q 308 101 261 128 q 414 74 356 74 q 519 101 472 74 q 593 200 565 128 q 621 408 621 272 q 593 619 621 546 q 519 718 565 692 q 414 744 472 744 z "},"1":{"ha":686,"x_min":61,"x_max":644,"o":"m 361 818 l 431 818 l 428 96 l 644 96 l 644 0 l 89 0 l 89 96 l 319 96 l 321 656 l 122 492 l 61 567 l 361 818 z "},"2":{"ha":756,"x_min":47,"x_max":701,"o":"m 85 0 l 47 111 q 246 281 153 208 q 404 415 339 353 q 480 504 453 461 q 508 596 507 547 q 461 706 510 669 q 344 743 413 743 q 244 723 296 743 q 150 664 192 703 l 81 729 q 209 817 136 789 q 353 846 282 846 q 544 785 461 846 q 626 610 626 724 q 585 482 626 544 q 478 357 543 419 q 329 228 411 292 q 169 96 247 164 l 550 96 l 622 211 l 701 169 l 603 0 l 85 0 z "},"3":{"ha":708,"x_min":54,"x_max":646,"o":"m 346 469 q 451 510 413 469 q 490 618 490 551 q 450 708 490 674 q 343 743 410 742 q 146 668 224 746 l 71 740 q 189 814 117 789 q 346 839 261 839 q 536 778 464 839 q 608 618 608 717 q 571 496 608 550 q 474 418 533 442 q 598 352 550 406 q 646 225 646 299 q 563 47 646 114 q 343 -21 479 -21 q 176 3 247 -21 q 54 75 104 28 l 125 154 q 230 94 182 113 q 347 75 278 75 q 478 116 428 75 q 528 224 528 157 q 469 333 528 292 q 315 374 411 374 l 251 374 l 251 469 l 346 469 z "},"4":{"ha":767,"x_min":35,"x_max":696,"o":"m 308 0 l 308 96 l 454 96 l 454 229 l 36 229 l 35 281 l 315 864 l 407 813 l 172 324 l 454 324 l 454 697 l 567 697 l 565 324 l 696 325 l 696 229 l 565 229 l 565 96 l 690 96 l 690 0 l 308 0 z "},"5":{"ha":715,"x_min":68,"x_max":653,"o":"m 226 500 q 385 549 300 549 q 576 481 500 549 q 653 282 653 414 q 574 56 653 133 q 346 -21 494 -21 q 190 10 265 -21 q 68 100 115 40 l 153 157 q 350 74 221 74 q 488 125 440 74 q 535 267 535 176 q 478 406 535 358 q 350 453 422 453 q 260 434 306 453 q 178 379 214 415 l 114 408 l 114 818 l 594 818 l 594 721 l 226 721 l 226 500 z "},"6":{"ha":765,"x_min":89,"x_max":703,"o":"m 614 694 q 559 719 613 693 q 453 744 506 744 q 303 692 357 744 q 228 563 250 640 q 204 413 206 486 q 289 481 231 449 q 425 513 347 513 q 617 458 531 513 q 703 246 703 403 q 678 135 703 197 q 589 26 654 72 q 401 -21 524 -21 q 165 88 240 -21 q 89 401 89 197 q 185 710 89 581 q 450 839 281 839 q 603 807 543 839 q 664 775 664 775 l 614 694 m 425 418 q 290 392 349 418 q 207 319 231 367 q 280 116 218 158 q 411 74 342 74 q 545 130 501 74 q 589 246 589 186 q 549 373 589 328 q 425 418 508 418 z "},"7":{"ha":711,"x_min":46,"x_max":683,"o":"m 683 758 q 459 354 522 561 q 386 0 396 147 l 272 0 q 351 341 290 156 q 533 722 411 526 l 161 722 l 142 636 l 46 657 l 76 818 l 683 818 l 683 758 z "},"8":{"ha":739,"x_min":81,"x_max":658,"o":"m 368 839 q 563 778 482 839 q 643 604 643 718 q 607 493 643 546 q 504 422 571 440 q 615 356 571 411 q 658 226 658 300 q 571 41 658 103 q 369 -21 483 -21 q 168 41 256 -21 q 81 226 81 103 q 124 356 81 300 q 235 422 168 411 q 132 493 168 440 q 96 604 96 546 q 176 778 96 718 q 368 839 257 839 m 369 375 q 242 332 283 375 q 200 226 200 289 q 247 117 200 160 q 369 74 294 74 q 492 117 444 74 q 539 226 539 160 q 497 332 539 289 q 369 375 456 375 m 369 744 q 255 704 296 744 q 214 604 214 664 q 255 504 214 544 q 369 464 296 464 q 484 504 443 464 q 525 604 525 544 q 484 704 525 664 q 369 744 443 744 z "},"9":{"ha":768,"x_min":74,"x_max":694,"o":"m 164 124 q 222 99 165 125 q 347 74 278 74 q 486 119 439 74 q 551 234 533 165 q 572 372 569 303 q 486 301 544 335 q 351 267 428 267 q 160 328 246 267 q 74 563 74 389 q 98 678 74 614 q 188 791 122 743 q 375 839 253 839 q 615 728 536 839 q 694 414 694 618 q 636 142 694 236 q 494 13 578 47 q 338 -21 411 -21 q 174 11 236 -21 q 113 43 113 43 l 164 124 m 365 744 q 231 686 275 744 q 188 546 188 628 q 228 416 188 471 q 351 361 268 361 q 494 394 439 361 q 572 478 550 426 q 535 651 567 594 q 458 726 503 708 q 365 744 414 744 z "},"A":{"ha":904,"x_min":14,"x_max":890,"o":"m 14 0 l 14 96 l 147 96 l 378 722 l 238 722 l 238 818 l 507 818 l 758 96 l 890 96 l 890 0 l 553 0 l 553 96 l 640 96 l 596 222 l 296 222 l 249 96 l 338 96 l 338 0 l 14 0 m 331 318 l 563 318 l 453 678 l 331 318 z "},"Á":{"ha":904,"x_min":14,"x_max":890,"o":"m 14 0 l 14 96 l 147 96 l 378 722 l 238 722 l 238 818 l 507 818 l 758 96 l 890 96 l 890 0 l 553 0 l 553 96 l 640 96 l 596 222 l 296 222 l 249 96 l 338 96 l 338 0 l 14 0 m 331 318 l 563 318 l 453 678 l 331 318 m 653 1067 l 678 965 l 328 900 l 315 950 l 653 1067 z "},"Ă":{"ha":904,"x_min":14,"x_max":890,"o":"m 14 0 l 14 96 l 147 96 l 378 722 l 238 722 l 238 818 l 507 818 l 758 96 l 890 96 l 890 0 l 553 0 l 553 96 l 640 96 l 596 222 l 296 222 l 249 96 l 338 96 l 338 0 l 14 0 m 331 318 l 563 318 l 453 678 l 331 318 m 440 903 q 224 1069 257 903 l 314 1086 q 440 992 329 992 q 568 1086 556 992 l 658 1069 q 440 903 625 903 z "},"Ắ":{"ha":904,"x_min":14,"x_max":890,"o":"m 14 0 l 14 96 l 147 96 l 378 722 l 238 722 l 238 818 l 507 818 l 758 96 l 890 96 l 890 0 l 553 0 l 553 96 l 640 96 l 596 222 l 296 222 l 249 96 l 338 96 l 338 0 l 14 0 m 331 318 l 563 318 l 453 678 l 331 318 m 440 903 q 224 1069 257 903 l 314 1086 q 440 992 329 992 q 568 1086 556 992 l 658 1069 q 440 903 625 903 m 693 1268 l 718 1167 l 368 1101 l 356 1151 l 693 1268 z "},"Ặ":{"ha":904,"x_min":14,"x_max":890,"o":"m 14 0 l 14 96 l 147 96 l 378 722 l 238 722 l 238 818 l 507 818 l 758 96 l 890 96 l 890 0 l 553 0 l 553 96 l 640 96 l 596 222 l 296 222 l 249 96 l 338 96 l 338 0 l 14 0 m 331 318 l 563 318 l 453 678 l 331 318 m 440 903 q 224 1069 257 903 l 314 1086 q 440 992 329 992 q 568 1086 556 992 l 658 1069 q 440 903 625 903 z "},"Ằ":{"ha":904,"x_min":14,"x_max":890,"o":"m 14 0 l 14 96 l 147 96 l 378 722 l 238 722 l 238 818 l 507 818 l 758 96 l 890 96 l 890 0 l 553 0 l 553 96 l 640 96 l 596 222 l 296 222 l 249 96 l 338 96 l 338 0 l 14 0 m 331 318 l 563 318 l 453 678 l 331 318 m 440 903 q 224 1069 257 903 l 314 1086 q 440 992 329 992 q 568 1086 556 992 l 658 1069 q 440 903 625 903 m 228 1260 l 565 1143 l 553 1093 l 203 1158 l 228 1260 z "},"Ẳ":{"ha":904,"x_min":14,"x_max":890,"o":"m 14 0 l 14 96 l 147 96 l 378 722 l 238 722 l 238 818 l 507 818 l 758 96 l 890 96 l 890 0 l 553 0 l 553 96 l 640 96 l 596 222 l 296 222 l 249 96 l 338 96 l 338 0 l 14 0 m 331 318 l 563 318 l 453 678 l 331 318 z "},"Ẵ":{"ha":904,"x_min":14,"x_max":890,"o":"m 14 0 l 14 96 l 147 96 l 378 722 l 238 722 l 238 818 l 507 818 l 758 96 l 890 96 l 890 0 l 553 0 l 553 96 l 640 96 l 596 222 l 296 222 l 249 96 l 338 96 l 338 0 l 14 0 m 331 318 l 563 318 l 453 678 l 331 318 m 239 1139 l 217 1207 q 291 1250 260 1236 q 369 1264 322 1264 q 467 1236 432 1264 q 543 1208 501 1208 q 583 1219 565 1208 q 633 1254 601 1231 l 660 1181 q 592 1134 619 1146 q 533 1121 564 1122 q 449 1149 488 1119 q 367 1178 410 1178 q 303 1168 328 1178 q 239 1139 279 1158 m 440 903 q 224 1069 257 903 l 314 1086 q 440 992 329 992 q 568 1086 556 992 l 658 1069 q 440 903 625 903 z "},"Â":{"ha":904,"x_min":14,"x_max":890,"o":"m 14 0 l 14 96 l 147 96 l 378 722 l 238 722 l 238 818 l 507 818 l 758 96 l 890 96 l 890 0 l 553 0 l 553 96 l 640 96 l 596 222 l 296 222 l 249 96 l 338 96 l 338 0 l 14 0 m 331 318 l 563 318 l 453 678 l 331 318 m 442 1081 l 679 946 l 654 901 l 442 979 l 229 901 l 204 946 l 442 1081 z "},"Ấ":{"ha":904,"x_min":14,"x_max":890,"o":"m 14 0 l 14 96 l 147 96 l 378 722 l 238 722 l 238 818 l 507 818 l 758 96 l 890 96 l 890 0 l 553 0 l 553 96 l 640 96 l 596 222 l 296 222 l 249 96 l 338 96 l 338 0 l 14 0 m 331 318 l 563 318 l 453 678 l 331 318 m 539 1288 l 589 1196 l 326 1092 l 304 1138 l 539 1288 m 442 1081 l 679 946 l 654 901 l 442 979 l 229 901 l 204 946 l 442 1081 z "},"Ậ":{"ha":904,"x_min":14,"x_max":890,"o":"m 14 0 l 14 96 l 147 96 l 378 722 l 238 722 l 238 818 l 507 818 l 758 96 l 890 96 l 890 0 l 553 0 l 553 96 l 640 96 l 596 222 l 296 222 l 249 96 l 338 96 l 338 0 l 14 0 m 331 318 l 563 318 l 453 678 l 331 318 m 442 1081 l 679 946 l 654 901 l 442 979 l 229 901 l 204 946 l 442 1081 z "},"Ầ":{"ha":904,"x_min":14,"x_max":890,"o":"m 14 0 l 14 96 l 147 96 l 378 722 l 238 722 l 238 818 l 507 818 l 758 96 l 890 96 l 890 0 l 553 0 l 553 96 l 640 96 l 596 222 l 296 222 l 249 96 l 338 96 l 338 0 l 14 0 m 331 318 l 563 318 l 453 678 l 331 318 m 346 1278 l 581 1128 l 558 1082 l 296 1186 l 346 1278 m 442 1081 l 679 946 l 654 901 l 442 979 l 229 901 l 204 946 l 442 1081 z "},"Ẩ":{"ha":904,"x_min":14,"x_max":890,"o":"m 14 0 l 14 96 l 147 96 l 378 722 l 238 722 l 238 818 l 507 818 l 758 96 l 890 96 l 890 0 l 553 0 l 553 96 l 640 96 l 596 222 l 296 222 l 249 96 l 338 96 l 338 0 l 14 0 m 331 318 l 563 318 l 453 678 l 331 318 m 442 1081 l 679 946 l 654 901 l 442 979 l 229 901 l 204 946 l 442 1081 m 583 1047 l 549 1090 q 594 1174 594 1128 q 553 1215 594 1215 q 488 1179 518 1215 l 439 1235 q 569 1299 490 1299 q 650 1269 615 1299 q 685 1183 685 1240 q 662 1118 685 1151 q 583 1047 639 1085 z "},"Ẫ":{"ha":904,"x_min":14,"x_max":890,"o":"m 14 0 l 14 96 l 147 96 l 378 722 l 238 722 l 238 818 l 507 818 l 758 96 l 890 96 l 890 0 l 553 0 l 553 96 l 640 96 l 596 222 l 296 222 l 249 96 l 338 96 l 338 0 l 14 0 m 331 318 l 563 318 l 453 678 l 331 318 m 249 1111 l 226 1179 q 301 1222 271 1208 q 379 1236 332 1236 q 476 1208 442 1236 q 553 1181 511 1181 q 594 1192 576 1181 q 643 1226 611 1203 l 669 1153 q 601 1106 629 1118 q 543 1093 574 1094 q 459 1121 497 1092 q 376 1150 421 1150 q 313 1140 338 1150 q 249 1111 289 1131 m 447 1079 l 685 944 l 660 900 l 447 978 l 235 900 l 210 944 l 447 1079 z "},"Ȁ":{"ha":904,"x_min":14,"x_max":890,"o":"m 14 0 l 14 96 l 147 96 l 378 722 l 238 722 l 238 818 l 507 818 l 758 96 l 890 96 l 890 0 l 553 0 l 553 96 l 640 96 l 596 222 l 296 222 l 249 96 l 338 96 l 338 0 l 14 0 m 331 318 l 563 318 l 453 678 l 331 318 m 325 1121 l 528 940 l 500 901 l 269 1043 l 325 1121 m 119 1060 l 368 947 l 350 903 l 86 971 l 119 1060 z "},"Ä":{"ha":904,"x_min":14,"x_max":890,"o":"m 14 0 l 14 96 l 147 96 l 378 722 l 238 722 l 238 818 l 507 818 l 758 96 l 890 96 l 890 0 l 553 0 l 553 96 l 640 96 l 596 222 l 296 222 l 249 96 l 338 96 l 338 0 l 14 0 m 331 318 l 563 318 l 453 678 l 331 318 z "},"Ạ":{"ha":904,"x_min":14,"x_max":890,"o":"m 14 0 l 14 96 l 147 96 l 378 722 l 238 722 l 238 818 l 507 818 l 758 96 l 890 96 l 890 0 l 553 0 l 553 96 l 640 96 l 596 222 l 296 222 l 249 96 l 338 96 l 338 0 l 14 0 m 331 318 l 563 318 l 453 678 l 331 318 z "},"À":{"ha":904,"x_min":14,"x_max":890,"o":"m 14 0 l 14 96 l 147 96 l 378 722 l 238 722 l 238 818 l 507 818 l 758 96 l 890 96 l 890 0 l 553 0 l 553 96 l 640 96 l 596 222 l 296 222 l 249 96 l 338 96 l 338 0 l 14 0 m 331 318 l 563 318 l 453 678 l 331 318 m 188 1058 l 525 942 l 513 892 l 163 957 l 188 1058 z "},"Ả":{"ha":904,"x_min":14,"x_max":890,"o":"m 14 0 l 14 96 l 147 96 l 378 722 l 238 722 l 238 818 l 507 818 l 758 96 l 890 96 l 890 0 l 553 0 l 553 96 l 640 96 l 596 222 l 296 222 l 249 96 l 338 96 l 338 0 l 14 0 m 331 318 l 563 318 l 453 678 l 331 318 m 456 893 l 421 936 q 467 1019 467 974 q 425 1061 467 1061 q 360 1025 390 1061 l 311 1081 q 442 1144 363 1144 q 522 1115 488 1144 q 557 1029 557 1086 q 534 964 557 997 q 456 893 511 931 z "},"Ȃ":{"ha":904,"x_min":14,"x_max":890,"o":"m 14 0 l 14 96 l 147 96 l 378 722 l 238 722 l 238 818 l 507 818 l 758 96 l 890 96 l 890 0 l 553 0 l 553 96 l 640 96 l 596 222 l 296 222 l 249 96 l 338 96 l 338 0 l 14 0 m 331 318 l 563 318 l 453 678 l 331 318 z "},"Ā":{"ha":904,"x_min":14,"x_max":890,"o":"m 14 0 l 14 96 l 147 96 l 378 722 l 238 722 l 238 818 l 507 818 l 758 96 l 890 96 l 890 0 l 553 0 l 553 96 l 640 96 l 596 222 l 296 222 l 249 96 l 338 96 l 338 0 l 14 0 m 331 318 l 563 318 l 453 678 l 331 318 z "},"Ą":{"ha":904,"x_min":14,"x_max":890,"o":"m 14 0 l 14 96 l 147 96 l 378 722 l 238 722 l 238 818 l 507 818 l 758 96 l 890 96 l 890 0 l 553 0 l 553 96 l 640 96 l 596 222 l 296 222 l 249 96 l 338 96 l 338 0 l 14 0 m 331 318 l 563 318 l 453 678 l 331 318 z "},"Å":{"ha":951,"x_min":14,"x_max":890,"o":"m 14 0 l 14 96 l 147 96 l 378 722 l 238 722 l 238 818 l 507 818 l 758 96 l 890 96 l 890 0 l 553 0 l 553 96 l 640 96 l 596 222 l 296 222 l 249 96 l 338 96 l 338 0 l 14 0 m 331 318 l 563 318 l 453 678 l 331 318 z "},"Ǻ":{"ha":951,"x_min":14,"x_max":890,"o":"m 14 0 l 14 96 l 147 96 l 378 722 l 238 722 l 238 818 l 507 818 l 758 96 l 890 96 l 890 0 l 553 0 l 553 96 l 640 96 l 596 222 l 296 222 l 249 96 l 338 96 l 338 0 l 14 0 m 331 318 l 563 318 l 453 678 l 331 318 m 667 1222 l 692 1121 l 342 1056 l 329 1106 l 667 1222 z "},"Ã":{"ha":904,"x_min":14,"x_max":890,"o":"m 14 0 l 14 96 l 147 96 l 378 722 l 238 722 l 238 818 l 507 818 l 758 96 l 890 96 l 890 0 l 553 0 l 553 96 l 640 96 l 596 222 l 296 222 l 249 96 l 338 96 l 338 0 l 14 0 m 331 318 l 563 318 l 453 678 l 331 318 m 275 913 l 246 985 q 321 1028 290 1014 q 399 1042 351 1042 q 496 1014 461 1042 q 572 986 531 986 q 613 997 596 986 q 663 1032 631 1008 l 696 954 q 628 908 656 919 q 569 894 600 896 q 485 922 524 892 q 403 951 446 951 q 340 941 364 951 q 275 913 315 931 z "},"Æ":{"ha":1276,"x_min":38,"x_max":1229,"o":"m 38 0 l 38 96 l 176 96 l 574 722 l 431 722 l 431 818 l 1129 818 l 1201 604 l 1110 574 l 1054 722 l 794 722 l 794 457 l 1017 457 l 1017 361 l 793 361 l 793 96 l 1082 96 l 1138 244 l 1229 214 l 1158 0 l 550 0 l 550 96 l 682 96 l 682 222 l 368 222 l 290 96 l 371 96 l 371 0 l 38 0 m 428 318 l 682 318 l 683 722 l 428 318 z "},"Ǽ":{"ha":1276,"x_min":38,"x_max":1229,"o":"m 38 0 l 38 96 l 176 96 l 574 722 l 431 722 l 431 818 l 1129 818 l 1201 604 l 1110 574 l 1054 722 l 794 722 l 794 457 l 1017 457 l 1017 361 l 793 361 l 793 96 l 1082 96 l 1138 244 l 1229 214 l 1158 0 l 550 0 l 550 96 l 682 96 l 682 222 l 368 222 l 290 96 l 371 96 l 371 0 l 38 0 m 428 318 l 682 318 l 683 722 l 428 318 m 933 1067 l 958 965 l 608 900 l 596 950 l 933 1067 z "},"B":{"ha":772,"x_min":51,"x_max":738,"o":"m 51 0 l 51 96 l 183 96 l 183 722 l 51 722 l 51 818 l 406 818 q 711 604 711 818 q 599 422 711 481 q 697 350 657 401 q 738 224 738 299 q 671 63 738 126 q 464 0 604 0 l 51 0 m 293 97 l 458 97 q 619 239 619 97 q 467 372 619 372 l 294 372 l 293 97 m 294 456 l 468 456 q 593 589 593 456 q 421 722 593 722 l 294 722 l 294 456 z "},"C":{"ha":799,"x_min":60,"x_max":740,"o":"m 618 711 q 557 733 597 722 q 456 744 517 744 q 250 655 321 744 q 179 410 179 565 q 252 163 179 251 q 456 74 325 74 q 550 83 508 74 q 618 103 592 93 l 644 214 l 739 192 l 704 31 q 636 5 704 31 q 456 -21 568 -21 q 169 95 276 -21 q 61 410 63 211 q 167 723 60 606 q 454 839 275 840 q 651 806 592 838 q 710 774 710 775 l 740 613 l 646 592 l 618 711 z "},"Ć":{"ha":799,"x_min":60,"x_max":740,"o":"m 618 711 q 557 733 597 722 q 456 744 517 744 q 250 655 321 744 q 179 410 179 565 q 252 163 179 251 q 456 74 325 74 q 550 83 508 74 q 618 103 592 93 l 644 214 l 739 192 l 704 31 q 636 5 704 31 q 456 -21 568 -21 q 169 95 276 -21 q 61 410 63 211 q 167 723 60 606 q 454 839 275 840 q 651 806 592 838 q 710 774 710 775 l 740 613 l 646 592 l 618 711 m 665 1067 l 690 965 l 340 900 l 328 950 l 665 1067 z "},"Č":{"ha":799,"x_min":60,"x_max":740,"o":"m 618 711 q 557 733 597 722 q 456 744 517 744 q 250 655 321 744 q 179 410 179 565 q 252 163 179 251 q 456 74 325 74 q 550 83 508 74 q 618 103 592 93 l 644 214 l 739 192 l 704 31 q 636 5 704 31 q 456 -21 568 -21 q 169 95 276 -21 q 61 410 63 211 q 167 723 60 606 q 454 839 275 840 q 651 806 592 838 q 710 774 710 775 l 740 613 l 646 592 l 618 711 z "},"Ç":{"ha":799,"x_min":60,"x_max":740,"o":"m 618 711 q 557 733 597 722 q 456 744 517 744 q 250 655 321 744 q 179 410 179 565 q 252 163 179 251 q 456 74 325 74 q 550 83 508 74 q 618 103 592 93 l 644 214 l 739 192 l 704 31 q 636 5 704 31 q 456 -21 568 -21 q 169 95 276 -21 q 61 410 63 211 q 167 723 60 606 q 454 839 275 840 q 651 806 592 838 q 710 774 710 775 l 740 613 l 646 592 l 618 711 z "},"Ḉ":{"ha":799,"x_min":60,"x_max":740,"o":"m 618 711 q 557 733 597 722 q 456 744 517 744 q 250 655 321 744 q 179 410 179 565 q 252 163 179 251 q 456 74 325 74 q 550 83 508 74 q 618 103 592 93 l 644 214 l 739 192 l 704 31 q 636 5 704 31 q 456 -21 568 -21 q 169 95 276 -21 q 61 410 63 211 q 167 723 60 606 q 454 839 275 840 q 651 806 592 838 q 710 774 710 775 l 740 613 l 646 592 l 618 711 m 665 1067 l 690 965 l 340 900 l 328 950 l 665 1067 z "},"Ĉ":{"ha":799,"x_min":60,"x_max":740,"o":"m 618 711 q 557 733 597 722 q 456 744 517 744 q 250 655 321 744 q 179 410 179 565 q 252 163 179 251 q 456 74 325 74 q 550 83 508 74 q 618 103 592 93 l 644 214 l 739 192 l 704 31 q 636 5 704 31 q 456 -21 568 -21 q 169 95 276 -21 q 61 410 63 211 q 167 723 60 606 q 454 839 275 840 q 651 806 592 838 q 710 774 710 775 l 740 613 l 646 592 l 618 711 m 454 1081 l 692 946 l 667 901 l 454 979 l 242 901 l 217 946 l 454 1081 z "},"Ċ":{"ha":799,"x_min":60,"x_max":740,"o":"m 618 711 q 557 733 597 722 q 456 744 517 744 q 250 655 321 744 q 179 410 179 565 q 252 163 179 251 q 456 74 325 74 q 550 83 508 74 q 618 103 592 93 l 644 214 l 739 192 l 704 31 q 636 5 704 31 q 456 -21 568 -21 q 169 95 276 -21 q 61 410 63 211 q 167 723 60 606 q 454 839 275 840 q 651 806 592 838 q 710 774 710 775 l 740 613 l 646 592 l 618 711 m 453 1114 q 515 1090 492 1114 q 539 1028 539 1067 q 515 965 539 989 q 453 942 492 942 q 368 1028 368 942 q 391 1090 368 1067 q 453 1114 414 1114 z "},"D":{"ha":901,"x_min":51,"x_max":842,"o":"m 421 818 q 731 706 619 818 q 842 396 842 594 q 733 105 842 210 q 432 0 625 0 l 51 0 l 51 96 l 183 96 l 183 722 l 51 722 l 51 818 l 421 818 m 407 96 q 724 396 724 96 q 421 722 724 722 l 294 722 l 294 96 l 407 96 z "},"Ð":{"ha":918,"x_min":68,"x_max":858,"o":"m 438 818 q 742 728 625 818 q 858 396 858 638 q 740 106 858 213 q 449 0 622 0 l 68 0 l 68 96 l 200 96 l 200 378 l 68 378 l 68 467 l 200 467 l 200 722 l 68 722 l 68 818 l 438 818 m 424 96 q 660 172 581 96 q 740 396 740 249 q 662 660 740 597 q 438 722 583 722 l 311 722 l 311 467 l 468 467 l 468 378 l 311 378 l 311 96 l 424 96 z "},"Ď":{"ha":901,"x_min":51,"x_max":842,"o":"m 421 818 q 731 706 619 818 q 842 396 842 594 q 733 105 842 210 q 432 0 625 0 l 51 0 l 51 96 l 183 96 l 183 722 l 51 722 l 51 818 l 421 818 m 407 96 q 724 396 724 96 q 421 722 724 722 l 294 722 l 294 96 l 407 96 m 396 900 l 158 1035 l 183 1079 l 396 1001 l 608 1079 l 633 1035 l 396 900 z "},"Đ":{"ha":918,"x_min":68,"x_max":858,"o":"m 438 818 q 742 728 625 818 q 858 396 858 638 q 740 106 858 213 q 449 0 622 0 l 68 0 l 68 96 l 200 96 l 200 378 l 68 378 l 68 467 l 200 467 l 200 722 l 68 722 l 68 818 l 438 818 m 424 96 q 660 172 581 96 q 740 396 740 249 q 662 660 740 597 q 438 722 583 722 l 311 722 l 311 467 l 468 467 l 468 378 l 311 378 l 311 96 l 424 96 z "},"Ḍ":{"ha":901,"x_min":51,"x_max":842,"o":"m 421 818 q 731 706 619 818 q 842 396 842 594 q 733 105 842 210 q 432 0 625 0 l 51 0 l 51 96 l 183 96 l 183 722 l 51 722 l 51 818 l 421 818 m 407 96 q 724 396 724 96 q 421 722 724 722 l 294 722 l 294 96 l 407 96 z "},"Ḏ":{"ha":901,"x_min":51,"x_max":842,"o":"m 421 818 q 731 706 619 818 q 842 396 842 594 q 733 105 842 210 q 432 0 625 0 l 51 0 l 51 96 l 183 96 l 183 722 l 51 722 l 51 818 l 421 818 m 407 96 q 724 396 724 96 q 421 722 724 722 l 294 722 l 294 96 l 407 96 m 210 -56 l 636 -56 l 636 -142 l 210 -142 l 210 -56 z "},"E":{"ha":815,"x_min":51,"x_max":768,"o":"m 53 818 l 669 818 l 740 604 l 650 574 l 594 722 l 297 722 l 297 471 l 557 471 l 557 375 l 297 375 l 296 96 l 622 96 l 678 244 l 768 214 l 697 0 l 51 0 l 51 96 l 185 96 l 186 722 l 53 722 l 53 818 z "},"É":{"ha":815,"x_min":51,"x_max":768,"o":"m 53 818 l 669 818 l 740 604 l 650 574 l 594 722 l 297 722 l 297 471 l 557 471 l 557 375 l 297 375 l 296 96 l 622 96 l 678 244 l 768 214 l 697 0 l 51 0 l 51 96 l 185 96 l 186 722 l 53 722 l 53 818 m 618 1067 l 643 965 l 293 900 l 281 950 l 618 1067 z "},"Ĕ":{"ha":815,"x_min":51,"x_max":768,"o":"m 53 818 l 669 818 l 740 604 l 650 574 l 594 722 l 297 722 l 297 471 l 557 471 l 557 375 l 297 375 l 296 96 l 622 96 l 678 244 l 768 214 l 697 0 l 51 0 l 51 96 l 185 96 l 186 722 l 53 722 l 53 818 m 406 903 q 189 1069 222 903 l 279 1086 q 406 992 294 992 q 533 1086 521 992 l 624 1069 q 406 903 590 903 z "},"Ě":{"ha":815,"x_min":51,"x_max":768,"o":"m 53 818 l 669 818 l 740 604 l 650 574 l 594 722 l 297 722 l 297 471 l 557 471 l 557 375 l 297 375 l 296 96 l 622 96 l 678 244 l 768 214 l 697 0 l 51 0 l 51 96 l 185 96 l 186 722 l 53 722 l 53 818 z "},"Ḝ":{"ha":815,"x_min":51,"x_max":768,"o":"m 53 818 l 669 818 l 740 604 l 650 574 l 594 722 l 297 722 l 297 471 l 557 471 l 557 375 l 297 375 l 296 96 l 622 96 l 678 244 l 768 214 l 697 0 l 51 0 l 51 96 l 185 96 l 186 722 l 53 722 l 53 818 m 406 903 q 189 1069 222 903 l 279 1086 q 406 992 294 992 q 533 1086 521 992 l 624 1069 q 406 903 590 903 z "},"Ê":{"ha":815,"x_min":51,"x_max":768,"o":"m 53 818 l 669 818 l 740 604 l 650 574 l 594 722 l 297 722 l 297 471 l 557 471 l 557 375 l 297 375 l 296 96 l 622 96 l 678 244 l 768 214 l 697 0 l 51 0 l 51 96 l 185 96 l 186 722 l 53 722 l 53 818 m 407 1081 l 644 946 l 619 901 l 407 979 l 194 901 l 169 946 l 407 1081 z "},"Ế":{"ha":815,"x_min":51,"x_max":768,"o":"m 53 818 l 669 818 l 740 604 l 650 574 l 594 722 l 297 722 l 297 471 l 557 471 l 557 375 l 297 375 l 296 96 l 622 96 l 678 244 l 768 214 l 697 0 l 51 0 l 51 96 l 185 96 l 186 722 l 53 722 l 53 818 m 504 1288 l 554 1196 l 292 1092 l 269 1138 l 504 1288 m 407 1081 l 644 946 l 619 901 l 407 979 l 194 901 l 169 946 l 407 1081 z "},"Ệ":{"ha":815,"x_min":51,"x_max":768,"o":"m 53 818 l 669 818 l 740 604 l 650 574 l 594 722 l 297 722 l 297 471 l 557 471 l 557 375 l 297 375 l 296 96 l 622 96 l 678 244 l 768 214 l 697 0 l 51 0 l 51 96 l 185 96 l 186 722 l 53 722 l 53 818 m 407 1081 l 644 946 l 619 901 l 407 979 l 194 901 l 169 946 l 407 1081 z "},"Ề":{"ha":815,"x_min":51,"x_max":768,"o":"m 53 818 l 669 818 l 740 604 l 650 574 l 594 722 l 297 722 l 297 471 l 557 471 l 557 375 l 297 375 l 296 96 l 622 96 l 678 244 l 768 214 l 697 0 l 51 0 l 51 96 l 185 96 l 186 722 l 53 722 l 53 818 m 311 1278 l 546 1128 l 524 1082 l 261 1186 l 311 1278 m 407 1081 l 644 946 l 619 901 l 407 979 l 194 901 l 169 946 l 407 1081 z "},"Ể":{"ha":815,"x_min":51,"x_max":768,"o":"m 53 818 l 669 818 l 740 604 l 650 574 l 594 722 l 297 722 l 297 471 l 557 471 l 557 375 l 297 375 l 296 96 l 622 96 l 678 244 l 768 214 l 697 0 l 51 0 l 51 96 l 185 96 l 186 722 l 53 722 l 53 818 m 407 1081 l 644 946 l 619 901 l 407 979 l 194 901 l 169 946 l 407 1081 m 549 1047 l 514 1090 q 560 1174 560 1128 q 518 1215 560 1215 q 453 1179 483 1215 l 404 1235 q 535 1299 456 1299 q 615 1269 581 1299 q 650 1183 650 1240 q 627 1118 650 1151 q 549 1047 604 1085 z "},"Ễ":{"ha":815,"x_min":51,"x_max":768,"o":"m 53 818 l 669 818 l 740 604 l 650 574 l 594 722 l 297 722 l 297 471 l 557 471 l 557 375 l 297 375 l 296 96 l 622 96 l 678 244 l 768 214 l 697 0 l 51 0 l 51 96 l 185 96 l 186 722 l 53 722 l 53 818 m 214 1111 l 192 1179 q 267 1222 236 1208 q 344 1236 297 1236 q 442 1208 407 1236 q 518 1181 476 1181 q 559 1192 542 1181 q 608 1226 576 1203 l 635 1153 q 567 1106 594 1118 q 508 1093 539 1094 q 424 1121 463 1092 q 342 1150 386 1150 q 278 1140 303 1150 q 214 1111 254 1131 m 413 1079 l 650 944 l 625 900 l 413 978 l 200 900 l 175 944 l 413 1079 z "},"Ȅ":{"ha":815,"x_min":51,"x_max":768,"o":"m 53 818 l 669 818 l 740 604 l 650 574 l 594 722 l 297 722 l 297 471 l 557 471 l 557 375 l 297 375 l 296 96 l 622 96 l 678 244 l 768 214 l 697 0 l 51 0 l 51 96 l 185 96 l 186 722 l 53 722 l 53 818 m 386 1183 l 561 933 l 510 894 l 304 1122 l 386 1183 m 154 1156 l 372 942 l 329 894 l 86 1081 l 154 1156 z "},"Ë":{"ha":815,"x_min":51,"x_max":768,"o":"m 53 818 l 669 818 l 740 604 l 650 574 l 594 722 l 297 722 l 297 471 l 557 471 l 557 375 l 297 375 l 296 96 l 622 96 l 678 244 l 768 214 l 697 0 l 51 0 l 51 96 l 185 96 l 186 722 l 53 722 l 53 818 z "},"Ė":{"ha":815,"x_min":51,"x_max":768,"o":"m 53 818 l 669 818 l 740 604 l 650 574 l 594 722 l 297 722 l 297 471 l 557 471 l 557 375 l 297 375 l 296 96 l 622 96 l 678 244 l 768 214 l 697 0 l 51 0 l 51 96 l 185 96 l 186 722 l 53 722 l 53 818 m 406 1114 q 468 1090 444 1114 q 492 1028 492 1067 q 468 965 492 989 q 406 942 444 942 q 321 1028 321 942 q 344 1090 321 1067 q 406 1114 367 1114 z "},"Ẹ":{"ha":815,"x_min":51,"x_max":768,"o":"m 53 818 l 669 818 l 740 604 l 650 574 l 594 722 l 297 722 l 297 471 l 557 471 l 557 375 l 297 375 l 296 96 l 622 96 l 678 244 l 768 214 l 697 0 l 51 0 l 51 96 l 185 96 l 186 722 l 53 722 l 53 818 z "},"È":{"ha":815,"x_min":51,"x_max":768,"o":"m 53 818 l 669 818 l 740 604 l 650 574 l 594 722 l 297 722 l 297 471 l 557 471 l 557 375 l 297 375 l 296 96 l 622 96 l 678 244 l 768 214 l 697 0 l 51 0 l 51 96 l 185 96 l 186 722 l 53 722 l 53 818 m 153 1058 l 490 942 l 478 892 l 128 957 l 153 1058 z "},"Ẻ":{"ha":815,"x_min":51,"x_max":768,"o":"m 53 818 l 669 818 l 740 604 l 650 574 l 594 722 l 297 722 l 297 471 l 557 471 l 557 375 l 297 375 l 296 96 l 622 96 l 678 244 l 768 214 l 697 0 l 51 0 l 51 96 l 185 96 l 186 722 l 53 722 l 53 818 m 421 893 l 386 936 q 432 1019 432 974 q 390 1061 432 1061 q 325 1025 356 1061 l 276 1081 q 407 1144 328 1144 q 488 1115 453 1144 q 522 1029 522 1086 q 499 964 522 997 q 421 893 476 931 z "},"Ȇ":{"ha":815,"x_min":51,"x_max":768,"o":"m 53 818 l 669 818 l 740 604 l 650 574 l 594 722 l 297 722 l 297 471 l 557 471 l 557 375 l 297 375 l 296 96 l 622 96 l 678 244 l 768 214 l 697 0 l 51 0 l 51 96 l 185 96 l 186 722 l 53 722 l 53 818 z "},"Ē":{"ha":815,"x_min":51,"x_max":768,"o":"m 53 818 l 669 818 l 740 604 l 650 574 l 594 722 l 297 722 l 297 471 l 557 471 l 557 375 l 297 375 l 296 96 l 622 96 l 678 244 l 768 214 l 697 0 l 51 0 l 51 96 l 185 96 l 186 722 l 53 722 l 53 818 z "},"Ḗ":{"ha":815,"x_min":51,"x_max":768,"o":"m 53 818 l 669 818 l 740 604 l 650 574 l 594 722 l 297 722 l 297 471 l 557 471 l 557 375 l 297 375 l 296 96 l 622 96 l 678 244 l 768 214 l 697 0 l 51 0 l 51 96 l 185 96 l 186 722 l 53 722 l 53 818 m 643 1275 l 668 1174 l 318 1108 l 306 1158 l 643 1275 z "},"Ḕ":{"ha":815,"x_min":51,"x_max":768,"o":"m 53 818 l 669 818 l 740 604 l 650 574 l 594 722 l 297 722 l 297 471 l 557 471 l 557 375 l 297 375 l 296 96 l 622 96 l 678 244 l 768 214 l 697 0 l 51 0 l 51 96 l 185 96 l 186 722 l 53 722 l 53 818 m 178 1267 l 515 1150 l 503 1100 l 153 1165 l 178 1267 z "},"Ę":{"ha":815,"x_min":51,"x_max":768,"o":"m 53 818 l 669 818 l 740 604 l 650 574 l 594 722 l 297 722 l 297 471 l 557 471 l 557 375 l 297 375 l 296 96 l 622 96 l 678 244 l 768 214 l 697 0 l 51 0 l 51 96 l 185 96 l 186 722 l 53 722 l 53 818 z "},"Ẽ":{"ha":815,"x_min":51,"x_max":768,"o":"m 53 818 l 669 818 l 740 604 l 650 574 l 594 722 l 297 722 l 297 471 l 557 471 l 557 375 l 297 375 l 296 96 l 622 96 l 678 244 l 768 214 l 697 0 l 51 0 l 51 96 l 185 96 l 186 722 l 53 722 l 53 818 m 240 913 l 211 985 q 286 1028 256 1014 q 364 1042 317 1042 q 461 1014 426 1042 q 538 986 496 986 q 578 997 561 986 q 628 1032 596 1008 l 661 954 q 593 908 621 919 q 535 894 565 896 q 450 922 489 892 q 368 951 411 951 q 305 941 329 951 q 240 913 281 931 z "},"F":{"ha":778,"x_min":51,"x_max":739,"o":"m 53 818 l 668 818 l 739 604 l 649 574 l 593 722 l 296 722 l 296 463 l 525 463 l 525 367 l 294 367 l 294 96 l 464 96 l 464 0 l 51 0 l 51 96 l 185 96 l 186 722 l 53 722 l 53 818 z "},"G":{"ha":822,"x_min":61,"x_max":746,"o":"m 739 75 q 608 1 667 24 q 446 -21 549 -21 q 173 85 285 -21 q 61 410 61 192 q 169 724 61 608 q 458 839 278 839 q 597 820 533 839 q 714 760 661 801 l 746 613 l 650 592 l 625 699 q 559 731 593 718 q 460 744 525 744 q 265 658 350 744 q 179 410 179 571 q 260 151 179 228 q 446 74 340 74 q 553 86 514 74 q 635 128 593 99 l 635 307 l 457 307 l 457 403 l 739 403 l 739 75 z "},"Ğ":{"ha":822,"x_min":61,"x_max":746,"o":"m 739 75 q 608 1 667 24 q 446 -21 549 -21 q 173 85 285 -21 q 61 410 61 192 q 169 724 61 608 q 458 839 278 839 q 597 820 533 839 q 714 760 661 801 l 746 613 l 650 592 l 625 699 q 559 731 593 718 q 460 744 525 744 q 265 658 350 744 q 179 410 179 571 q 260 151 179 228 q 446 74 340 74 q 553 86 514 74 q 635 128 593 99 l 635 307 l 457 307 l 457 403 l 739 403 l 739 75 m 464 903 q 247 1069 281 903 l 338 1086 q 464 992 353 992 q 592 1086 579 992 l 682 1069 q 464 903 649 903 z "},"Ǧ":{"ha":822,"x_min":61,"x_max":746,"o":"m 739 75 q 608 1 667 24 q 446 -21 549 -21 q 173 85 285 -21 q 61 410 61 192 q 169 724 61 608 q 458 839 278 839 q 597 820 533 839 q 714 760 661 801 l 746 613 l 650 592 l 625 699 q 559 731 593 718 q 460 744 525 744 q 265 658 350 744 q 179 410 179 571 q 260 151 179 228 q 446 74 340 74 q 553 86 514 74 q 635 128 593 99 l 635 307 l 457 307 l 457 403 l 739 403 l 739 75 z "},"Ĝ":{"ha":822,"x_min":61,"x_max":746,"o":"m 739 75 q 608 1 667 24 q 446 -21 549 -21 q 173 85 285 -21 q 61 410 61 192 q 169 724 61 608 q 458 839 278 839 q 597 820 533 839 q 714 760 661 801 l 746 613 l 650 592 l 625 699 q 559 731 593 718 q 460 744 525 744 q 265 658 350 744 q 179 410 179 571 q 260 151 179 228 q 446 74 340 74 q 553 86 514 74 q 635 128 593 99 l 635 307 l 457 307 l 457 403 l 739 403 l 739 75 m 465 1081 l 703 946 l 678 901 l 465 979 l 253 901 l 228 946 l 465 1081 z "},"Ģ":{"ha":822,"x_min":61,"x_max":746,"o":"m 739 75 q 608 1 667 24 q 446 -21 549 -21 q 173 85 285 -21 q 61 410 61 192 q 169 724 61 608 q 458 839 278 839 q 597 820 533 839 q 714 760 661 801 l 746 613 l 650 592 l 625 699 q 559 731 593 718 q 460 744 525 744 q 265 658 350 744 q 179 410 179 571 q 260 151 179 228 q 446 74 340 74 q 553 86 514 74 q 635 128 593 99 l 635 307 l 457 307 l 457 403 l 739 403 l 739 75 z "},"Ġ":{"ha":822,"x_min":61,"x_max":746,"o":"m 739 75 q 608 1 667 24 q 446 -21 549 -21 q 173 85 285 -21 q 61 410 61 192 q 169 724 61 608 q 458 839 278 839 q 597 820 533 839 q 714 760 661 801 l 746 613 l 650 592 l 625 699 q 559 731 593 718 q 460 744 525 744 q 265 658 350 744 q 179 410 179 571 q 260 151 179 228 q 446 74 340 74 q 553 86 514 74 q 635 128 593 99 l 635 307 l 457 307 l 457 403 l 739 403 l 739 75 m 464 1114 q 526 1090 503 1114 q 550 1028 550 1067 q 526 965 550 989 q 464 942 503 942 q 379 1028 379 942 q 402 1090 379 1067 q 464 1114 425 1114 z "},"Ḡ":{"ha":822,"x_min":61,"x_max":746,"o":"m 739 75 q 608 1 667 24 q 446 -21 549 -21 q 173 85 285 -21 q 61 410 61 192 q 169 724 61 608 q 458 839 278 839 q 597 820 533 839 q 714 760 661 801 l 746 613 l 650 592 l 625 699 q 559 731 593 718 q 460 744 525 744 q 265 658 350 744 q 179 410 179 571 q 260 151 179 228 q 446 74 340 74 q 553 86 514 74 q 635 128 593 99 l 635 307 l 457 307 l 457 403 l 739 403 l 739 75 z "},"H":{"ha":992,"x_min":51,"x_max":940,"o":"m 53 818 l 386 818 l 386 722 l 297 722 l 296 467 l 696 467 l 697 722 l 608 722 l 608 818 l 940 818 l 940 722 l 808 722 l 804 96 l 938 96 l 938 0 l 607 0 l 607 96 l 696 96 l 696 371 l 296 371 l 294 96 l 383 96 l 383 0 l 51 0 l 51 96 l 185 96 l 186 722 l 53 722 l 53 818 z "},"Ħ":{"ha":992,"x_min":51,"x_max":940,"o":"m 69 633 l 913 633 l 913 561 l 69 561 l 69 633 m 53 818 l 386 818 l 386 722 l 297 722 l 296 467 l 696 467 l 697 722 l 608 722 l 608 818 l 940 818 l 940 722 l 808 722 l 804 96 l 938 96 l 938 0 l 607 0 l 607 96 l 696 96 l 696 371 l 296 371 l 294 96 l 383 96 l 383 0 l 51 0 l 51 96 l 185 96 l 186 722 l 53 722 l 53 818 z "},"Ḫ":{"ha":992,"x_min":51,"x_max":940,"o":"m 53 818 l 386 818 l 386 722 l 297 722 l 296 467 l 696 467 l 697 722 l 608 722 l 608 818 l 940 818 l 940 722 l 808 722 l 804 96 l 938 96 l 938 0 l 607 0 l 607 96 l 696 96 l 696 371 l 296 371 l 294 96 l 383 96 l 383 0 l 51 0 l 51 96 l 185 96 l 186 722 l 53 722 l 53 818 z "},"Ĥ":{"ha":992,"x_min":51,"x_max":940,"o":"m 53 818 l 386 818 l 386 722 l 297 722 l 296 467 l 696 467 l 697 722 l 608 722 l 608 818 l 940 818 l 940 722 l 808 722 l 804 96 l 938 96 l 938 0 l 607 0 l 607 96 l 696 96 l 696 371 l 296 371 l 294 96 l 383 96 l 383 0 l 51 0 l 51 96 l 185 96 l 186 722 l 53 722 l 53 818 m 496 1081 l 733 946 l 708 901 l 496 979 l 283 901 l 258 946 l 496 1081 z "},"Ḥ":{"ha":992,"x_min":51,"x_max":940,"o":"m 53 818 l 386 818 l 386 722 l 297 722 l 296 467 l 696 467 l 697 722 l 608 722 l 608 818 l 940 818 l 940 722 l 808 722 l 804 96 l 938 96 l 938 0 l 607 0 l 607 96 l 696 96 l 696 371 l 296 371 l 294 96 l 383 96 l 383 0 l 51 0 l 51 96 l 185 96 l 186 722 l 53 722 l 53 818 z "},"I":{"ha":479,"x_min":51,"x_max":428,"o":"m 53 818 l 428 818 l 428 722 l 299 722 l 296 96 l 428 96 l 428 0 l 51 0 l 51 96 l 186 96 l 186 722 l 53 722 l 53 818 z "},"Í":{"ha":479,"x_min":51,"x_max":476,"o":"m 53 818 l 428 818 l 428 722 l 299 722 l 296 96 l 428 96 l 428 0 l 51 0 l 51 96 l 186 96 l 186 722 l 53 722 l 53 818 m 451 1067 l 476 965 l 126 900 l 114 950 l 451 1067 z "},"Ĭ":{"ha":479,"x_min":22,"x_max":457,"o":"m 53 818 l 428 818 l 428 722 l 299 722 l 296 96 l 428 96 l 428 0 l 51 0 l 51 96 l 186 96 l 186 722 l 53 722 l 53 818 m 239 903 q 22 1069 56 903 l 113 1086 q 239 992 128 992 q 367 1086 354 992 l 457 1069 q 239 903 424 903 z "},"Î":{"ha":479,"x_min":3,"x_max":478,"o":"m 53 818 l 428 818 l 428 722 l 299 722 l 296 96 l 428 96 l 428 0 l 51 0 l 51 96 l 186 96 l 186 722 l 53 722 l 53 818 m 240 1081 l 478 946 l 453 901 l 240 979 l 28 901 l 3 946 l 240 1081 z "},"Ȉ":{"ha":479,"x_min":-81,"x_max":428,"o":"m 53 818 l 428 818 l 428 722 l 299 722 l 296 96 l 428 96 l 428 0 l 51 0 l 51 96 l 186 96 l 186 722 l 53 722 l 53 818 m 219 1183 l 394 933 l 343 894 l 138 1122 l 219 1183 m -12 1156 l 206 942 l 163 894 l -81 1081 l -12 1156 z "},"Ï":{"ha":479,"x_min":39,"x_max":442,"o":"m 53 818 l 428 818 l 428 722 l 299 722 l 296 96 l 428 96 l 428 0 l 51 0 l 51 96 l 186 96 l 186 722 l 53 722 l 53 818 z "},"Ḯ":{"ha":479,"x_min":39,"x_max":476,"o":"m 53 818 l 428 818 l 428 722 l 299 722 l 296 96 l 428 96 l 428 0 l 51 0 l 51 96 l 186 96 l 186 722 l 53 722 l 53 818 m 451 1247 l 476 1146 l 126 1081 l 114 1131 l 451 1247 z "},"İ":{"ha":479,"x_min":51,"x_max":428,"o":"m 53 818 l 428 818 l 428 722 l 299 722 l 296 96 l 428 96 l 428 0 l 51 0 l 51 96 l 186 96 l 186 722 l 53 722 l 53 818 m 239 1114 q 301 1090 278 1114 q 325 1028 325 1067 q 301 965 325 989 q 239 942 278 942 q 154 1028 154 942 q 177 1090 154 1067 q 239 1114 200 1114 z "},"Ị":{"ha":479,"x_min":51,"x_max":428,"o":"m 53 818 l 428 818 l 428 722 l 299 722 l 296 96 l 428 96 l 428 0 l 51 0 l 51 96 l 186 96 l 186 722 l 53 722 l 53 818 z "},"Ì":{"ha":479,"x_min":-39,"x_max":428,"o":"m 53 818 l 428 818 l 428 722 l 299 722 l 296 96 l 428 96 l 428 0 l 51 0 l 51 96 l 186 96 l 186 722 l 53 722 l 53 818 m -14 1058 l 324 942 l 311 892 l -39 957 l -14 1058 z "},"Ỉ":{"ha":479,"x_min":51,"x_max":428,"o":"m 53 818 l 428 818 l 428 722 l 299 722 l 296 96 l 428 96 l 428 0 l 51 0 l 51 96 l 186 96 l 186 722 l 53 722 l 53 818 m 254 893 l 219 936 q 265 1019 265 974 q 224 1061 265 1061 q 158 1025 189 1061 l 110 1081 q 240 1144 161 1144 q 321 1115 286 1144 q 356 1029 356 1086 q 333 964 356 997 q 254 893 310 931 z "},"Ȋ":{"ha":479,"x_min":22,"x_max":457,"o":"m 53 818 l 428 818 l 428 722 l 299 722 l 296 96 l 428 96 l 428 0 l 51 0 l 51 96 l 186 96 l 186 722 l 53 722 l 53 818 z "},"Ī":{"ha":479,"x_min":32,"x_max":447,"o":"m 53 818 l 428 818 l 428 722 l 299 722 l 296 96 l 428 96 l 428 0 l 51 0 l 51 96 l 186 96 l 186 722 l 53 722 l 53 818 z "},"Į":{"ha":479,"x_min":51,"x_max":475,"o":"m 53 818 l 428 818 l 428 722 l 299 722 l 296 96 l 428 96 l 428 0 l 51 0 l 51 96 l 186 96 l 186 722 l 53 722 l 53 818 z "},"Ĩ":{"ha":479,"x_min":44,"x_max":494,"o":"m 53 818 l 428 818 l 428 722 l 299 722 l 296 96 l 428 96 l 428 0 l 51 0 l 51 96 l 186 96 l 186 722 l 53 722 l 53 818 m 74 913 l 44 985 q 119 1028 89 1014 q 197 1042 150 1042 q 294 1014 260 1042 q 371 986 329 986 q 412 997 394 986 q 461 1032 429 1008 l 494 954 q 426 908 454 919 q 368 894 399 896 q 283 922 322 892 q 201 951 244 951 q 138 941 163 951 q 74 913 114 931 z "},"J":{"ha":714,"x_min":35,"x_max":676,"o":"m 546 328 q 471 71 546 161 q 263 -19 396 -19 q 171 -10 219 -19 q 69 21 122 0 l 35 196 l 129 218 l 158 94 q 265 71 215 71 q 388 133 343 71 q 433 317 433 194 l 435 722 l 251 722 l 251 818 l 676 818 l 676 722 l 546 722 l 546 328 z "},"Ĵ":{"ha":714,"x_min":35,"x_max":721,"o":"m 546 328 q 471 71 546 161 q 263 -19 396 -19 q 171 -10 219 -19 q 69 21 122 0 l 35 196 l 129 218 l 158 94 q 265 71 215 71 q 388 133 343 71 q 433 317 433 194 l 435 722 l 251 722 l 251 818 l 676 818 l 676 722 l 546 722 l 546 328 m 483 1081 l 721 946 l 696 901 l 483 979 l 271 901 l 246 946 l 483 1081 z "},"K":{"ha":929,"x_min":51,"x_max":883,"o":"m 51 818 l 381 818 l 381 722 l 292 722 l 292 461 l 421 461 l 613 722 l 510 722 l 510 818 l 851 818 l 851 722 l 725 722 l 515 438 l 744 96 l 883 96 l 883 0 l 510 0 l 510 96 l 622 96 l 443 365 l 292 365 l 293 96 l 381 96 l 381 0 l 51 0 l 51 96 l 182 96 l 182 722 l 51 722 l 51 818 z "},"Ķ":{"ha":929,"x_min":51,"x_max":883,"o":"m 51 818 l 381 818 l 381 722 l 292 722 l 292 461 l 421 461 l 613 722 l 510 722 l 510 818 l 851 818 l 851 722 l 725 722 l 515 438 l 744 96 l 883 96 l 883 0 l 510 0 l 510 96 l 622 96 l 443 365 l 292 365 l 293 96 l 381 96 l 381 0 l 51 0 l 51 96 l 182 96 l 182 722 l 51 722 l 51 818 z "},"L":{"ha":767,"x_min":51,"x_max":728,"o":"m 51 818 l 479 818 l 479 722 l 322 722 l 319 96 l 582 96 l 636 243 l 728 213 l 654 0 l 51 0 l 51 96 l 210 96 l 211 722 l 51 722 l 51 818 z "},"Ĺ":{"ha":767,"x_min":51,"x_max":728,"o":"m 51 818 l 479 818 l 479 722 l 322 722 l 319 96 l 582 96 l 636 243 l 728 213 l 654 0 l 51 0 l 51 96 l 210 96 l 211 722 l 51 722 l 51 818 m 483 1067 l 508 965 l 158 900 l 146 950 l 483 1067 z "},"Ľ":{"ha":767,"x_min":51,"x_max":728,"o":"m 51 818 l 479 818 l 479 722 l 322 722 l 319 96 l 582 96 l 636 243 l 728 213 l 654 0 l 51 0 l 51 96 l 210 96 l 211 722 l 51 722 l 51 818 m 615 836 l 715 814 l 619 522 l 557 536 l 615 836 z "},"Ļ":{"ha":767,"x_min":51,"x_max":728,"o":"m 51 818 l 479 818 l 479 722 l 322 722 l 319 96 l 582 96 l 636 243 l 728 213 l 654 0 l 51 0 l 51 96 l 210 96 l 211 722 l 51 722 l 51 818 z "},"Ŀ":{"ha":833,"x_min":51,"x_max":728,"o":"m 51 818 l 479 818 l 479 722 l 322 722 l 319 96 l 582 96 l 636 243 l 728 213 l 654 0 l 51 0 l 51 96 l 210 96 l 211 722 l 51 722 l 51 818 m 490 543 q 550 518 525 543 q 575 457 575 493 q 550 396 575 421 q 490 371 525 371 q 430 396 456 371 q 404 457 404 421 q 430 518 404 493 q 490 543 456 543 z "},"Ḷ":{"ha":767,"x_min":51,"x_max":728,"o":"m 51 818 l 479 818 l 479 722 l 322 722 l 319 96 l 582 96 l 636 243 l 728 213 l 654 0 l 51 0 l 51 96 l 210 96 l 211 722 l 51 722 l 51 818 z "},"Ḻ":{"ha":767,"x_min":51,"x_max":728,"o":"m 51 818 l 479 818 l 479 722 l 322 722 l 319 96 l 582 96 l 636 243 l 728 213 l 654 0 l 51 0 l 51 96 l 210 96 l 211 722 l 51 722 l 51 818 m 156 -56 l 582 -56 l 582 -142 l 156 -142 l 156 -56 z "},"Ł":{"ha":767,"x_min":51,"x_max":728,"o":"m 107 324 l 556 589 l 556 489 l 107 224 l 107 324 m 51 818 l 479 818 l 479 722 l 322 722 l 319 96 l 582 96 l 636 243 l 728 213 l 654 0 l 51 0 l 51 96 l 210 96 l 211 722 l 51 722 l 51 818 z "},"M":{"ha":1174,"x_min":50,"x_max":1122,"o":"m 56 818 l 363 818 l 596 222 l 826 818 l 1122 818 l 1122 722 l 992 722 l 992 96 l 1122 96 l 1122 0 l 792 0 l 792 96 l 881 96 l 881 722 l 818 542 l 649 99 l 529 99 l 351 544 l 288 722 l 283 96 l 375 96 l 375 0 l 50 0 l 50 96 l 183 96 l 185 722 l 56 722 l 56 818 z "},"Ṃ":{"ha":1174,"x_min":50,"x_max":1122,"o":"m 56 818 l 363 818 l 596 222 l 826 818 l 1122 818 l 1122 722 l 992 722 l 992 96 l 1122 96 l 1122 0 l 792 0 l 792 96 l 881 96 l 881 722 l 818 542 l 649 99 l 529 99 l 351 544 l 288 722 l 283 96 l 375 96 l 375 0 l 50 0 l 50 96 l 183 96 l 185 722 l 56 722 l 56 818 z "},"N":{"ha":997,"x_min":51,"x_max":960,"o":"m 53 818 l 360 818 l 714 169 l 714 722 l 597 722 l 597 818 l 960 818 l 960 722 l 825 722 l 825 0 l 689 0 l 294 722 l 297 96 l 414 96 l 414 0 l 51 0 l 51 96 l 185 96 l 183 722 l 53 722 l 53 818 z "},"Ń":{"ha":997,"x_min":51,"x_max":960,"o":"m 53 818 l 360 818 l 714 169 l 714 722 l 597 722 l 597 818 l 960 818 l 960 722 l 825 722 l 825 0 l 689 0 l 294 722 l 297 96 l 414 96 l 414 0 l 51 0 l 51 96 l 185 96 l 183 722 l 53 722 l 53 818 m 708 1067 l 733 965 l 383 900 l 371 950 l 708 1067 z "},"Ň":{"ha":997,"x_min":51,"x_max":960,"o":"m 53 818 l 360 818 l 714 169 l 714 722 l 597 722 l 597 818 l 960 818 l 960 722 l 825 722 l 825 0 l 689 0 l 294 722 l 297 96 l 414 96 l 414 0 l 51 0 l 51 96 l 185 96 l 183 722 l 53 722 l 53 818 z "},"Ņ":{"ha":997,"x_min":51,"x_max":960,"o":"m 53 818 l 360 818 l 714 169 l 714 722 l 597 722 l 597 818 l 960 818 l 960 722 l 825 722 l 825 0 l 689 0 l 294 722 l 297 96 l 414 96 l 414 0 l 51 0 l 51 96 l 185 96 l 183 722 l 53 722 l 53 818 z "},"Ṅ":{"ha":997,"x_min":51,"x_max":960,"o":"m 53 818 l 360 818 l 714 169 l 714 722 l 597 722 l 597 818 l 960 818 l 960 722 l 825 722 l 825 0 l 689 0 l 294 722 l 297 96 l 414 96 l 414 0 l 51 0 l 51 96 l 185 96 l 183 722 l 53 722 l 53 818 m 496 1114 q 558 1090 535 1114 q 582 1028 582 1067 q 558 965 582 989 q 496 942 535 942 q 411 1028 411 942 q 434 1090 411 1067 q 496 1114 457 1114 z "},"Ṇ":{"ha":997,"x_min":51,"x_max":960,"o":"m 53 818 l 360 818 l 714 169 l 714 722 l 597 722 l 597 818 l 960 818 l 960 722 l 825 722 l 825 0 l 689 0 l 294 722 l 297 96 l 414 96 l 414 0 l 51 0 l 51 96 l 185 96 l 183 722 l 53 722 l 53 818 z "},"Ŋ":{"ha":997,"x_min":51,"x_max":960,"o":"m 590 -310 q 424 -271 515 -310 l 449 -185 q 515 -204 483 -197 q 574 -211 547 -211 q 713 -32 704 -211 l 294 722 l 297 96 l 414 96 l 414 0 l 51 0 l 51 96 l 185 96 l 183 722 l 53 722 l 53 818 l 360 818 l 714 169 l 714 722 l 597 722 l 597 818 l 960 818 l 960 722 l 825 722 l 825 -1 q 758 -230 819 -150 q 590 -310 697 -310 z "},"Ṉ":{"ha":997,"x_min":51,"x_max":960,"o":"m 53 818 l 360 818 l 714 169 l 714 722 l 597 722 l 597 818 l 960 818 l 960 722 l 825 722 l 825 0 l 689 0 l 294 722 l 297 96 l 414 96 l 414 0 l 51 0 l 51 96 l 185 96 l 183 722 l 53 722 l 53 818 m 283 -56 l 710 -56 l 710 -142 l 283 -142 l 283 -56 z "},"Ñ":{"ha":997,"x_min":51,"x_max":960,"o":"m 53 818 l 360 818 l 714 169 l 714 722 l 597 722 l 597 818 l 960 818 l 960 722 l 825 722 l 825 0 l 689 0 l 294 722 l 297 96 l 414 96 l 414 0 l 51 0 l 51 96 l 185 96 l 183 722 l 53 722 l 53 818 m 331 913 l 301 985 q 376 1028 346 1014 q 454 1042 407 1042 q 551 1014 517 1042 q 628 986 586 986 q 669 997 651 986 q 718 1032 686 1008 l 751 954 q 683 908 711 919 q 625 894 656 896 q 540 922 579 892 q 458 951 501 951 q 395 941 419 951 q 331 913 371 931 z "},"O":{"ha":883,"x_min":61,"x_max":822,"o":"m 440 839 q 717 721 613 839 q 822 410 822 603 q 717 98 822 217 q 442 -21 613 -21 q 166 98 271 -21 q 61 410 61 217 q 165 721 61 603 q 440 839 269 839 m 442 742 q 249 654 318 742 q 179 410 179 567 q 249 164 179 251 q 442 76 318 76 q 635 164 565 76 q 704 410 704 251 q 635 654 704 567 q 442 742 565 742 z "},"Ó":{"ha":883,"x_min":61,"x_max":822,"o":"m 440 839 q 717 721 613 839 q 822 410 822 603 q 717 98 822 217 q 442 -21 613 -21 q 166 98 271 -21 q 61 410 61 217 q 165 721 61 603 q 440 839 269 839 m 442 742 q 249 654 318 742 q 179 410 179 567 q 249 164 179 251 q 442 76 318 76 q 635 164 565 76 q 704 410 704 251 q 635 654 704 567 q 442 742 565 742 m 653 1067 l 678 965 l 328 900 l 315 950 l 653 1067 z "},"Ŏ":{"ha":883,"x_min":61,"x_max":822,"o":"m 440 839 q 717 721 613 839 q 822 410 822 603 q 717 98 822 217 q 442 -21 613 -21 q 166 98 271 -21 q 61 410 61 217 q 165 721 61 603 q 440 839 269 839 m 442 742 q 249 654 318 742 q 179 410 179 567 q 249 164 179 251 q 442 76 318 76 q 635 164 565 76 q 704 410 704 251 q 635 654 704 567 q 442 742 565 742 m 440 903 q 224 1069 257 903 l 314 1086 q 440 992 329 992 q 568 1086 556 992 l 658 1069 q 440 903 625 903 z "},"Ô":{"ha":883,"x_min":61,"x_max":822,"o":"m 440 839 q 717 721 613 839 q 822 410 822 603 q 717 98 822 217 q 442 -21 613 -21 q 166 98 271 -21 q 61 410 61 217 q 165 721 61 603 q 440 839 269 839 m 442 742 q 249 654 318 742 q 179 410 179 567 q 249 164 179 251 q 442 76 318 76 q 635 164 565 76 q 704 410 704 251 q 635 654 704 567 q 442 742 565 742 m 442 1081 l 679 946 l 654 901 l 442 979 l 229 901 l 204 946 l 442 1081 z "},"Ố":{"ha":883,"x_min":61,"x_max":822,"o":"m 440 839 q 717 721 613 839 q 822 410 822 603 q 717 98 822 217 q 442 -21 613 -21 q 166 98 271 -21 q 61 410 61 217 q 165 721 61 603 q 440 839 269 839 m 442 742 q 249 654 318 742 q 179 410 179 567 q 249 164 179 251 q 442 76 318 76 q 635 164 565 76 q 704 410 704 251 q 635 654 704 567 q 442 742 565 742 m 539 1288 l 589 1196 l 326 1092 l 304 1138 l 539 1288 m 442 1081 l 679 946 l 654 901 l 442 979 l 229 901 l 204 946 l 442 1081 z "},"Ộ":{"ha":883,"x_min":61,"x_max":822,"o":"m 440 839 q 717 721 613 839 q 822 410 822 603 q 717 98 822 217 q 442 -21 613 -21 q 166 98 271 -21 q 61 410 61 217 q 165 721 61 603 q 440 839 269 839 m 442 742 q 249 654 318 742 q 179 410 179 567 q 249 164 179 251 q 442 76 318 76 q 635 164 565 76 q 704 410 704 251 q 635 654 704 567 q 442 742 565 742 m 442 1081 l 679 946 l 654 901 l 442 979 l 229 901 l 204 946 l 442 1081 z "},"Ồ":{"ha":883,"x_min":61,"x_max":822,"o":"m 440 839 q 717 721 613 839 q 822 410 822 603 q 717 98 822 217 q 442 -21 613 -21 q 166 98 271 -21 q 61 410 61 217 q 165 721 61 603 q 440 839 269 839 m 442 742 q 249 654 318 742 q 179 410 179 567 q 249 164 179 251 q 442 76 318 76 q 635 164 565 76 q 704 410 704 251 q 635 654 704 567 q 442 742 565 742 m 346 1278 l 581 1128 l 558 1082 l 296 1186 l 346 1278 m 442 1081 l 679 946 l 654 901 l 442 979 l 229 901 l 204 946 l 442 1081 z "},"Ổ":{"ha":883,"x_min":61,"x_max":822,"o":"m 440 839 q 717 721 613 839 q 822 410 822 603 q 717 98 822 217 q 442 -21 613 -21 q 166 98 271 -21 q 61 410 61 217 q 165 721 61 603 q 440 839 269 839 m 442 742 q 249 654 318 742 q 179 410 179 567 q 249 164 179 251 q 442 76 318 76 q 635 164 565 76 q 704 410 704 251 q 635 654 704 567 q 442 742 565 742 m 442 1081 l 679 946 l 654 901 l 442 979 l 229 901 l 204 946 l 442 1081 m 583 1047 l 549 1090 q 594 1174 594 1128 q 553 1215 594 1215 q 488 1179 518 1215 l 439 1235 q 569 1299 490 1299 q 650 1269 615 1299 q 685 1183 685 1240 q 662 1118 685 1151 q 583 1047 639 1085 z "},"Ỗ":{"ha":883,"x_min":61,"x_max":822,"o":"m 440 839 q 717 721 613 839 q 822 410 822 603 q 717 98 822 217 q 442 -21 613 -21 q 166 98 271 -21 q 61 410 61 217 q 165 721 61 603 q 440 839 269 839 m 442 742 q 249 654 318 742 q 179 410 179 567 q 249 164 179 251 q 442 76 318 76 q 635 164 565 76 q 704 410 704 251 q 635 654 704 567 q 442 742 565 742 m 249 1111 l 226 1179 q 301 1222 271 1208 q 379 1236 332 1236 q 476 1208 442 1236 q 553 1181 511 1181 q 594 1192 576 1181 q 643 1226 611 1203 l 669 1153 q 601 1106 629 1118 q 543 1093 574 1094 q 459 1121 497 1092 q 376 1150 421 1150 q 313 1140 338 1150 q 249 1111 289 1131 m 447 1079 l 685 944 l 660 900 l 447 978 l 235 900 l 210 944 l 447 1079 z "},"Ȍ":{"ha":883,"x_min":61,"x_max":822,"o":"m 440 839 q 717 721 613 839 q 822 410 822 603 q 717 98 822 217 q 442 -21 613 -21 q 166 98 271 -21 q 61 410 61 217 q 165 721 61 603 q 440 839 269 839 m 442 742 q 249 654 318 742 q 179 410 179 567 q 249 164 179 251 q 442 76 318 76 q 635 164 565 76 q 704 410 704 251 q 635 654 704 567 q 442 742 565 742 m 421 1183 l 596 933 l 544 894 l 339 1122 l 421 1183 m 189 1156 l 407 942 l 364 894 l 121 1081 l 189 1156 z "},"Ö":{"ha":883,"x_min":61,"x_max":822,"o":"m 440 839 q 717 721 613 839 q 822 410 822 603 q 717 98 822 217 q 442 -21 613 -21 q 166 98 271 -21 q 61 410 61 217 q 165 721 61 603 q 440 839 269 839 m 442 742 q 249 654 318 742 q 179 410 179 567 q 249 164 179 251 q 442 76 318 76 q 635 164 565 76 q 704 410 704 251 q 635 654 704 567 q 442 742 565 742 z "},"Ȫ":{"ha":883,"x_min":61,"x_max":822,"o":"m 440 839 q 717 721 613 839 q 822 410 822 603 q 717 98 822 217 q 442 -21 613 -21 q 166 98 271 -21 q 61 410 61 217 q 165 721 61 603 q 440 839 269 839 m 442 742 q 249 654 318 742 q 179 410 179 567 q 249 164 179 251 q 442 76 318 76 q 635 164 565 76 q 704 410 704 251 q 635 654 704 567 q 442 742 565 742 z "},"Ȱ":{"ha":883,"x_min":61,"x_max":822,"o":"m 440 839 q 717 721 613 839 q 822 410 822 603 q 717 98 822 217 q 442 -21 613 -21 q 166 98 271 -21 q 61 410 61 217 q 165 721 61 603 q 440 839 269 839 m 442 742 q 249 654 318 742 q 179 410 179 567 q 249 164 179 251 q 442 76 318 76 q 635 164 565 76 q 704 410 704 251 q 635 654 704 567 q 442 742 565 742 m 440 1114 q 503 1090 479 1114 q 526 1028 526 1067 q 503 965 526 989 q 440 942 479 942 q 356 1028 356 942 q 378 1090 356 1067 q 440 1114 401 1114 z "},"Ọ":{"ha":883,"x_min":61,"x_max":822,"o":"m 440 839 q 717 721 613 839 q 822 410 822 603 q 717 98 822 217 q 442 -21 613 -21 q 166 98 271 -21 q 61 410 61 217 q 165 721 61 603 q 440 839 269 839 m 442 742 q 249 654 318 742 q 179 410 179 567 q 249 164 179 251 q 442 76 318 76 q 635 164 565 76 q 704 410 704 251 q 635 654 704 567 q 442 742 565 742 z "},"Ò":{"ha":883,"x_min":61,"x_max":822,"o":"m 440 839 q 717 721 613 839 q 822 410 822 603 q 717 98 822 217 q 442 -21 613 -21 q 166 98 271 -21 q 61 410 61 217 q 165 721 61 603 q 440 839 269 839 m 442 742 q 249 654 318 742 q 179 410 179 567 q 249 164 179 251 q 442 76 318 76 q 635 164 565 76 q 704 410 704 251 q 635 654 704 567 q 442 742 565 742 m 188 1058 l 525 942 l 513 892 l 163 957 l 188 1058 z "},"Ỏ":{"ha":883,"x_min":61,"x_max":822,"o":"m 440 839 q 717 721 613 839 q 822 410 822 603 q 717 98 822 217 q 442 -21 613 -21 q 166 98 271 -21 q 61 410 61 217 q 165 721 61 603 q 440 839 269 839 m 442 742 q 249 654 318 742 q 179 410 179 567 q 249 164 179 251 q 442 76 318 76 q 635 164 565 76 q 704 410 704 251 q 635 654 704 567 q 442 742 565 742 m 456 893 l 421 936 q 467 1019 467 974 q 425 1061 467 1061 q 360 1025 390 1061 l 311 1081 q 442 1144 363 1144 q 522 1115 488 1144 q 557 1029 557 1086 q 534 964 557 997 q 456 893 511 931 z "},"Ơ":{"ha":883,"x_min":61,"x_max":822,"o":"m 440 839 q 717 721 613 839 q 822 410 822 603 q 717 98 822 217 q 442 -21 613 -21 q 166 98 271 -21 q 61 410 61 217 q 165 721 61 603 q 440 839 269 839 m 442 742 q 249 654 318 742 q 179 410 179 567 q 249 164 179 251 q 442 76 318 76 q 635 164 565 76 q 704 410 704 251 q 635 654 704 567 q 442 742 565 742 m 547 732 l 547 818 q 643 928 643 818 l 729 928 q 547 732 729 732 z "},"Ớ":{"ha":883,"x_min":61,"x_max":822,"o":"m 440 839 q 717 721 613 839 q 822 410 822 603 q 717 98 822 217 q 442 -21 613 -21 q 166 98 271 -21 q 61 410 61 217 q 165 721 61 603 q 440 839 269 839 m 442 742 q 249 654 318 742 q 179 410 179 567 q 249 164 179 251 q 442 76 318 76 q 635 164 565 76 q 704 410 704 251 q 635 654 704 567 q 442 742 565 742 m 547 732 l 547 818 q 643 928 643 818 l 729 928 q 547 732 729 732 m 653 1067 l 678 965 l 328 900 l 315 950 l 653 1067 z "},"Ợ":{"ha":883,"x_min":61,"x_max":822,"o":"m 440 839 q 717 721 613 839 q 822 410 822 603 q 717 98 822 217 q 442 -21 613 -21 q 166 98 271 -21 q 61 410 61 217 q 165 721 61 603 q 440 839 269 839 m 442 742 q 249 654 318 742 q 179 410 179 567 q 249 164 179 251 q 442 76 318 76 q 635 164 565 76 q 704 410 704 251 q 635 654 704 567 q 442 742 565 742 m 547 732 l 547 818 q 643 928 643 818 l 729 928 q 547 732 729 732 z "},"Ờ":{"ha":883,"x_min":61,"x_max":822,"o":"m 440 839 q 717 721 613 839 q 822 410 822 603 q 717 98 822 217 q 442 -21 613 -21 q 166 98 271 -21 q 61 410 61 217 q 165 721 61 603 q 440 839 269 839 m 442 742 q 249 654 318 742 q 179 410 179 567 q 249 164 179 251 q 442 76 318 76 q 635 164 565 76 q 704 410 704 251 q 635 654 704 567 q 442 742 565 742 m 547 732 l 547 818 q 643 928 643 818 l 729 928 q 547 732 729 732 m 247 1058 l 585 942 l 572 892 l 222 957 l 247 1058 z "},"Ở":{"ha":883,"x_min":61,"x_max":822,"o":"m 440 839 q 717 721 613 839 q 822 410 822 603 q 717 98 822 217 q 442 -21 613 -21 q 166 98 271 -21 q 61 410 61 217 q 165 721 61 603 q 440 839 269 839 m 442 742 q 249 654 318 742 q 179 410 179 567 q 249 164 179 251 q 442 76 318 76 q 635 164 565 76 q 704 410 704 251 q 635 654 704 567 q 442 742 565 742 m 547 732 l 547 818 q 643 928 643 818 l 729 928 q 547 732 729 732 m 456 893 l 421 936 q 467 1019 467 974 q 425 1061 467 1061 q 360 1025 390 1061 l 311 1081 q 442 1144 363 1144 q 522 1115 488 1144 q 557 1029 557 1086 q 534 964 557 997 q 456 893 511 931 z "},"Ỡ":{"ha":883,"x_min":61,"x_max":822,"o":"m 440 839 q 717 721 613 839 q 822 410 822 603 q 717 98 822 217 q 442 -21 613 -21 q 166 98 271 -21 q 61 410 61 217 q 165 721 61 603 q 440 839 269 839 m 442 742 q 249 654 318 742 q 179 410 179 567 q 249 164 179 251 q 442 76 318 76 q 635 164 565 76 q 704 410 704 251 q 635 654 704 567 q 442 742 565 742 m 547 732 l 547 818 q 643 928 643 818 l 729 928 q 547 732 729 732 m 243 935 l 214 1007 q 289 1050 258 1036 q 367 1064 319 1064 q 464 1036 429 1064 q 540 1008 499 1008 q 581 1019 564 1008 q 631 1054 599 1031 l 664 976 q 596 930 624 942 q 538 917 568 918 q 453 944 492 914 q 371 974 414 974 q 308 963 332 974 q 243 935 283 953 z "},"Ő":{"ha":883,"x_min":61,"x_max":822,"o":"m 440 839 q 717 721 613 839 q 822 410 822 603 q 717 98 822 217 q 442 -21 613 -21 q 166 98 271 -21 q 61 410 61 217 q 165 721 61 603 q 440 839 269 839 m 442 742 q 249 654 318 742 q 179 410 179 567 q 249 164 179 251 q 442 76 318 76 q 635 164 565 76 q 704 410 704 251 q 635 654 704 567 q 442 742 565 742 m 558 1121 l 614 1043 l 383 901 l 356 940 l 558 1121 m 764 1060 l 797 971 l 533 903 l 515 947 l 764 1060 z "},"Ȏ":{"ha":883,"x_min":61,"x_max":822,"o":"m 440 839 q 717 721 613 839 q 822 410 822 603 q 717 98 822 217 q 442 -21 613 -21 q 166 98 271 -21 q 61 410 61 217 q 165 721 61 603 q 440 839 269 839 m 442 742 q 249 654 318 742 q 179 410 179 567 q 249 164 179 251 q 442 76 318 76 q 635 164 565 76 q 704 410 704 251 q 635 654 704 567 q 442 742 565 742 z "},"Ō":{"ha":883,"x_min":61,"x_max":822,"o":"m 440 839 q 717 721 613 839 q 822 410 822 603 q 717 98 822 217 q 442 -21 613 -21 q 166 98 271 -21 q 61 410 61 217 q 165 721 61 603 q 440 839 269 839 m 442 742 q 249 654 318 742 q 179 410 179 567 q 249 164 179 251 q 442 76 318 76 q 635 164 565 76 q 704 410 704 251 q 635 654 704 567 q 442 742 565 742 z "},"Ṓ":{"ha":883,"x_min":61,"x_max":822,"o":"m 440 839 q 717 721 613 839 q 822 410 822 603 q 717 98 822 217 q 442 -21 613 -21 q 166 98 271 -21 q 61 410 61 217 q 165 721 61 603 q 440 839 269 839 m 442 742 q 249 654 318 742 q 179 410 179 567 q 249 164 179 251 q 442 76 318 76 q 635 164 565 76 q 704 410 704 251 q 635 654 704 567 q 442 742 565 742 m 678 1275 l 703 1174 l 353 1108 l 340 1158 l 678 1275 z "},"Ṑ":{"ha":883,"x_min":61,"x_max":822,"o":"m 440 839 q 717 721 613 839 q 822 410 822 603 q 717 98 822 217 q 442 -21 613 -21 q 166 98 271 -21 q 61 410 61 217 q 165 721 61 603 q 440 839 269 839 m 442 742 q 249 654 318 742 q 179 410 179 567 q 249 164 179 251 q 442 76 318 76 q 635 164 565 76 q 704 410 704 251 q 635 654 704 567 q 442 742 565 742 m 213 1267 l 550 1150 l 538 1100 l 188 1165 l 213 1267 z "},"Ǫ":{"ha":883,"x_min":61,"x_max":822,"o":"m 440 839 q 717 721 613 839 q 822 410 822 603 q 717 98 822 217 q 442 -21 613 -21 q 166 98 271 -21 q 61 410 61 217 q 165 721 61 603 q 440 839 269 839 m 442 742 q 249 654 318 742 q 179 410 179 567 q 249 164 179 251 q 442 76 318 76 q 635 164 565 76 q 704 410 704 251 q 635 654 704 567 q 442 742 565 742 z "},"Ø":{"ha":883,"x_min":61,"x_max":822,"o":"m 172 -96 l 243 58 l 272 107 l 558 735 l 588 778 l 644 904 l 746 904 l 664 726 l 640 694 l 351 56 l 326 17 l 275 -96 l 172 -96 m 440 839 q 717 721 613 839 q 822 410 822 603 q 717 98 822 217 q 442 -21 613 -21 q 166 98 271 -21 q 61 410 61 217 q 165 721 61 603 q 440 839 269 839 m 442 742 q 249 654 318 742 q 179 410 179 567 q 249 164 179 251 q 442 76 318 76 q 635 164 565 76 q 704 410 704 251 q 635 654 704 567 q 442 742 565 742 z "},"Ǿ":{"ha":883,"x_min":61,"x_max":822,"o":"m 172 -96 l 243 58 l 272 107 l 558 735 l 588 778 l 644 904 l 746 904 l 664 726 l 640 694 l 351 56 l 326 17 l 275 -96 l 172 -96 m 440 839 q 717 721 613 839 q 822 410 822 603 q 717 98 822 217 q 442 -21 613 -21 q 166 98 271 -21 q 61 410 61 217 q 165 721 61 603 q 440 839 269 839 m 442 742 q 249 654 318 742 q 179 410 179 567 q 249 164 179 251 q 442 76 318 76 q 635 164 565 76 q 704 410 704 251 q 635 654 704 567 q 442 742 565 742 m 653 1067 l 678 965 l 328 900 l 315 950 l 653 1067 z "},"Õ":{"ha":883,"x_min":61,"x_max":822,"o":"m 440 839 q 717 721 613 839 q 822 410 822 603 q 717 98 822 217 q 442 -21 613 -21 q 166 98 271 -21 q 61 410 61 217 q 165 721 61 603 q 440 839 269 839 m 442 742 q 249 654 318 742 q 179 410 179 567 q 249 164 179 251 q 442 76 318 76 q 635 164 565 76 q 704 410 704 251 q 635 654 704 567 q 442 742 565 742 m 275 913 l 246 985 q 321 1028 290 1014 q 399 1042 351 1042 q 496 1014 461 1042 q 572 986 531 986 q 613 997 596 986 q 663 1032 631 1008 l 696 954 q 628 908 656 919 q 569 894 600 896 q 485 922 524 892 q 403 951 446 951 q 340 941 364 951 q 275 913 315 931 z "},"Ṍ":{"ha":883,"x_min":61,"x_max":822,"o":"m 440 839 q 717 721 613 839 q 822 410 822 603 q 717 98 822 217 q 442 -21 613 -21 q 166 98 271 -21 q 61 410 61 217 q 165 721 61 603 q 440 839 269 839 m 442 742 q 249 654 318 742 q 179 410 179 567 q 249 164 179 251 q 442 76 318 76 q 635 164 565 76 q 704 410 704 251 q 635 654 704 567 q 442 742 565 742 m 275 913 l 246 985 q 321 1028 290 1014 q 399 1042 351 1042 q 496 1014 461 1042 q 572 986 531 986 q 613 997 596 986 q 663 1032 631 1008 l 696 954 q 628 908 656 919 q 569 894 600 896 q 485 922 524 892 q 403 951 446 951 q 340 941 364 951 q 275 913 315 931 m 651 1267 l 676 1165 l 326 1100 l 314 1150 l 651 1267 z "},"Ṏ":{"ha":883,"x_min":61,"x_max":822,"o":"m 440 839 q 717 721 613 839 q 822 410 822 603 q 717 98 822 217 q 442 -21 613 -21 q 166 98 271 -21 q 61 410 61 217 q 165 721 61 603 q 440 839 269 839 m 442 742 q 249 654 318 742 q 179 410 179 567 q 249 164 179 251 q 442 76 318 76 q 635 164 565 76 q 704 410 704 251 q 635 654 704 567 q 442 742 565 742 m 275 913 l 246 985 q 321 1028 290 1014 q 399 1042 351 1042 q 496 1014 461 1042 q 572 986 531 986 q 613 997 596 986 q 663 1032 631 1008 l 696 954 q 628 908 656 919 q 569 894 600 896 q 485 922 524 892 q 403 951 446 951 q 340 941 364 951 q 275 913 315 931 z "},"Ȭ":{"ha":883,"x_min":61,"x_max":822,"o":"m 440 839 q 717 721 613 839 q 822 410 822 603 q 717 98 822 217 q 442 -21 613 -21 q 166 98 271 -21 q 61 410 61 217 q 165 721 61 603 q 440 839 269 839 m 442 742 q 249 654 318 742 q 179 410 179 567 q 249 164 179 251 q 442 76 318 76 q 635 164 565 76 q 704 410 704 251 q 635 654 704 567 q 442 742 565 742 m 275 913 l 246 985 q 321 1028 290 1014 q 399 1042 351 1042 q 496 1014 461 1042 q 572 986 531 986 q 613 997 596 986 q 663 1032 631 1008 l 696 954 q 628 908 656 919 q 569 894 600 896 q 485 922 524 892 q 403 951 446 951 q 340 941 364 951 q 275 913 315 931 z "},"Œ":{"ha":1208,"x_min":61,"x_max":1163,"o":"m 471 0 q 179 108 297 0 q 61 410 61 217 q 178 735 61 651 q 481 818 294 818 l 1061 818 l 1135 604 l 1043 574 l 988 722 l 693 722 l 693 471 l 950 471 l 950 375 l 692 375 l 692 96 l 1015 96 l 1071 244 l 1163 214 l 1089 0 l 471 0 m 481 724 q 321 702 389 724 q 216 614 253 681 q 179 410 179 547 q 259 173 179 253 q 496 94 339 93 l 581 96 l 581 724 l 481 724 z "},"P":{"ha":753,"x_min":51,"x_max":725,"o":"m 419 818 q 725 563 725 818 q 419 303 725 303 l 292 303 l 292 96 l 458 96 l 458 0 l 51 0 l 51 96 l 181 96 l 181 722 l 51 722 l 51 818 l 419 818 m 418 400 q 607 561 607 400 q 418 722 607 722 l 293 722 l 293 400 l 418 400 z "},"Þ":{"ha":750,"x_min":51,"x_max":722,"o":"m 51 0 l 51 96 l 181 96 l 181 722 l 51 722 l 51 818 l 429 818 l 429 722 l 293 722 l 293 624 l 457 624 q 649 580 575 624 q 722 418 722 536 q 649 250 722 308 q 472 192 576 192 l 292 192 l 292 96 l 458 96 l 458 0 l 51 0 m 293 289 l 449 289 q 560 314 517 289 q 604 404 604 339 q 561 504 604 481 q 446 528 518 528 l 293 528 l 293 289 z "},"Q":{"ha":921,"x_min":61,"x_max":897,"o":"m 650 38 q 442 -21 560 -21 q 167 95 272 -21 q 61 410 61 211 q 167 724 61 608 q 440 839 272 839 q 717 724 611 839 q 822 410 822 608 q 711 92 822 210 l 897 -18 l 824 -110 l 650 38 m 442 744 q 244 656 310 744 q 179 410 179 568 q 244 163 179 251 q 442 74 310 74 q 639 163 574 74 q 704 410 704 251 q 639 656 704 568 q 442 744 574 744 z "},"R":{"ha":853,"x_min":51,"x_max":815,"o":"m 51 0 l 51 96 l 182 96 l 182 722 l 51 722 l 51 818 l 419 818 q 654 756 588 818 q 721 571 721 693 q 654 384 721 449 q 419 319 588 319 l 293 319 l 293 96 l 381 96 l 381 0 l 51 0 m 294 418 l 419 418 q 556 445 508 418 q 603 569 603 472 q 556 694 603 665 q 419 722 508 722 l 294 722 l 294 418 m 608 0 l 429 326 l 547 340 l 689 96 l 815 96 l 815 0 l 608 0 z "},"Ŕ":{"ha":853,"x_min":51,"x_max":815,"o":"m 51 0 l 51 96 l 182 96 l 182 722 l 51 722 l 51 818 l 419 818 q 654 756 588 818 q 721 571 721 693 q 654 384 721 449 q 419 319 588 319 l 293 319 l 293 96 l 381 96 l 381 0 l 51 0 m 294 418 l 419 418 q 556 445 508 418 q 603 569 603 472 q 556 694 603 665 q 419 722 508 722 l 294 722 l 294 418 m 608 0 l 429 326 l 547 340 l 689 96 l 815 96 l 815 0 l 608 0 m 596 1067 l 621 965 l 271 900 l 258 950 l 596 1067 z "},"Ř":{"ha":853,"x_min":51,"x_max":815,"o":"m 51 0 l 51 96 l 182 96 l 182 722 l 51 722 l 51 818 l 419 818 q 654 756 588 818 q 721 571 721 693 q 654 384 721 449 q 419 319 588 319 l 293 319 l 293 96 l 381 96 l 381 0 l 51 0 m 294 418 l 419 418 q 556 445 508 418 q 603 569 603 472 q 556 694 603 665 q 419 722 508 722 l 294 722 l 294 418 m 608 0 l 429 326 l 547 340 l 689 96 l 815 96 l 815 0 l 608 0 z "},"Ŗ":{"ha":853,"x_min":51,"x_max":815,"o":"m 51 0 l 51 96 l 182 96 l 182 722 l 51 722 l 51 818 l 419 818 q 654 756 588 818 q 721 571 721 693 q 654 384 721 449 q 419 319 588 319 l 293 319 l 293 96 l 381 96 l 381 0 l 51 0 m 294 418 l 419 418 q 556 445 508 418 q 603 569 603 472 q 556 694 603 665 q 419 722 508 722 l 294 722 l 294 418 m 608 0 l 429 326 l 547 340 l 689 96 l 815 96 l 815 0 l 608 0 z "},"Ȑ":{"ha":853,"x_min":51,"x_max":815,"o":"m 51 0 l 51 96 l 182 96 l 182 722 l 51 722 l 51 818 l 419 818 q 654 756 588 818 q 721 571 721 693 q 654 384 721 449 q 419 319 588 319 l 293 319 l 293 96 l 381 96 l 381 0 l 51 0 m 294 418 l 419 418 q 556 445 508 418 q 603 569 603 472 q 556 694 603 665 q 419 722 508 722 l 294 722 l 294 418 m 608 0 l 429 326 l 547 340 l 689 96 l 815 96 l 815 0 l 608 0 m 364 1183 l 539 933 l 488 894 l 282 1122 l 364 1183 m 132 1156 l 350 942 l 307 894 l 64 1081 l 132 1156 z "},"Ṛ":{"ha":853,"x_min":51,"x_max":815,"o":"m 51 0 l 51 96 l 182 96 l 182 722 l 51 722 l 51 818 l 419 818 q 654 756 588 818 q 721 571 721 693 q 654 384 721 449 q 419 319 588 319 l 293 319 l 293 96 l 381 96 l 381 0 l 51 0 m 294 418 l 419 418 q 556 445 508 418 q 603 569 603 472 q 556 694 603 665 q 419 722 508 722 l 294 722 l 294 418 m 608 0 l 429 326 l 547 340 l 689 96 l 815 96 l 815 0 l 608 0 z "},"Ȓ":{"ha":853,"x_min":51,"x_max":815,"o":"m 51 0 l 51 96 l 182 96 l 182 722 l 51 722 l 51 818 l 419 818 q 654 756 588 818 q 721 571 721 693 q 654 384 721 449 q 419 319 588 319 l 293 319 l 293 96 l 381 96 l 381 0 l 51 0 m 294 418 l 419 418 q 556 445 508 418 q 603 569 603 472 q 556 694 603 665 q 419 722 508 722 l 294 722 l 294 418 m 608 0 l 429 326 l 547 340 l 689 96 l 815 96 l 815 0 l 608 0 z "},"Ṟ":{"ha":853,"x_min":51,"x_max":815,"o":"m 51 0 l 51 96 l 182 96 l 182 722 l 51 722 l 51 818 l 419 818 q 654 756 588 818 q 721 571 721 693 q 654 384 721 449 q 419 319 588 319 l 293 319 l 293 96 l 381 96 l 381 0 l 51 0 m 294 418 l 419 418 q 556 445 508 418 q 603 569 603 472 q 556 694 603 665 q 419 722 508 722 l 294 722 l 294 418 m 608 0 l 429 326 l 547 340 l 689 96 l 815 96 l 815 0 l 608 0 m 213 -56 l 639 -56 l 639 -142 l 213 -142 l 213 -56 z "},"S":{"ha":744,"x_min":60,"x_max":682,"o":"m 379 -21 q 207 -3 281 -21 q 86 33 133 14 l 60 203 l 151 211 l 171 107 q 259 83 213 93 q 378 74 306 74 q 513 107 454 74 q 571 224 571 140 q 541 319 571 279 q 431 371 511 360 l 325 386 q 142 465 206 404 q 79 618 79 526 q 151 775 79 711 q 372 839 222 839 q 510 829 453 839 q 636 793 567 819 l 660 621 l 568 611 l 550 722 q 478 740 522 733 q 374 746 433 746 q 233 713 285 746 q 181 621 181 681 q 219 531 181 563 q 325 489 257 499 l 451 469 q 626 390 569 451 q 682 239 682 329 q 640 95 682 153 q 530 8 599 38 q 379 -21 461 -21 z "},"Ś":{"ha":744,"x_min":60,"x_max":682,"o":"m 379 -21 q 207 -3 281 -21 q 86 33 133 14 l 60 203 l 151 211 l 171 107 q 259 83 213 93 q 378 74 306 74 q 513 107 454 74 q 571 224 571 140 q 541 319 571 279 q 431 371 511 360 l 325 386 q 142 465 206 404 q 79 618 79 526 q 151 775 79 711 q 372 839 222 839 q 510 829 453 839 q 636 793 567 819 l 660 621 l 568 611 l 550 722 q 478 740 522 733 q 374 746 433 746 q 233 713 285 746 q 181 621 181 681 q 219 531 181 563 q 325 489 257 499 l 451 469 q 626 390 569 451 q 682 239 682 329 q 640 95 682 153 q 530 8 599 38 q 379 -21 461 -21 m 583 1067 l 608 965 l 258 900 l 246 950 l 583 1067 z "},"Ṥ":{"ha":744,"x_min":60,"x_max":682,"o":"m 379 -21 q 207 -3 281 -21 q 86 33 133 14 l 60 203 l 151 211 l 171 107 q 259 83 213 93 q 378 74 306 74 q 513 107 454 74 q 571 224 571 140 q 541 319 571 279 q 431 371 511 360 l 325 386 q 142 465 206 404 q 79 618 79 526 q 151 775 79 711 q 372 839 222 839 q 510 829 453 839 q 636 793 567 819 l 660 621 l 568 611 l 550 722 q 478 740 522 733 q 374 746 433 746 q 233 713 285 746 q 181 621 181 681 q 219 531 181 563 q 325 489 257 499 l 451 469 q 626 390 569 451 q 682 239 682 329 q 640 95 682 153 q 530 8 599 38 q 379 -21 461 -21 m 583 1067 l 608 965 l 258 900 l 246 950 l 583 1067 m 426 1251 q 489 1228 465 1251 q 513 1165 513 1204 q 489 1103 513 1126 q 426 1079 465 1079 q 342 1165 342 1079 q 365 1228 342 1204 q 426 1251 388 1251 z "},"Š":{"ha":744,"x_min":60,"x_max":682,"o":"m 379 -21 q 207 -3 281 -21 q 86 33 133 14 l 60 203 l 151 211 l 171 107 q 259 83 213 93 q 378 74 306 74 q 513 107 454 74 q 571 224 571 140 q 541 319 571 279 q 431 371 511 360 l 325 386 q 142 465 206 404 q 79 618 79 526 q 151 775 79 711 q 372 839 222 839 q 510 829 453 839 q 636 793 567 819 l 660 621 l 568 611 l 550 722 q 478 740 522 733 q 374 746 433 746 q 233 713 285 746 q 181 621 181 681 q 219 531 181 563 q 325 489 257 499 l 451 469 q 626 390 569 451 q 682 239 682 329 q 640 95 682 153 q 530 8 599 38 q 379 -21 461 -21 z "},"Ṧ":{"ha":744,"x_min":60,"x_max":682,"o":"m 379 -21 q 207 -3 281 -21 q 86 33 133 14 l 60 203 l 151 211 l 171 107 q 259 83 213 93 q 378 74 306 74 q 513 107 454 74 q 571 224 571 140 q 541 319 571 279 q 431 371 511 360 l 325 386 q 142 465 206 404 q 79 618 79 526 q 151 775 79 711 q 372 839 222 839 q 510 829 453 839 q 636 793 567 819 l 660 621 l 568 611 l 550 722 q 478 740 522 733 q 374 746 433 746 q 233 713 285 746 q 181 621 181 681 q 219 531 181 563 q 325 489 257 499 l 451 469 q 626 390 569 451 q 682 239 682 329 q 640 95 682 153 q 530 8 599 38 q 379 -21 461 -21 m 371 1275 q 433 1251 410 1275 q 457 1189 457 1228 q 433 1126 457 1150 q 371 1103 410 1103 q 286 1189 286 1103 q 309 1251 286 1228 q 371 1275 332 1275 z "},"Ş":{"ha":744,"x_min":60,"x_max":682,"o":"m 379 -21 q 207 -3 281 -21 q 86 33 133 14 l 60 203 l 151 211 l 171 107 q 259 83 213 93 q 378 74 306 74 q 513 107 454 74 q 571 224 571 140 q 541 319 571 279 q 431 371 511 360 l 325 386 q 142 465 206 404 q 79 618 79 526 q 151 775 79 711 q 372 839 222 839 q 510 829 453 839 q 636 793 567 819 l 660 621 l 568 611 l 550 722 q 478 740 522 733 q 374 746 433 746 q 233 713 285 746 q 181 621 181 681 q 219 531 181 563 q 325 489 257 499 l 451 469 q 626 390 569 451 q 682 239 682 329 q 640 95 682 153 q 530 8 599 38 q 379 -21 461 -21 z "},"Ŝ":{"ha":744,"x_min":60,"x_max":682,"o":"m 379 -21 q 207 -3 281 -21 q 86 33 133 14 l 60 203 l 151 211 l 171 107 q 259 83 213 93 q 378 74 306 74 q 513 107 454 74 q 571 224 571 140 q 541 319 571 279 q 431 371 511 360 l 325 386 q 142 465 206 404 q 79 618 79 526 q 151 775 79 711 q 372 839 222 839 q 510 829 453 839 q 636 793 567 819 l 660 621 l 568 611 l 550 722 q 478 740 522 733 q 374 746 433 746 q 233 713 285 746 q 181 621 181 681 q 219 531 181 563 q 325 489 257 499 l 451 469 q 626 390 569 451 q 682 239 682 329 q 640 95 682 153 q 530 8 599 38 q 379 -21 461 -21 m 372 1081 l 610 946 l 585 901 l 372 979 l 160 901 l 135 946 l 372 1081 z "},"Ș":{"ha":744,"x_min":60,"x_max":682,"o":"m 379 -21 q 207 -3 281 -21 q 86 33 133 14 l 60 203 l 151 211 l 171 107 q 259 83 213 93 q 378 74 306 74 q 513 107 454 74 q 571 224 571 140 q 541 319 571 279 q 431 371 511 360 l 325 386 q 142 465 206 404 q 79 618 79 526 q 151 775 79 711 q 372 839 222 839 q 510 829 453 839 q 636 793 567 819 l 660 621 l 568 611 l 550 722 q 478 740 522 733 q 374 746 433 746 q 233 713 285 746 q 181 621 181 681 q 219 531 181 563 q 325 489 257 499 l 451 469 q 626 390 569 451 q 682 239 682 329 q 640 95 682 153 q 530 8 599 38 q 379 -21 461 -21 z "},"Ṡ":{"ha":744,"x_min":60,"x_max":682,"o":"m 379 -21 q 207 -3 281 -21 q 86 33 133 14 l 60 203 l 151 211 l 171 107 q 259 83 213 93 q 378 74 306 74 q 513 107 454 74 q 571 224 571 140 q 541 319 571 279 q 431 371 511 360 l 325 386 q 142 465 206 404 q 79 618 79 526 q 151 775 79 711 q 372 839 222 839 q 510 829 453 839 q 636 793 567 819 l 660 621 l 568 611 l 550 722 q 478 740 522 733 q 374 746 433 746 q 233 713 285 746 q 181 621 181 681 q 219 531 181 563 q 325 489 257 499 l 451 469 q 626 390 569 451 q 682 239 682 329 q 640 95 682 153 q 530 8 599 38 q 379 -21 461 -21 m 371 1114 q 433 1090 410 1114 q 457 1028 457 1067 q 433 965 457 989 q 371 942 410 942 q 286 1028 286 942 q 309 1090 286 1067 q 371 1114 332 1114 z "},"Ṣ":{"ha":744,"x_min":60,"x_max":682,"o":"m 379 -21 q 207 -3 281 -21 q 86 33 133 14 l 60 203 l 151 211 l 171 107 q 259 83 213 93 q 378 74 306 74 q 513 107 454 74 q 571 224 571 140 q 541 319 571 279 q 431 371 511 360 l 325 386 q 142 465 206 404 q 79 618 79 526 q 151 775 79 711 q 372 839 222 839 q 510 829 453 839 q 636 793 567 819 l 660 621 l 568 611 l 550 722 q 478 740 522 733 q 374 746 433 746 q 233 713 285 746 q 181 621 181 681 q 219 531 181 563 q 325 489 257 499 l 451 469 q 626 390 569 451 q 682 239 682 329 q 640 95 682 153 q 530 8 599 38 q 379 -21 461 -21 z "},"Ṩ":{"ha":744,"x_min":60,"x_max":682,"o":"m 379 -21 q 207 -3 281 -21 q 86 33 133 14 l 60 203 l 151 211 l 171 107 q 259 83 213 93 q 378 74 306 74 q 513 107 454 74 q 571 224 571 140 q 541 319 571 279 q 431 371 511 360 l 325 386 q 142 465 206 404 q 79 618 79 526 q 151 775 79 711 q 372 839 222 839 q 510 829 453 839 q 636 793 567 819 l 660 621 l 568 611 l 550 722 q 478 740 522 733 q 374 746 433 746 q 233 713 285 746 q 181 621 181 681 q 219 531 181 563 q 325 489 257 499 l 451 469 q 626 390 569 451 q 682 239 682 329 q 640 95 682 153 q 530 8 599 38 q 379 -21 461 -21 m 371 1114 q 433 1090 410 1114 q 457 1028 457 1067 q 433 965 457 989 q 371 942 410 942 q 286 1028 286 942 q 309 1090 286 1067 q 371 1114 332 1114 z "},"ẞ":{"ha":811,"x_min":50,"x_max":767,"o":"m 569 -21 q 467 -3 517 -21 q 392 40 417 14 l 369 164 l 460 183 l 474 101 q 571 68 504 68 q 640 92 614 68 q 667 156 667 117 q 554 271 667 232 q 431 346 476 297 q 385 450 385 394 q 424 568 385 529 q 503 636 464 607 q 542 714 542 665 q 507 777 542 751 q 422 803 472 803 q 308 765 342 803 q 275 635 275 728 l 275 0 l 50 0 l 50 86 l 167 86 l 167 510 l 50 510 l 50 596 l 167 596 l 167 657 q 227 835 167 778 q 415 892 288 892 q 583 844 522 892 q 644 714 644 796 q 607 604 644 644 q 531 533 569 564 q 493 460 493 501 q 518 409 493 429 q 610 365 543 389 q 767 156 767 308 q 711 28 767 78 q 569 -21 656 -21 z "},"Ə":{"ha":840,"x_min":32,"x_max":772,"o":"m 379 839 q 665 723 558 840 q 771 410 772 606 q 666 98 771 217 q 390 -21 561 -21 q 132 94 232 -21 q 32 396 32 208 l 32 446 l 651 446 q 378 744 628 744 q 258 732 307 744 q 186 708 210 719 l 160 592 l 64 613 l 94 774 q 158 806 96 775 q 379 839 221 838 m 390 76 q 576 148 501 76 q 650 350 650 219 l 143 350 q 213 148 143 219 q 390 76 282 76 z "},"T":{"ha":815,"x_min":50,"x_max":765,"o":"m 50 818 l 765 818 l 765 590 l 660 590 l 660 722 l 464 722 l 461 96 l 593 96 l 593 0 l 218 0 l 218 96 l 350 96 l 351 722 l 156 722 l 156 590 l 50 590 l 50 818 z "},"Ŧ":{"ha":815,"x_min":50,"x_max":765,"o":"m 50 818 l 765 818 l 765 590 l 660 590 l 660 722 l 464 722 l 461 96 l 593 96 l 593 0 l 218 0 l 218 96 l 350 96 l 351 722 l 156 722 l 156 590 l 50 590 l 50 818 m 194 457 l 621 457 l 621 371 l 194 371 l 194 457 z "},"Ť":{"ha":815,"x_min":50,"x_max":765,"o":"m 50 818 l 765 818 l 765 590 l 660 590 l 660 722 l 464 722 l 461 96 l 593 96 l 593 0 l 218 0 l 218 96 l 350 96 l 351 722 l 156 722 l 156 590 l 50 590 l 50 818 z "},"Ţ":{"ha":815,"x_min":50,"x_max":765,"o":"m 50 818 l 765 818 l 765 590 l 660 590 l 660 722 l 464 722 l 461 96 l 593 96 l 593 0 l 218 0 l 218 96 l 350 96 l 351 722 l 156 722 l 156 590 l 50 590 l 50 818 z "},"Ț":{"ha":815,"x_min":50,"x_max":765,"o":"m 50 818 l 765 818 l 765 590 l 660 590 l 660 722 l 464 722 l 461 96 l 593 96 l 593 0 l 218 0 l 218 96 l 350 96 l 351 722 l 156 722 l 156 590 l 50 590 l 50 818 z "},"Ṭ":{"ha":815,"x_min":50,"x_max":765,"o":"m 50 818 l 765 818 l 765 590 l 660 590 l 660 722 l 464 722 l 461 96 l 593 96 l 593 0 l 218 0 l 218 96 l 350 96 l 351 722 l 156 722 l 156 590 l 50 590 l 50 818 z "},"Ṯ":{"ha":815,"x_min":50,"x_max":765,"o":"m 50 818 l 765 818 l 765 590 l 660 590 l 660 722 l 464 722 l 461 96 l 593 96 l 593 0 l 218 0 l 218 96 l 350 96 l 351 722 l 156 722 l 156 590 l 50 590 l 50 818 m 194 -56 l 621 -56 l 621 -142 l 194 -142 l 194 -56 z "},"U":{"ha":942,"x_min":38,"x_max":904,"o":"m 771 299 q 697 67 771 156 q 464 -21 624 -21 q 241 67 311 -21 q 171 299 171 156 l 171 722 l 38 722 l 38 818 l 371 818 l 371 722 l 282 722 l 282 261 q 332 119 282 164 q 464 74 382 74 q 606 123 553 74 q 660 275 660 172 l 660 722 l 571 722 l 571 818 l 904 818 l 904 722 l 771 722 l 771 299 z "},"Ú":{"ha":942,"x_min":38,"x_max":904,"o":"m 771 299 q 697 67 771 156 q 464 -21 624 -21 q 241 67 311 -21 q 171 299 171 156 l 171 722 l 38 722 l 38 818 l 371 818 l 371 722 l 282 722 l 282 261 q 332 119 282 164 q 464 74 382 74 q 606 123 553 74 q 660 275 660 172 l 660 722 l 571 722 l 571 818 l 904 818 l 904 722 l 771 722 l 771 299 m 682 1067 l 707 965 l 357 900 l 344 950 l 682 1067 z "},"Ŭ":{"ha":942,"x_min":38,"x_max":904,"o":"m 771 299 q 697 67 771 156 q 464 -21 624 -21 q 241 67 311 -21 q 171 299 171 156 l 171 722 l 38 722 l 38 818 l 371 818 l 371 722 l 282 722 l 282 261 q 332 119 282 164 q 464 74 382 74 q 606 123 553 74 q 660 275 660 172 l 660 722 l 571 722 l 571 818 l 904 818 l 904 722 l 771 722 l 771 299 m 469 903 q 253 1069 286 903 l 343 1086 q 469 992 358 992 q 597 1086 585 992 l 688 1069 q 469 903 654 903 z "},"Û":{"ha":942,"x_min":38,"x_max":904,"o":"m 771 299 q 697 67 771 156 q 464 -21 624 -21 q 241 67 311 -21 q 171 299 171 156 l 171 722 l 38 722 l 38 818 l 371 818 l 371 722 l 282 722 l 282 261 q 332 119 282 164 q 464 74 382 74 q 606 123 553 74 q 660 275 660 172 l 660 722 l 571 722 l 571 818 l 904 818 l 904 722 l 771 722 l 771 299 m 471 1081 l 708 946 l 683 901 l 471 979 l 258 901 l 233 946 l 471 1081 z "},"Ȕ":{"ha":942,"x_min":38,"x_max":904,"o":"m 771 299 q 697 67 771 156 q 464 -21 624 -21 q 241 67 311 -21 q 171 299 171 156 l 171 722 l 38 722 l 38 818 l 371 818 l 371 722 l 282 722 l 282 261 q 332 119 282 164 q 464 74 382 74 q 606 123 553 74 q 660 275 660 172 l 660 722 l 571 722 l 571 818 l 904 818 l 904 722 l 771 722 l 771 299 m 450 1183 l 625 933 l 574 894 l 368 1122 l 450 1183 m 218 1156 l 436 942 l 393 894 l 150 1081 l 218 1156 z "},"Ü":{"ha":942,"x_min":38,"x_max":904,"o":"m 771 299 q 697 67 771 156 q 464 -21 624 -21 q 241 67 311 -21 q 171 299 171 156 l 171 722 l 38 722 l 38 818 l 371 818 l 371 722 l 282 722 l 282 261 q 332 119 282 164 q 464 74 382 74 q 606 123 553 74 q 660 275 660 172 l 660 722 l 571 722 l 571 818 l 904 818 l 904 722 l 771 722 l 771 299 z "},"Ụ":{"ha":942,"x_min":38,"x_max":904,"o":"m 771 299 q 697 67 771 156 q 464 -21 624 -21 q 241 67 311 -21 q 171 299 171 156 l 171 722 l 38 722 l 38 818 l 371 818 l 371 722 l 282 722 l 282 261 q 332 119 282 164 q 464 74 382 74 q 606 123 553 74 q 660 275 660 172 l 660 722 l 571 722 l 571 818 l 904 818 l 904 722 l 771 722 l 771 299 z "},"Ù":{"ha":942,"x_min":38,"x_max":904,"o":"m 771 299 q 697 67 771 156 q 464 -21 624 -21 q 241 67 311 -21 q 171 299 171 156 l 171 722 l 38 722 l 38 818 l 371 818 l 371 722 l 282 722 l 282 261 q 332 119 282 164 q 464 74 382 74 q 606 123 553 74 q 660 275 660 172 l 660 722 l 571 722 l 571 818 l 904 818 l 904 722 l 771 722 l 771 299 m 217 1058 l 554 942 l 542 892 l 192 957 l 217 1058 z "},"Ủ":{"ha":942,"x_min":38,"x_max":904,"o":"m 771 299 q 697 67 771 156 q 464 -21 624 -21 q 241 67 311 -21 q 171 299 171 156 l 171 722 l 38 722 l 38 818 l 371 818 l 371 722 l 282 722 l 282 261 q 332 119 282 164 q 464 74 382 74 q 606 123 553 74 q 660 275 660 172 l 660 722 l 571 722 l 571 818 l 904 818 l 904 722 l 771 722 l 771 299 m 485 893 l 450 936 q 496 1019 496 974 q 454 1061 496 1061 q 389 1025 419 1061 l 340 1081 q 471 1144 392 1144 q 551 1115 517 1144 q 586 1029 586 1086 q 563 964 586 997 q 485 893 540 931 z "},"Ư":{"ha":953,"x_min":38,"x_max":897,"o":"m 771 299 q 697 67 771 156 q 464 -21 624 -21 q 241 67 311 -21 q 171 299 171 156 l 171 722 l 38 722 l 38 818 l 371 818 l 371 722 l 282 722 l 282 261 q 332 119 282 164 q 464 74 382 74 q 606 123 553 74 q 660 275 660 172 l 660 722 l 571 722 l 571 818 l 771 818 l 771 299 m 715 722 l 715 818 q 811 928 811 818 l 897 928 q 715 722 897 722 z "},"Ứ":{"ha":953,"x_min":38,"x_max":897,"o":"m 771 299 q 697 67 771 156 q 464 -21 624 -21 q 241 67 311 -21 q 171 299 171 156 l 171 722 l 38 722 l 38 818 l 371 818 l 371 722 l 282 722 l 282 261 q 332 119 282 164 q 464 74 382 74 q 606 123 553 74 q 660 275 660 172 l 660 722 l 571 722 l 571 818 l 771 818 l 771 299 m 715 722 l 715 818 q 811 928 811 818 l 897 928 q 715 722 897 722 m 674 1067 l 699 965 l 349 900 l 336 950 l 674 1067 z "},"Ự":{"ha":953,"x_min":38,"x_max":897,"o":"m 771 299 q 697 67 771 156 q 464 -21 624 -21 q 241 67 311 -21 q 171 299 171 156 l 171 722 l 38 722 l 38 818 l 371 818 l 371 722 l 282 722 l 282 261 q 332 119 282 164 q 464 74 382 74 q 606 123 553 74 q 660 275 660 172 l 660 722 l 571 722 l 571 818 l 771 818 l 771 299 m 715 722 l 715 818 q 811 928 811 818 l 897 928 q 715 722 897 722 z "},"Ừ":{"ha":953,"x_min":38,"x_max":897,"o":"m 771 299 q 697 67 771 156 q 464 -21 624 -21 q 241 67 311 -21 q 171 299 171 156 l 171 722 l 38 722 l 38 818 l 371 818 l 371 722 l 282 722 l 282 261 q 332 119 282 164 q 464 74 382 74 q 606 123 553 74 q 660 275 660 172 l 660 722 l 571 722 l 571 818 l 771 818 l 771 299 m 715 722 l 715 818 q 811 928 811 818 l 897 928 q 715 722 897 722 m 208 1058 l 546 942 l 533 892 l 183 957 l 208 1058 z "},"Ử":{"ha":953,"x_min":38,"x_max":897,"o":"m 771 299 q 697 67 771 156 q 464 -21 624 -21 q 241 67 311 -21 q 171 299 171 156 l 171 722 l 38 722 l 38 818 l 371 818 l 371 722 l 282 722 l 282 261 q 332 119 282 164 q 464 74 382 74 q 606 123 553 74 q 660 275 660 172 l 660 722 l 571 722 l 571 818 l 771 818 l 771 299 m 715 722 l 715 818 q 811 928 811 818 l 897 928 q 715 722 897 722 m 476 893 l 442 936 q 488 1019 488 974 q 446 1061 488 1061 q 381 1025 411 1061 l 332 1081 q 463 1144 383 1144 q 543 1115 508 1144 q 578 1029 578 1086 q 555 964 578 997 q 476 893 532 931 z "},"Ữ":{"ha":953,"x_min":38,"x_max":897,"o":"m 771 299 q 697 67 771 156 q 464 -21 624 -21 q 241 67 311 -21 q 171 299 171 156 l 171 722 l 38 722 l 38 818 l 371 818 l 371 722 l 282 722 l 282 261 q 332 119 282 164 q 464 74 382 74 q 606 123 553 74 q 660 275 660 172 l 660 722 l 571 722 l 571 818 l 771 818 l 771 299 m 715 722 l 715 818 q 811 928 811 818 l 897 928 q 715 722 897 722 m 296 913 l 267 985 q 342 1028 311 1014 q 419 1042 372 1042 q 517 1014 482 1042 q 593 986 551 986 q 634 997 617 986 q 683 1032 651 1008 l 717 954 q 649 908 676 919 q 590 894 621 896 q 506 922 544 892 q 424 951 467 951 q 360 941 385 951 q 296 913 336 931 z "},"Ű":{"ha":942,"x_min":38,"x_max":904,"o":"m 771 299 q 697 67 771 156 q 464 -21 624 -21 q 241 67 311 -21 q 171 299 171 156 l 171 722 l 38 722 l 38 818 l 371 818 l 371 722 l 282 722 l 282 261 q 332 119 282 164 q 464 74 382 74 q 606 123 553 74 q 660 275 660 172 l 660 722 l 571 722 l 571 818 l 904 818 l 904 722 l 771 722 l 771 299 m 588 1121 l 643 1043 l 413 901 l 385 940 l 588 1121 m 793 1060 l 826 971 l 563 903 l 544 947 l 793 1060 z "},"Ȗ":{"ha":942,"x_min":38,"x_max":904,"o":"m 771 299 q 697 67 771 156 q 464 -21 624 -21 q 241 67 311 -21 q 171 299 171 156 l 171 722 l 38 722 l 38 818 l 371 818 l 371 722 l 282 722 l 282 261 q 332 119 282 164 q 464 74 382 74 q 606 123 553 74 q 660 275 660 172 l 660 722 l 571 722 l 571 818 l 904 818 l 904 722 l 771 722 l 771 299 z "},"Ū":{"ha":942,"x_min":38,"x_max":904,"o":"m 771 299 q 697 67 771 156 q 464 -21 624 -21 q 241 67 311 -21 q 171 299 171 156 l 171 722 l 38 722 l 38 818 l 371 818 l 371 722 l 282 722 l 282 261 q 332 119 282 164 q 464 74 382 74 q 606 123 553 74 q 660 275 660 172 l 660 722 l 571 722 l 571 818 l 904 818 l 904 722 l 771 722 l 771 299 z "},"Ṻ":{"ha":942,"x_min":38,"x_max":904,"o":"m 771 299 q 697 67 771 156 q 464 -21 624 -21 q 241 67 311 -21 q 171 299 171 156 l 171 722 l 38 722 l 38 818 l 371 818 l 371 722 l 282 722 l 282 261 q 332 119 282 164 q 464 74 382 74 q 606 123 553 74 q 660 275 660 172 l 660 722 l 571 722 l 571 818 l 904 818 l 904 722 l 771 722 l 771 299 z "},"Ų":{"ha":942,"x_min":38,"x_max":904,"o":"m 771 299 q 697 67 771 156 q 464 -21 624 -21 q 241 67 311 -21 q 171 299 171 156 l 171 722 l 38 722 l 38 818 l 371 818 l 371 722 l 282 722 l 282 261 q 332 119 282 164 q 464 74 382 74 q 606 123 553 74 q 660 275 660 172 l 660 722 l 571 722 l 571 818 l 904 818 l 904 722 l 771 722 l 771 299 z "},"Ů":{"ha":942,"x_min":38,"x_max":904,"o":"m 771 299 q 697 67 771 156 q 464 -21 624 -21 q 241 67 311 -21 q 171 299 171 156 l 171 722 l 38 722 l 38 818 l 371 818 l 371 722 l 282 722 l 282 261 q 332 119 282 164 q 464 74 382 74 q 606 123 553 74 q 660 275 660 172 l 660 722 l 571 722 l 571 818 l 904 818 l 904 722 l 771 722 l 771 299 z "},"Ũ":{"ha":942,"x_min":38,"x_max":904,"o":"m 771 299 q 697 67 771 156 q 464 -21 624 -21 q 241 67 311 -21 q 171 299 171 156 l 171 722 l 38 722 l 38 818 l 371 818 l 371 722 l 282 722 l 282 261 q 332 119 282 164 q 464 74 382 74 q 606 123 553 74 q 660 275 660 172 l 660 722 l 571 722 l 571 818 l 904 818 l 904 722 l 771 722 l 771 299 m 304 913 l 275 985 q 350 1028 319 1014 q 428 1042 381 1042 q 525 1014 490 1042 q 601 986 560 986 q 642 997 625 986 q 692 1032 660 1008 l 725 954 q 657 908 685 919 q 599 894 629 896 q 514 922 553 892 q 432 951 475 951 q 369 941 393 951 q 304 913 344 931 z "},"Ṹ":{"ha":942,"x_min":38,"x_max":904,"o":"m 771 299 q 697 67 771 156 q 464 -21 624 -21 q 241 67 311 -21 q 171 299 171 156 l 171 722 l 38 722 l 38 818 l 371 818 l 371 722 l 282 722 l 282 261 q 332 119 282 164 q 464 74 382 74 q 606 123 553 74 q 660 275 660 172 l 660 722 l 571 722 l 571 818 l 904 818 l 904 722 l 771 722 l 771 299 m 304 913 l 275 985 q 350 1028 319 1014 q 428 1042 381 1042 q 525 1014 490 1042 q 601 986 560 986 q 642 997 625 986 q 692 1032 660 1008 l 725 954 q 657 908 685 919 q 599 894 629 896 q 514 922 553 892 q 432 951 475 951 q 369 941 393 951 q 304 913 344 931 m 681 1267 l 706 1165 l 356 1100 l 343 1150 l 681 1267 z "},"V":{"ha":917,"x_min":6,"x_max":911,"o":"m 6 818 l 346 818 l 346 722 l 257 722 l 400 342 l 474 124 l 539 331 l 676 722 l 588 722 l 588 818 l 911 818 l 911 722 l 781 722 l 535 0 l 410 0 l 138 722 l 6 722 l 6 818 z "},"W":{"ha":1267,"x_min":1,"x_max":1265,"o":"m 1 818 l 339 818 l 339 722 l 250 722 l 367 329 l 428 126 l 469 322 l 583 714 l 706 714 l 803 331 l 847 128 l 907 331 l 1036 722 l 947 722 l 947 818 l 1265 818 l 1265 722 l 1133 722 l 906 0 l 778 0 l 679 374 l 635 561 l 581 367 l 483 0 l 364 0 l 133 722 l 1 722 l 1 818 z "},"Ẃ":{"ha":1267,"x_min":1,"x_max":1265,"o":"m 1 818 l 339 818 l 339 722 l 250 722 l 367 329 l 428 126 l 469 322 l 583 714 l 706 714 l 803 331 l 847 128 l 907 331 l 1036 722 l 947 722 l 947 818 l 1265 818 l 1265 722 l 1133 722 l 906 0 l 778 0 l 679 374 l 635 561 l 581 367 l 483 0 l 364 0 l 133 722 l 1 722 l 1 818 m 849 1067 l 874 965 l 524 900 l 511 950 l 849 1067 z "},"Ŵ":{"ha":1267,"x_min":1,"x_max":1265,"o":"m 1 818 l 339 818 l 339 722 l 250 722 l 367 329 l 428 126 l 469 322 l 583 714 l 706 714 l 803 331 l 847 128 l 907 331 l 1036 722 l 947 722 l 947 818 l 1265 818 l 1265 722 l 1133 722 l 906 0 l 778 0 l 679 374 l 635 561 l 581 367 l 483 0 l 364 0 l 133 722 l 1 722 l 1 818 m 638 1081 l 875 946 l 850 901 l 638 979 l 425 901 l 400 946 l 638 1081 z "},"Ẅ":{"ha":1267,"x_min":1,"x_max":1265,"o":"m 1 818 l 339 818 l 339 722 l 250 722 l 367 329 l 428 126 l 469 322 l 583 714 l 706 714 l 803 331 l 847 128 l 907 331 l 1036 722 l 947 722 l 947 818 l 1265 818 l 1265 722 l 1133 722 l 906 0 l 778 0 l 679 374 l 635 561 l 581 367 l 483 0 l 364 0 l 133 722 l 1 722 l 1 818 z "},"Ẁ":{"ha":1267,"x_min":1,"x_max":1265,"o":"m 1 818 l 339 818 l 339 722 l 250 722 l 367 329 l 428 126 l 469 322 l 583 714 l 706 714 l 803 331 l 847 128 l 907 331 l 1036 722 l 947 722 l 947 818 l 1265 818 l 1265 722 l 1133 722 l 906 0 l 778 0 l 679 374 l 635 561 l 581 367 l 483 0 l 364 0 l 133 722 l 1 722 l 1 818 m 383 1058 l 721 942 l 708 892 l 358 957 l 383 1058 z "},"X":{"ha":922,"x_min":26,"x_max":903,"o":"m 28 0 l 28 96 l 146 96 l 386 418 l 144 722 l 26 722 l 26 818 l 376 818 l 376 722 l 288 722 l 463 501 l 626 722 l 531 722 l 531 818 l 878 818 l 878 722 l 746 722 l 525 424 l 785 96 l 903 96 l 903 0 l 540 0 l 540 96 l 643 96 l 447 340 l 265 96 l 368 96 l 368 0 l 28 0 z "},"Y":{"ha":904,"x_min":6,"x_max":899,"o":"m 6 818 l 338 818 l 338 722 l 264 722 l 457 450 l 674 722 l 569 722 l 569 818 l 899 818 l 899 722 l 804 722 l 508 357 l 506 96 l 636 96 l 636 0 l 265 0 l 265 96 l 396 96 l 397 353 l 122 722 l 6 722 l 6 818 z "},"Ý":{"ha":904,"x_min":6,"x_max":899,"o":"m 6 818 l 338 818 l 338 722 l 264 722 l 457 450 l 674 722 l 569 722 l 569 818 l 899 818 l 899 722 l 804 722 l 508 357 l 506 96 l 636 96 l 636 0 l 265 0 l 265 96 l 396 96 l 397 353 l 122 722 l 6 722 l 6 818 m 663 1067 l 688 965 l 338 900 l 325 950 l 663 1067 z "},"Ŷ":{"ha":904,"x_min":6,"x_max":899,"o":"m 6 818 l 338 818 l 338 722 l 264 722 l 457 450 l 674 722 l 569 722 l 569 818 l 899 818 l 899 722 l 804 722 l 508 357 l 506 96 l 636 96 l 636 0 l 265 0 l 265 96 l 396 96 l 397 353 l 122 722 l 6 722 l 6 818 m 451 1081 l 689 946 l 664 901 l 451 979 l 239 901 l 214 946 l 451 1081 z "},"Ÿ":{"ha":904,"x_min":6,"x_max":899,"o":"m 6 818 l 338 818 l 338 722 l 264 722 l 457 450 l 674 722 l 569 722 l 569 818 l 899 818 l 899 722 l 804 722 l 508 357 l 506 96 l 636 96 l 636 0 l 265 0 l 265 96 l 396 96 l 397 353 l 122 722 l 6 722 l 6 818 z "},"Ẏ":{"ha":904,"x_min":6,"x_max":899,"o":"m 6 818 l 338 818 l 338 722 l 264 722 l 457 450 l 674 722 l 569 722 l 569 818 l 899 818 l 899 722 l 804 722 l 508 357 l 506 96 l 636 96 l 636 0 l 265 0 l 265 96 l 396 96 l 397 353 l 122 722 l 6 722 l 6 818 m 450 1114 q 513 1090 489 1114 q 536 1028 536 1067 q 513 965 536 989 q 450 942 489 942 q 365 1028 365 942 q 388 1090 365 1067 q 450 1114 411 1114 z "},"Ỵ":{"ha":904,"x_min":6,"x_max":899,"o":"m 6 818 l 338 818 l 338 722 l 264 722 l 457 450 l 674 722 l 569 722 l 569 818 l 899 818 l 899 722 l 804 722 l 508 357 l 506 96 l 636 96 l 636 0 l 265 0 l 265 96 l 396 96 l 397 353 l 122 722 l 6 722 l 6 818 z "},"Ỳ":{"ha":904,"x_min":6,"x_max":899,"o":"m 6 818 l 338 818 l 338 722 l 264 722 l 457 450 l 674 722 l 569 722 l 569 818 l 899 818 l 899 722 l 804 722 l 508 357 l 506 96 l 636 96 l 636 0 l 265 0 l 265 96 l 396 96 l 397 353 l 122 722 l 6 722 l 6 818 m 197 1058 l 535 942 l 522 892 l 172 957 l 197 1058 z "},"Ỷ":{"ha":904,"x_min":6,"x_max":899,"o":"m 6 818 l 338 818 l 338 722 l 264 722 l 457 450 l 674 722 l 569 722 l 569 818 l 899 818 l 899 722 l 804 722 l 508 357 l 506 96 l 636 96 l 636 0 l 265 0 l 265 96 l 396 96 l 397 353 l 122 722 l 6 722 l 6 818 m 465 893 l 431 936 q 476 1019 476 974 q 435 1061 476 1061 q 369 1025 400 1061 l 321 1081 q 451 1144 372 1144 q 532 1115 497 1144 q 567 1029 567 1086 q 544 964 567 997 q 465 893 521 931 z "},"Ȳ":{"ha":904,"x_min":6,"x_max":899,"o":"m 6 818 l 338 818 l 338 722 l 264 722 l 457 450 l 674 722 l 569 722 l 569 818 l 899 818 l 899 722 l 804 722 l 508 357 l 506 96 l 636 96 l 636 0 l 265 0 l 265 96 l 396 96 l 397 353 l 122 722 l 6 722 l 6 818 z "},"Ỹ":{"ha":904,"x_min":6,"x_max":899,"o":"m 6 818 l 338 818 l 338 722 l 264 722 l 457 450 l 674 722 l 569 722 l 569 818 l 899 818 l 899 722 l 804 722 l 508 357 l 506 96 l 636 96 l 636 0 l 265 0 l 265 96 l 396 96 l 397 353 l 122 722 l 6 722 l 6 818 m 285 913 l 256 985 q 331 1028 300 1014 q 408 1042 361 1042 q 506 1014 471 1042 q 582 986 540 986 q 623 997 606 986 q 672 1032 640 1008 l 706 954 q 638 908 665 919 q 579 894 610 896 q 494 922 533 892 q 413 951 456 951 q 349 941 374 951 q 285 913 325 931 z "},"Z":{"ha":742,"x_min":46,"x_max":694,"o":"m 85 818 l 667 818 l 667 746 l 199 96 l 547 96 l 603 244 l 694 214 l 622 0 l 57 0 l 57 78 l 521 722 l 163 722 l 135 588 l 46 600 l 85 818 z "},"Ź":{"ha":742,"x_min":46,"x_max":694,"o":"m 85 818 l 667 818 l 667 746 l 199 96 l 547 96 l 603 244 l 694 214 l 622 0 l 57 0 l 57 78 l 521 722 l 163 722 l 135 588 l 46 600 l 85 818 m 576 1067 l 601 965 l 251 900 l 239 950 l 576 1067 z "},"Ž":{"ha":742,"x_min":46,"x_max":694,"o":"m 85 818 l 667 818 l 667 746 l 199 96 l 547 96 l 603 244 l 694 214 l 622 0 l 57 0 l 57 78 l 521 722 l 163 722 l 135 588 l 46 600 l 85 818 z "},"Ż":{"ha":742,"x_min":46,"x_max":694,"o":"m 85 818 l 667 818 l 667 746 l 199 96 l 547 96 l 603 244 l 694 214 l 622 0 l 57 0 l 57 78 l 521 722 l 163 722 l 135 588 l 46 600 l 85 818 m 364 1114 q 426 1090 403 1114 q 450 1028 450 1067 q 426 965 450 989 q 364 942 403 942 q 279 1028 279 942 q 302 1090 279 1067 q 364 1114 325 1114 z "},"Ẓ":{"ha":742,"x_min":46,"x_max":694,"o":"m 85 818 l 667 818 l 667 746 l 199 96 l 547 96 l 603 244 l 694 214 l 622 0 l 57 0 l 57 78 l 521 722 l 163 722 l 135 588 l 46 600 l 85 818 z "},"a":{"ha":729,"x_min":47,"x_max":700,"o":"m 485 40 q 289 -21 394 -21 q 50 164 53 -21 q 281 346 47 346 l 460 344 q 425 483 460 438 q 319 528 390 528 q 194 511 250 528 l 181 435 l 92 451 l 114 578 q 315 617 222 617 q 568 350 568 617 l 568 108 l 700 65 l 672 -24 l 485 40 m 285 258 q 161 165 161 258 q 294 68 161 68 q 460 121 390 68 l 460 257 l 285 258 z "},"á":{"ha":729,"x_min":47,"x_max":700,"o":"m 485 40 q 289 -21 394 -21 q 50 164 53 -21 q 281 346 47 346 l 460 344 q 425 483 460 438 q 319 528 390 528 q 194 511 250 528 l 181 435 l 92 451 l 114 578 q 315 617 222 617 q 568 350 568 617 l 568 108 l 700 65 l 672 -24 l 485 40 m 285 258 q 161 165 161 258 q 294 68 161 68 q 460 121 390 68 l 460 257 l 285 258 z "},"ă":{"ha":729,"x_min":47,"x_max":700,"o":"m 485 40 q 289 -21 394 -21 q 50 164 53 -21 q 281 346 47 346 l 460 344 q 425 483 460 438 q 319 528 390 528 q 194 511 250 528 l 181 435 l 92 451 l 114 578 q 315 617 222 617 q 568 350 568 617 l 568 108 l 700 65 l 672 -24 l 485 40 m 285 258 q 161 165 161 258 q 294 68 161 68 q 460 121 390 68 l 460 257 l 285 258 m 322 681 q 106 847 139 681 l 196 864 q 322 769 211 769 q 450 864 438 769 l 540 847 q 322 681 507 681 z "},"ắ":{"ha":729,"x_min":47,"x_max":700,"o":"m 485 40 q 289 -21 394 -21 q 50 164 53 -21 q 281 346 47 346 l 460 344 q 425 483 460 438 q 319 528 390 528 q 194 511 250 528 l 181 435 l 92 451 l 114 578 q 315 617 222 617 q 568 350 568 617 l 568 108 l 700 65 l 672 -24 l 485 40 m 285 258 q 161 165 161 258 q 294 68 161 68 q 460 121 390 68 l 460 257 l 285 258 m 389 1068 l 471 1007 l 318 844 l 267 883 l 389 1068 m 322 681 q 106 847 139 681 l 196 864 q 322 769 211 769 q 450 864 438 769 l 540 847 q 322 681 507 681 z "},"ặ":{"ha":729,"x_min":47,"x_max":700,"o":"m 485 40 q 289 -21 394 -21 q 50 164 53 -21 q 281 346 47 346 l 460 344 q 425 483 460 438 q 319 528 390 528 q 194 511 250 528 l 181 435 l 92 451 l 114 578 q 315 617 222 617 q 568 350 568 617 l 568 108 l 700 65 l 672 -24 l 485 40 m 285 258 q 161 165 161 258 q 294 68 161 68 q 460 121 390 68 l 460 257 l 285 258 m 322 681 q 106 847 139 681 l 196 864 q 322 769 211 769 q 450 864 438 769 l 540 847 q 322 681 507 681 z "},"ằ":{"ha":729,"x_min":47,"x_max":700,"o":"m 485 40 q 289 -21 394 -21 q 50 164 53 -21 q 281 346 47 346 l 460 344 q 425 483 460 438 q 319 528 390 528 q 194 511 250 528 l 181 435 l 92 451 l 114 578 q 315 617 222 617 q 568 350 568 617 l 568 108 l 700 65 l 672 -24 l 485 40 m 285 258 q 161 165 161 258 q 294 68 161 68 q 460 121 390 68 l 460 257 l 285 258 m 329 844 l 175 1006 l 257 1067 l 381 883 l 329 844 m 322 681 q 106 847 139 681 l 196 864 q 322 769 211 769 q 450 864 438 769 l 540 847 q 322 681 507 681 z "},"ẳ":{"ha":729,"x_min":47,"x_max":700,"o":"m 485 40 q 289 -21 394 -21 q 50 164 53 -21 q 281 346 47 346 l 460 344 q 425 483 460 438 q 319 528 390 528 q 194 511 250 528 l 181 435 l 92 451 l 114 578 q 315 617 222 617 q 568 350 568 617 l 568 108 l 700 65 l 672 -24 l 485 40 m 285 258 q 161 165 161 258 q 294 68 161 68 q 460 121 390 68 l 460 257 l 285 258 z "},"ẵ":{"ha":729,"x_min":47,"x_max":700,"o":"m 485 40 q 289 -21 394 -21 q 50 164 53 -21 q 281 346 47 346 l 460 344 q 425 483 460 438 q 319 528 390 528 q 194 511 250 528 l 181 435 l 92 451 l 114 578 q 315 617 222 617 q 568 350 568 617 l 568 108 l 700 65 l 672 -24 l 485 40 m 285 258 q 161 165 161 258 q 294 68 161 68 q 460 121 390 68 l 460 257 l 285 258 m 121 917 l 99 985 q 173 1028 142 1014 q 251 1042 204 1042 q 349 1014 314 1042 q 425 986 383 986 q 465 997 447 986 q 515 1032 483 1008 l 542 958 q 474 912 501 924 q 415 899 446 900 q 331 926 369 897 q 249 956 292 956 q 185 946 210 956 q 121 917 161 936 m 322 681 q 106 847 139 681 l 196 864 q 322 769 211 769 q 450 864 438 769 l 540 847 q 322 681 507 681 z "},"â":{"ha":729,"x_min":47,"x_max":700,"o":"m 485 40 q 289 -21 394 -21 q 50 164 53 -21 q 281 346 47 346 l 460 344 q 425 483 460 438 q 319 528 390 528 q 194 511 250 528 l 181 435 l 92 451 l 114 578 q 315 617 222 617 q 568 350 568 617 l 568 108 l 700 65 l 672 -24 l 485 40 m 285 258 q 161 165 161 258 q 294 68 161 68 q 460 121 390 68 l 460 257 l 285 258 z "},"ấ":{"ha":729,"x_min":47,"x_max":700,"o":"m 485 40 q 289 -21 394 -21 q 50 164 53 -21 q 281 346 47 346 l 460 344 q 425 483 460 438 q 319 528 390 528 q 194 511 250 528 l 181 435 l 92 451 l 114 578 q 315 617 222 617 q 568 350 568 617 l 568 108 l 700 65 l 672 -24 l 485 40 m 285 258 q 161 165 161 258 q 294 68 161 68 q 460 121 390 68 l 460 257 l 285 258 m 522 1054 l 604 993 l 451 831 l 400 869 l 522 1054 m 326 875 l 533 738 l 501 676 l 326 767 l 151 679 l 114 738 l 326 875 z "},"ậ":{"ha":729,"x_min":47,"x_max":700,"o":"m 485 40 q 289 -21 394 -21 q 50 164 53 -21 q 281 346 47 346 l 460 344 q 425 483 460 438 q 319 528 390 528 q 194 511 250 528 l 181 435 l 92 451 l 114 578 q 315 617 222 617 q 568 350 568 617 l 568 108 l 700 65 l 672 -24 l 485 40 m 285 258 q 161 165 161 258 q 294 68 161 68 q 460 121 390 68 l 460 257 l 285 258 z "},"ầ":{"ha":729,"x_min":47,"x_max":700,"o":"m 485 40 q 289 -21 394 -21 q 50 164 53 -21 q 281 346 47 346 l 460 344 q 425 483 460 438 q 319 528 390 528 q 194 511 250 528 l 181 435 l 92 451 l 114 578 q 315 617 222 617 q 568 350 568 617 l 568 108 l 700 65 l 672 -24 l 485 40 m 285 258 q 161 165 161 258 q 294 68 161 68 q 460 121 390 68 l 460 257 l 285 258 m 468 831 l 314 992 l 396 1053 l 519 869 l 468 831 m 326 875 l 533 738 l 501 676 l 326 767 l 151 679 l 114 738 l 326 875 z "},"ẩ":{"ha":729,"x_min":47,"x_max":700,"o":"m 485 40 q 289 -21 394 -21 q 50 164 53 -21 q 281 346 47 346 l 460 344 q 425 483 460 438 q 319 528 390 528 q 194 511 250 528 l 181 435 l 92 451 l 114 578 q 315 617 222 617 q 568 350 568 617 l 568 108 l 700 65 l 672 -24 l 485 40 m 285 258 q 161 165 161 258 q 294 68 161 68 q 460 121 390 68 l 460 257 l 285 258 z "},"ẫ":{"ha":729,"x_min":47,"x_max":700,"o":"m 485 40 q 289 -21 394 -21 q 50 164 53 -21 q 281 346 47 346 l 460 344 q 425 483 460 438 q 319 528 390 528 q 194 511 250 528 l 181 435 l 92 451 l 114 578 q 315 617 222 617 q 568 350 568 617 l 568 108 l 700 65 l 672 -24 l 485 40 m 285 258 q 161 165 161 258 q 294 68 161 68 q 460 121 390 68 l 460 257 l 285 258 m 136 917 l 114 985 q 188 1028 157 1014 q 267 1042 219 1042 q 364 1014 329 1042 q 440 986 399 986 q 481 997 463 986 q 531 1032 499 1008 l 557 958 q 489 912 517 924 q 431 899 461 900 q 346 926 385 897 q 264 956 307 956 q 201 946 225 956 q 136 917 176 936 m 326 875 l 533 738 l 501 676 l 326 767 l 151 679 l 114 738 l 326 875 z "},"ȁ":{"ha":729,"x_min":3,"x_max":700,"o":"m 485 40 q 289 -21 394 -21 q 50 164 53 -21 q 281 346 47 346 l 460 344 q 425 483 460 438 q 319 528 390 528 q 194 511 250 528 l 181 435 l 92 451 l 114 578 q 315 617 222 617 q 568 350 568 617 l 568 108 l 700 65 l 672 -24 l 485 40 m 285 258 q 161 165 161 258 q 294 68 161 68 q 460 121 390 68 l 460 257 l 285 258 m 303 961 l 478 711 l 426 672 l 221 900 l 303 961 m 71 933 l 289 719 l 246 672 l 3 858 l 71 933 z "},"ä":{"ha":729,"x_min":47,"x_max":700,"o":"m 485 40 q 289 -21 394 -21 q 50 164 53 -21 q 281 346 47 346 l 460 344 q 425 483 460 438 q 319 528 390 528 q 194 511 250 528 l 181 435 l 92 451 l 114 578 q 315 617 222 617 q 568 350 568 617 l 568 108 l 700 65 l 672 -24 l 485 40 m 285 258 q 161 165 161 258 q 294 68 161 68 q 460 121 390 68 l 460 257 l 285 258 z "},"ạ":{"ha":729,"x_min":47,"x_max":700,"o":"m 485 40 q 289 -21 394 -21 q 50 164 53 -21 q 281 346 47 346 l 460 344 q 425 483 460 438 q 319 528 390 528 q 194 511 250 528 l 181 435 l 92 451 l 114 578 q 315 617 222 617 q 568 350 568 617 l 568 108 l 700 65 l 672 -24 l 485 40 m 285 258 q 161 165 161 258 q 294 68 161 68 q 460 121 390 68 l 460 257 l 285 258 z "},"à":{"ha":729,"x_min":47,"x_max":700,"o":"m 485 40 q 289 -21 394 -21 q 50 164 53 -21 q 281 346 47 346 l 460 344 q 425 483 460 438 q 319 528 390 528 q 194 511 250 528 l 181 435 l 92 451 l 114 578 q 315 617 222 617 q 568 350 568 617 l 568 108 l 700 65 l 672 -24 l 485 40 m 285 258 q 161 165 161 258 q 294 68 161 68 q 460 121 390 68 l 460 257 l 285 258 z "},"ả":{"ha":729,"x_min":47,"x_max":700,"o":"m 485 40 q 289 -21 394 -21 q 50 164 53 -21 q 281 346 47 346 l 460 344 q 425 483 460 438 q 319 528 390 528 q 194 511 250 528 l 181 435 l 92 451 l 114 578 q 315 617 222 617 q 568 350 568 617 l 568 108 l 700 65 l 672 -24 l 485 40 m 285 258 q 161 165 161 258 q 294 68 161 68 q 460 121 390 68 l 460 257 l 285 258 m 338 671 l 303 714 q 349 797 349 751 q 307 839 349 839 q 242 803 272 839 l 193 858 q 324 922 244 922 q 404 893 369 922 q 439 807 439 864 q 416 742 439 775 q 338 671 393 708 z "},"ȃ":{"ha":729,"x_min":47,"x_max":700,"o":"m 485 40 q 289 -21 394 -21 q 50 164 53 -21 q 281 346 47 346 l 460 344 q 425 483 460 438 q 319 528 390 528 q 194 511 250 528 l 181 435 l 92 451 l 114 578 q 315 617 222 617 q 568 350 568 617 l 568 108 l 700 65 l 672 -24 l 485 40 m 285 258 q 161 165 161 258 q 294 68 161 68 q 460 121 390 68 l 460 257 l 285 258 z "},"ā":{"ha":729,"x_min":47,"x_max":700,"o":"m 485 40 q 289 -21 394 -21 q 50 164 53 -21 q 281 346 47 346 l 460 344 q 425 483 460 438 q 319 528 390 528 q 194 511 250 528 l 181 435 l 92 451 l 114 578 q 315 617 222 617 q 568 350 568 617 l 568 108 l 700 65 l 672 -24 l 485 40 m 285 258 q 161 165 161 258 q 294 68 161 68 q 460 121 390 68 l 460 257 l 285 258 z "},"ą":{"ha":729,"x_min":47,"x_max":719,"o":"m 485 40 q 289 -21 394 -21 q 50 164 53 -21 q 281 346 47 346 l 460 344 q 425 483 460 438 q 319 528 390 528 q 194 511 250 528 l 181 435 l 92 451 l 114 578 q 315 617 222 617 q 568 350 568 617 l 568 108 l 700 65 l 672 -24 l 485 40 m 285 258 q 161 165 161 258 q 294 68 161 68 q 460 121 390 68 l 460 257 l 285 258 z "},"å":{"ha":729,"x_min":47,"x_max":700,"o":"m 485 40 q 289 -21 394 -21 q 50 164 53 -21 q 281 346 47 346 l 460 344 q 425 483 460 438 q 319 528 390 528 q 194 511 250 528 l 181 435 l 92 451 l 114 578 q 315 617 222 617 q 568 350 568 617 l 568 108 l 700 65 l 672 -24 l 485 40 m 285 258 q 161 165 161 258 q 294 68 161 68 q 460 121 390 68 l 460 257 l 285 258 z "},"ǻ":{"ha":729,"x_min":47,"x_max":700,"o":"m 485 40 q 289 -21 394 -21 q 50 164 53 -21 q 281 346 47 346 l 460 344 q 425 483 460 438 q 319 528 390 528 q 194 511 250 528 l 181 435 l 92 451 l 114 578 q 315 617 222 617 q 568 350 568 617 l 568 108 l 700 65 l 672 -24 l 485 40 m 285 258 q 161 165 161 258 q 294 68 161 68 q 460 121 390 68 l 460 257 l 285 258 z "},"ã":{"ha":729,"x_min":47,"x_max":700,"o":"m 485 40 q 289 -21 394 -21 q 50 164 53 -21 q 281 346 47 346 l 460 344 q 425 483 460 438 q 319 528 390 528 q 194 511 250 528 l 181 435 l 92 451 l 114 578 q 315 617 222 617 q 568 350 568 617 l 568 108 l 700 65 l 672 -24 l 485 40 m 285 258 q 161 165 161 258 q 294 68 161 68 q 460 121 390 68 l 460 257 l 285 258 m 157 690 l 128 763 q 203 806 172 792 q 281 819 233 819 q 378 792 343 819 q 454 764 413 764 q 495 775 478 764 q 544 810 513 786 l 578 732 q 510 685 538 697 q 451 672 482 674 q 367 699 406 669 q 285 729 328 729 q 222 719 246 729 q 157 690 197 708 z "},"æ":{"ha":1079,"x_min":47,"x_max":1028,"o":"m 113 578 q 205 607 163 597 q 314 617 247 617 q 457 581 403 617 q 533 483 511 544 q 633 581 571 544 q 775 617 694 617 q 901 587 842 617 q 994 483 961 557 q 1014 272 1028 408 l 567 269 q 621 120 572 172 q 758 68 669 68 q 913 102 856 68 q 969 136 969 136 l 1019 71 q 989 47 1019 69 q 900 2 958 25 q 757 -21 842 -21 q 632 1 689 -21 q 535 67 575 24 q 424 11 500 43 q 288 -21 347 -21 q 113 32 176 -21 q 49 164 50 85 q 115 303 47 261 q 279 346 183 346 l 458 344 q 431 484 458 440 q 318 528 404 528 q 243 522 275 528 q 193 511 211 517 l 179 435 l 90 451 l 113 578 m 283 258 q 198 242 236 258 q 160 165 160 226 q 200 92 160 115 q 293 68 240 68 q 397 88 342 68 q 490 132 453 108 q 467 190 476 158 q 457 257 458 222 l 283 258 m 921 357 q 884 484 919 440 q 771 528 849 528 q 635 482 689 528 q 568 356 581 436 l 921 357 z "},"ǽ":{"ha":1079,"x_min":47,"x_max":1028,"o":"m 113 578 q 205 607 163 597 q 314 617 247 617 q 457 581 403 617 q 533 483 511 544 q 633 581 571 544 q 775 617 694 617 q 901 587 842 617 q 994 483 961 557 q 1014 272 1028 408 l 567 269 q 621 120 572 172 q 758 68 669 68 q 913 102 856 68 q 969 136 969 136 l 1019 71 q 989 47 1019 69 q 900 2 958 25 q 757 -21 842 -21 q 632 1 689 -21 q 535 67 575 24 q 424 11 500 43 q 288 -21 347 -21 q 113 32 176 -21 q 49 164 50 85 q 115 303 47 261 q 279 346 183 346 l 458 344 q 431 484 458 440 q 318 528 404 528 q 243 522 275 528 q 193 511 211 517 l 179 435 l 90 451 l 113 578 m 283 258 q 198 242 236 258 q 160 165 160 226 q 200 92 160 115 q 293 68 240 68 q 397 88 342 68 q 490 132 453 108 q 467 190 476 158 q 457 257 458 222 l 283 258 m 921 357 q 884 484 919 440 q 771 528 849 528 q 635 482 689 528 q 568 356 581 436 l 921 357 z "},"b":{"ha":717,"x_min":-40,"x_max":656,"o":"m 354 -21 q 213 -2 281 -21 q 92 57 144 17 l 92 769 l -40 815 l -11 901 l 199 829 l 199 571 q 360 617 285 617 q 656 314 656 617 q 354 -21 656 -21 m 353 68 q 544 314 544 68 q 358 528 544 528 q 199 476 283 528 l 199 103 q 353 68 260 68 z "},"c":{"ha":651,"x_min":56,"x_max":603,"o":"m 496 513 q 371 532 436 532 q 222 474 278 532 q 167 299 167 415 q 227 128 167 185 q 372 71 288 71 q 547 128 464 71 l 593 60 q 493 0 542 21 q 358 -21 444 -21 q 140 65 224 -21 q 56 299 56 150 q 148 537 56 454 q 372 619 240 619 q 475 608 428 619 q 583 578 522 596 l 603 428 l 514 408 l 496 513 z "},"ć":{"ha":651,"x_min":56,"x_max":603,"o":"m 496 513 q 371 532 436 532 q 222 474 278 532 q 167 299 167 415 q 227 128 167 185 q 372 71 288 71 q 547 128 464 71 l 593 60 q 493 0 542 21 q 358 -21 444 -21 q 140 65 224 -21 q 56 299 56 150 q 148 537 56 454 q 372 619 240 619 q 475 608 428 619 q 583 578 522 596 l 603 428 l 514 408 l 496 513 z "},"č":{"ha":651,"x_min":56,"x_max":603,"o":"m 496 513 q 371 532 436 532 q 222 474 278 532 q 167 299 167 415 q 227 128 167 185 q 372 71 288 71 q 547 128 464 71 l 593 60 q 493 0 542 21 q 358 -21 444 -21 q 140 65 224 -21 q 56 299 56 150 q 148 537 56 454 q 372 619 240 619 q 475 608 428 619 q 583 578 522 596 l 603 428 l 514 408 l 496 513 z "},"ç":{"ha":651,"x_min":56,"x_max":603,"o":"m 496 513 q 371 532 436 532 q 222 474 278 532 q 167 299 167 415 q 227 128 167 185 q 372 71 288 71 q 547 128 464 71 l 593 60 q 493 0 542 21 q 358 -21 444 -21 q 140 65 224 -21 q 56 299 56 150 q 148 537 56 454 q 372 619 240 619 q 475 608 428 619 q 583 578 522 596 l 603 428 l 514 408 l 496 513 z "},"ḉ":{"ha":651,"x_min":56,"x_max":603,"o":"m 496 513 q 371 532 436 532 q 222 474 278 532 q 167 299 167 415 q 227 128 167 185 q 372 71 288 71 q 547 128 464 71 l 593 60 q 493 0 542 21 q 358 -21 444 -21 q 140 65 224 -21 q 56 299 56 150 q 148 537 56 454 q 372 619 240 619 q 475 608 428 619 q 583 578 522 596 l 603 428 l 514 408 l 496 513 z "},"ĉ":{"ha":651,"x_min":56,"x_max":603,"o":"m 496 513 q 371 532 436 532 q 222 474 278 532 q 167 299 167 415 q 227 128 167 185 q 372 71 288 71 q 547 128 464 71 l 593 60 q 493 0 542 21 q 358 -21 444 -21 q 140 65 224 -21 q 56 299 56 150 q 148 537 56 454 q 372 619 240 619 q 475 608 428 619 q 583 578 522 596 l 603 428 l 514 408 l 496 513 z "},"ċ":{"ha":651,"x_min":56,"x_max":603,"o":"m 496 513 q 371 532 436 532 q 222 474 278 532 q 167 299 167 415 q 227 128 167 185 q 372 71 288 71 q 547 128 464 71 l 593 60 q 493 0 542 21 q 358 -21 444 -21 q 140 65 224 -21 q 56 299 56 150 q 148 537 56 454 q 372 619 240 619 q 475 608 428 619 q 583 578 522 596 l 603 428 l 514 408 l 496 513 m 372 892 q 435 868 411 892 q 458 806 458 844 q 435 743 458 767 q 372 719 411 719 q 288 806 288 719 q 310 868 288 844 q 372 892 333 892 z "},"d":{"ha":782,"x_min":57,"x_max":753,"o":"m 725 -24 l 540 40 q 360 -21 456 -21 q 137 67 217 -21 q 57 311 57 156 q 137 536 57 456 q 360 617 217 617 q 514 588 438 617 l 514 769 l 382 815 l 411 901 l 622 829 l 622 110 l 753 65 l 725 -24 m 361 68 q 514 119 436 68 l 514 493 q 361 528 444 528 q 222 469 275 528 q 168 313 168 410 q 222 135 168 203 q 361 68 275 68 z "},"ð":{"ha":726,"x_min":56,"x_max":664,"o":"m 408 803 q 589 622 518 747 q 664 364 660 496 q 575 72 664 167 q 358 -22 486 -22 q 147 57 239 -22 q 56 296 56 136 q 94 466 56 394 q 201 576 132 538 q 358 614 269 614 q 420 608 382 614 q 496 588 458 603 q 430 672 467 636 q 349 736 393 708 l 285 667 l 228 722 l 275 775 q 136 829 217 803 l 154 906 q 256 874 211 889 q 336 842 300 860 l 400 913 l 457 857 l 408 803 m 360 525 q 167 296 167 525 q 360 67 167 67 q 503 138 453 67 q 554 340 554 210 q 548 414 554 382 q 532 479 542 446 q 360 525 468 525 z "},"ď":{"ha":782,"x_min":57,"x_max":778,"o":"m 725 -24 l 540 40 q 360 -21 456 -21 q 137 67 217 -21 q 57 311 57 156 q 137 536 57 456 q 360 617 217 617 q 514 588 438 617 l 514 769 l 382 815 l 411 901 l 622 829 l 622 110 l 753 65 l 725 -24 m 361 68 q 514 119 436 68 l 514 493 q 361 528 444 528 q 222 469 275 528 q 168 313 168 410 q 222 135 168 203 q 361 68 275 68 z "},"đ":{"ha":782,"x_min":57,"x_max":753,"o":"m 725 -24 l 540 40 q 360 -21 456 -21 q 137 63 217 -21 q 57 297 57 147 q 137 515 57 435 q 360 596 217 596 q 514 567 438 596 l 514 769 l 382 815 l 411 901 l 622 829 l 622 110 l 753 65 l 725 -24 m 361 68 q 442 83 406 68 q 514 119 479 97 l 514 472 q 361 507 444 507 q 222 448 275 507 q 168 299 168 389 q 222 131 168 194 q 361 68 275 68 m 307 729 l 733 729 l 733 646 l 307 646 l 307 729 z "},"ḍ":{"ha":782,"x_min":57,"x_max":753,"o":"m 725 -24 l 540 40 q 360 -21 456 -21 q 137 67 217 -21 q 57 311 57 156 q 137 536 57 456 q 360 617 217 617 q 514 588 438 617 l 514 769 l 382 815 l 411 901 l 622 829 l 622 110 l 753 65 l 725 -24 m 361 68 q 514 119 436 68 l 514 493 q 361 528 444 528 q 222 469 275 528 q 168 313 168 410 q 222 135 168 203 q 361 68 275 68 z "},"ḏ":{"ha":782,"x_min":57,"x_max":753,"o":"m 725 -24 l 540 40 q 360 -21 456 -21 q 137 67 217 -21 q 57 311 57 156 q 137 536 57 456 q 360 617 217 617 q 514 588 438 617 l 514 769 l 382 815 l 411 901 l 622 829 l 622 110 l 753 65 l 725 -24 m 361 68 q 514 119 436 68 l 514 493 q 361 528 444 528 q 222 469 275 528 q 168 313 168 410 q 222 135 168 203 q 361 68 275 68 m 186 -56 l 613 -56 l 613 -142 l 186 -142 l 186 -56 z "},"e":{"ha":682,"x_min":54,"x_max":626,"o":"m 619 71 q 506 1 564 24 q 375 -21 447 -21 q 141 63 228 -21 q 54 299 54 147 q 138 529 54 442 q 357 617 221 617 q 555 538 483 617 q 626 326 626 458 q 626 301 626 314 q 624 274 625 288 l 161 271 q 229 117 167 164 q 371 69 292 69 q 569 136 489 69 l 619 71 m 519 358 q 474 484 518 436 q 358 532 431 532 q 229 484 285 532 q 163 357 174 436 l 519 358 z "},"é":{"ha":682,"x_min":54,"x_max":626,"o":"m 619 71 q 506 1 564 24 q 375 -21 447 -21 q 141 63 228 -21 q 54 299 54 147 q 138 529 54 442 q 357 617 221 617 q 555 538 483 617 q 626 326 626 458 q 626 301 626 314 q 624 274 625 288 l 161 271 q 229 117 167 164 q 371 69 292 69 q 569 136 489 69 l 619 71 m 519 358 q 474 484 518 436 q 358 532 431 532 q 229 484 285 532 q 163 357 174 436 l 519 358 z "},"ĕ":{"ha":682,"x_min":54,"x_max":626,"o":"m 619 71 q 506 1 564 24 q 375 -21 447 -21 q 141 63 228 -21 q 54 299 54 147 q 138 529 54 442 q 357 617 221 617 q 555 538 483 617 q 626 326 626 458 q 626 301 626 314 q 624 274 625 288 l 161 271 q 229 117 167 164 q 371 69 292 69 q 569 136 489 69 l 619 71 m 519 358 q 474 484 518 436 q 358 532 431 532 q 229 484 285 532 q 163 357 174 436 l 519 358 m 351 681 q 135 847 168 681 l 225 864 q 351 769 240 769 q 479 864 467 769 l 569 847 q 351 681 536 681 z "},"ě":{"ha":682,"x_min":54,"x_max":626,"o":"m 619 71 q 506 1 564 24 q 375 -21 447 -21 q 141 63 228 -21 q 54 299 54 147 q 138 529 54 442 q 357 617 221 617 q 555 538 483 617 q 626 326 626 458 q 626 301 626 314 q 624 274 625 288 l 161 271 q 229 117 167 164 q 371 69 292 69 q 569 136 489 69 l 619 71 m 519 358 q 474 484 518 436 q 358 532 431 532 q 229 484 285 532 q 163 357 174 436 l 519 358 z "},"ḝ":{"ha":682,"x_min":54,"x_max":626,"o":"m 619 71 q 506 1 564 24 q 375 -21 447 -21 q 141 63 228 -21 q 54 299 54 147 q 138 529 54 442 q 357 617 221 617 q 555 538 483 617 q 626 326 626 458 q 626 301 626 314 q 624 274 625 288 l 161 271 q 229 117 167 164 q 371 69 292 69 q 569 136 489 69 l 619 71 m 519 358 q 474 484 518 436 q 358 532 431 532 q 229 484 285 532 q 163 357 174 436 l 519 358 m 351 681 q 135 847 168 681 l 225 864 q 351 769 240 769 q 479 864 467 769 l 569 847 q 351 681 536 681 z "},"ê":{"ha":682,"x_min":54,"x_max":626,"o":"m 619 71 q 506 1 564 24 q 375 -21 447 -21 q 141 63 228 -21 q 54 299 54 147 q 138 529 54 442 q 357 617 221 617 q 555 538 483 617 q 626 326 626 458 q 626 301 626 314 q 624 274 625 288 l 161 271 q 229 117 167 164 q 371 69 292 69 q 569 136 489 69 l 619 71 m 519 358 q 474 484 518 436 q 358 532 431 532 q 229 484 285 532 q 163 357 174 436 l 519 358 z "},"ế":{"ha":682,"x_min":54,"x_max":633,"o":"m 619 71 q 506 1 564 24 q 375 -21 447 -21 q 141 63 228 -21 q 54 299 54 147 q 138 529 54 442 q 357 617 221 617 q 555 538 483 617 q 626 326 626 458 q 626 301 626 314 q 624 274 625 288 l 161 271 q 229 117 167 164 q 371 69 292 69 q 569 136 489 69 l 619 71 m 519 358 q 474 484 518 436 q 358 532 431 532 q 229 484 285 532 q 163 357 174 436 l 519 358 m 551 1054 l 633 993 l 481 831 l 429 869 l 551 1054 m 356 875 l 563 738 l 531 676 l 356 767 l 181 679 l 143 738 l 356 875 z "},"ệ":{"ha":682,"x_min":54,"x_max":626,"o":"m 619 71 q 506 1 564 24 q 375 -21 447 -21 q 141 63 228 -21 q 54 299 54 147 q 138 529 54 442 q 357 617 221 617 q 555 538 483 617 q 626 326 626 458 q 626 301 626 314 q 624 274 625 288 l 161 271 q 229 117 167 164 q 371 69 292 69 q 569 136 489 69 l 619 71 m 519 358 q 474 484 518 436 q 358 532 431 532 q 229 484 285 532 q 163 357 174 436 l 519 358 z "},"ề":{"ha":682,"x_min":54,"x_max":626,"o":"m 619 71 q 506 1 564 24 q 375 -21 447 -21 q 141 63 228 -21 q 54 299 54 147 q 138 529 54 442 q 357 617 221 617 q 555 538 483 617 q 626 326 626 458 q 626 301 626 314 q 624 274 625 288 l 161 271 q 229 117 167 164 q 371 69 292 69 q 569 136 489 69 l 619 71 m 519 358 q 474 484 518 436 q 358 532 431 532 q 229 484 285 532 q 163 357 174 436 l 519 358 m 497 831 l 343 992 l 425 1053 l 549 869 l 497 831 m 356 875 l 563 738 l 531 676 l 356 767 l 181 679 l 143 738 l 356 875 z "},"ể":{"ha":682,"x_min":54,"x_max":626,"o":"m 619 71 q 506 1 564 24 q 375 -21 447 -21 q 141 63 228 -21 q 54 299 54 147 q 138 529 54 442 q 357 617 221 617 q 555 538 483 617 q 626 326 626 458 q 626 301 626 314 q 624 274 625 288 l 161 271 q 229 117 167 164 q 371 69 292 69 q 569 136 489 69 l 619 71 m 519 358 q 474 484 518 436 q 358 532 431 532 q 229 484 285 532 q 163 357 174 436 l 519 358 z "},"ễ":{"ha":682,"x_min":54,"x_max":626,"o":"m 619 71 q 506 1 564 24 q 375 -21 447 -21 q 141 63 228 -21 q 54 299 54 147 q 138 529 54 442 q 357 617 221 617 q 555 538 483 617 q 626 326 626 458 q 626 301 626 314 q 624 274 625 288 l 161 271 q 229 117 167 164 q 371 69 292 69 q 569 136 489 69 l 619 71 m 519 358 q 474 484 518 436 q 358 532 431 532 q 229 484 285 532 q 163 357 174 436 l 519 358 m 165 917 l 143 985 q 217 1028 186 1014 q 296 1042 249 1042 q 393 1014 358 1042 q 469 986 428 986 q 510 997 492 986 q 560 1032 528 1008 l 586 958 q 518 912 546 924 q 460 899 490 900 q 375 926 414 897 q 293 956 336 956 q 230 946 254 956 q 165 917 206 936 m 356 875 l 563 738 l 531 676 l 356 767 l 181 679 l 143 738 l 356 875 z "},"ȅ":{"ha":682,"x_min":32,"x_max":626,"o":"m 619 71 q 506 1 564 24 q 375 -21 447 -21 q 141 63 228 -21 q 54 299 54 147 q 138 529 54 442 q 357 617 221 617 q 555 538 483 617 q 626 326 626 458 q 626 301 626 314 q 624 274 625 288 l 161 271 q 229 117 167 164 q 371 69 292 69 q 569 136 489 69 l 619 71 m 519 358 q 474 484 518 436 q 358 532 431 532 q 229 484 285 532 q 163 357 174 436 l 519 358 m 332 961 l 507 711 l 456 672 l 250 900 l 332 961 m 100 933 l 318 719 l 275 672 l 32 858 l 100 933 z "},"ë":{"ha":682,"x_min":54,"x_max":626,"o":"m 619 71 q 506 1 564 24 q 375 -21 447 -21 q 141 63 228 -21 q 54 299 54 147 q 138 529 54 442 q 357 617 221 617 q 555 538 483 617 q 626 326 626 458 q 626 301 626 314 q 624 274 625 288 l 161 271 q 229 117 167 164 q 371 69 292 69 q 569 136 489 69 l 619 71 m 519 358 q 474 484 518 436 q 358 532 431 532 q 229 484 285 532 q 163 357 174 436 l 519 358 z "},"ė":{"ha":682,"x_min":54,"x_max":626,"o":"m 619 71 q 506 1 564 24 q 375 -21 447 -21 q 141 63 228 -21 q 54 299 54 147 q 138 529 54 442 q 357 617 221 617 q 555 538 483 617 q 626 326 626 458 q 626 301 626 314 q 624 274 625 288 l 161 271 q 229 117 167 164 q 371 69 292 69 q 569 136 489 69 l 619 71 m 519 358 q 474 484 518 436 q 358 532 431 532 q 229 484 285 532 q 163 357 174 436 l 519 358 m 351 892 q 414 868 390 892 q 438 806 438 844 q 414 743 438 767 q 351 719 390 719 q 267 806 267 719 q 290 868 267 844 q 351 892 313 892 z "},"ẹ":{"ha":682,"x_min":54,"x_max":626,"o":"m 619 71 q 506 1 564 24 q 375 -21 447 -21 q 141 63 228 -21 q 54 299 54 147 q 138 529 54 442 q 357 617 221 617 q 555 538 483 617 q 626 326 626 458 q 626 301 626 314 q 624 274 625 288 l 161 271 q 229 117 167 164 q 371 69 292 69 q 569 136 489 69 l 619 71 m 519 358 q 474 484 518 436 q 358 532 431 532 q 229 484 285 532 q 163 357 174 436 l 519 358 z "},"è":{"ha":682,"x_min":54,"x_max":626,"o":"m 619 71 q 506 1 564 24 q 375 -21 447 -21 q 141 63 228 -21 q 54 299 54 147 q 138 529 54 442 q 357 617 221 617 q 555 538 483 617 q 626 326 626 458 q 626 301 626 314 q 624 274 625 288 l 161 271 q 229 117 167 164 q 371 69 292 69 q 569 136 489 69 l 619 71 m 519 358 q 474 484 518 436 q 358 532 431 532 q 229 484 285 532 q 163 357 174 436 l 519 358 z "},"ẻ":{"ha":682,"x_min":54,"x_max":626,"o":"m 619 71 q 506 1 564 24 q 375 -21 447 -21 q 141 63 228 -21 q 54 299 54 147 q 138 529 54 442 q 357 617 221 617 q 555 538 483 617 q 626 326 626 458 q 626 301 626 314 q 624 274 625 288 l 161 271 q 229 117 167 164 q 371 69 292 69 q 569 136 489 69 l 619 71 m 519 358 q 474 484 518 436 q 358 532 431 532 q 229 484 285 532 q 163 357 174 436 l 519 358 m 367 671 l 332 714 q 378 797 378 751 q 336 839 378 839 q 271 803 301 839 l 222 858 q 353 922 274 922 q 433 893 399 922 q 468 807 468 864 q 445 742 468 775 q 367 671 422 708 z "},"ȇ":{"ha":682,"x_min":54,"x_max":626,"o":"m 619 71 q 506 1 564 24 q 375 -21 447 -21 q 141 63 228 -21 q 54 299 54 147 q 138 529 54 442 q 357 617 221 617 q 555 538 483 617 q 626 326 626 458 q 626 301 626 314 q 624 274 625 288 l 161 271 q 229 117 167 164 q 371 69 292 69 q 569 136 489 69 l 619 71 m 519 358 q 474 484 518 436 q 358 532 431 532 q 229 484 285 532 q 163 357 174 436 l 519 358 z "},"ē":{"ha":682,"x_min":54,"x_max":626,"o":"m 619 71 q 506 1 564 24 q 375 -21 447 -21 q 141 63 228 -21 q 54 299 54 147 q 138 529 54 442 q 357 617 221 617 q 555 538 483 617 q 626 326 626 458 q 626 301 626 314 q 624 274 625 288 l 161 271 q 229 117 167 164 q 371 69 292 69 q 569 136 489 69 l 619 71 m 519 358 q 474 484 518 436 q 358 532 431 532 q 229 484 285 532 q 163 357 174 436 l 519 358 z "},"ḗ":{"ha":682,"x_min":54,"x_max":626,"o":"m 619 71 q 506 1 564 24 q 375 -21 447 -21 q 141 63 228 -21 q 54 299 54 147 q 138 529 54 442 q 357 617 221 617 q 555 538 483 617 q 626 326 626 458 q 626 301 626 314 q 624 274 625 288 l 161 271 q 229 117 167 164 q 371 69 292 69 q 569 136 489 69 l 619 71 m 519 358 q 474 484 518 436 q 358 532 431 532 q 229 484 285 532 q 163 357 174 436 l 519 358 z "},"ḕ":{"ha":682,"x_min":54,"x_max":626,"o":"m 619 71 q 506 1 564 24 q 375 -21 447 -21 q 141 63 228 -21 q 54 299 54 147 q 138 529 54 442 q 357 617 221 617 q 555 538 483 617 q 626 326 626 458 q 626 301 626 314 q 624 274 625 288 l 161 271 q 229 117 167 164 q 371 69 292 69 q 569 136 489 69 l 619 71 m 519 358 q 474 484 518 436 q 358 532 431 532 q 229 484 285 532 q 163 357 174 436 l 519 358 z "},"ę":{"ha":682,"x_min":54,"x_max":626,"o":"m 619 71 q 506 1 564 24 q 375 -21 447 -21 q 141 63 228 -21 q 54 299 54 147 q 138 529 54 442 q 357 617 221 617 q 555 538 483 617 q 626 326 626 458 q 626 301 626 314 q 624 274 625 288 l 161 271 q 229 117 167 164 q 371 69 292 69 q 569 136 489 69 l 619 71 m 519 358 q 474 484 518 436 q 358 532 431 532 q 229 484 285 532 q 163 357 174 436 l 519 358 z "},"ẽ":{"ha":682,"x_min":54,"x_max":626,"o":"m 619 71 q 506 1 564 24 q 375 -21 447 -21 q 141 63 228 -21 q 54 299 54 147 q 138 529 54 442 q 357 617 221 617 q 555 538 483 617 q 626 326 626 458 q 626 301 626 314 q 624 274 625 288 l 161 271 q 229 117 167 164 q 371 69 292 69 q 569 136 489 69 l 619 71 m 519 358 q 474 484 518 436 q 358 532 431 532 q 229 484 285 532 q 163 357 174 436 l 519 358 m 186 690 l 157 763 q 232 806 201 792 q 310 819 263 819 q 407 792 372 819 q 483 764 442 764 q 524 775 507 764 q 574 810 542 786 l 607 732 q 539 685 567 697 q 481 672 511 674 q 396 699 435 669 q 314 729 357 729 q 251 719 275 729 q 186 690 226 708 z "},"ə":{"ha":682,"x_min":56,"x_max":628,"o":"m 63 525 q 176 594 118 572 q 307 617 235 617 q 541 533 454 617 q 628 297 628 449 q 544 67 628 154 q 325 -21 461 -21 q 127 58 199 -21 q 56 269 56 138 q 56 295 56 282 q 58 322 57 308 l 521 325 q 453 479 515 432 q 311 526 390 526 q 113 460 193 526 l 63 525 m 163 238 q 208 112 164 160 q 324 64 251 64 q 453 112 397 64 q 519 239 508 160 l 163 238 z "},"f":{"ha":485,"x_min":50,"x_max":589,"o":"m 167 679 q 232 851 167 789 q 415 914 297 914 q 589 856 522 914 l 546 779 q 408 825 496 825 q 275 657 275 825 l 275 596 l 447 596 l 447 510 l 275 510 l 275 86 l 400 86 l 400 0 l 50 0 l 50 86 l 167 86 l 167 510 l 50 510 l 50 596 l 167 596 l 167 679 z "},"g":{"ha":743,"x_min":32,"x_max":718,"o":"m 318 164 q 119 223 192 164 q 46 386 46 282 q 119 554 46 492 q 319 617 193 617 q 489 578 421 617 l 686 651 l 718 560 l 554 522 q 585 464 575 496 q 596 393 596 432 q 520 226 596 288 q 318 164 444 164 m 329 -310 q 167 -288 263 -310 q 32 -243 72 -267 l 71 -161 q 194 -203 121 -187 q 329 -218 268 -218 q 468 -198 418 -218 q 518 -133 518 -178 q 481 -69 518 -89 q 374 -49 443 -49 l 175 -49 l 175 225 l 281 190 l 281 38 l 403 38 q 569 -3 514 38 q 625 -124 625 -43 q 547 -260 625 -211 q 329 -310 468 -310 m 321 253 q 442 292 397 253 q 486 390 486 331 q 321 528 486 528 q 156 390 156 528 q 200 292 156 331 q 321 253 244 253 z "},"ğ":{"ha":743,"x_min":32,"x_max":718,"o":"m 318 164 q 119 223 192 164 q 46 386 46 282 q 119 554 46 492 q 319 617 193 617 q 489 578 421 617 l 686 651 l 718 560 l 554 522 q 585 464 575 496 q 596 393 596 432 q 520 226 596 288 q 318 164 444 164 m 329 -310 q 167 -288 263 -310 q 32 -243 72 -267 l 71 -161 q 194 -203 121 -187 q 329 -218 268 -218 q 468 -198 418 -218 q 518 -133 518 -178 q 481 -69 518 -89 q 374 -49 443 -49 l 175 -49 l 175 225 l 281 190 l 281 38 l 403 38 q 569 -3 514 38 q 625 -124 625 -43 q 547 -260 625 -211 q 329 -310 468 -310 m 321 253 q 442 292 397 253 q 486 390 486 331 q 321 528 486 528 q 156 390 156 528 q 200 292 156 331 q 321 253 244 253 m 321 681 q 104 847 138 681 l 194 864 q 321 769 210 769 q 449 864 436 769 l 539 847 q 321 681 506 681 z "},"ǧ":{"ha":743,"x_min":32,"x_max":718,"o":"m 318 164 q 119 223 192 164 q 46 386 46 282 q 119 554 46 492 q 319 617 193 617 q 489 578 421 617 l 686 651 l 718 560 l 554 522 q 585 464 575 496 q 596 393 596 432 q 520 226 596 288 q 318 164 444 164 m 329 -310 q 167 -288 263 -310 q 32 -243 72 -267 l 71 -161 q 194 -203 121 -187 q 329 -218 268 -218 q 468 -198 418 -218 q 518 -133 518 -178 q 481 -69 518 -89 q 374 -49 443 -49 l 175 -49 l 175 225 l 281 190 l 281 38 l 403 38 q 569 -3 514 38 q 625 -124 625 -43 q 547 -260 625 -211 q 329 -310 468 -310 m 321 253 q 442 292 397 253 q 486 390 486 331 q 321 528 486 528 q 156 390 156 528 q 200 292 156 331 q 321 253 244 253 z "},"ĝ":{"ha":743,"x_min":32,"x_max":718,"o":"m 318 164 q 119 223 192 164 q 46 386 46 282 q 119 554 46 492 q 319 617 193 617 q 489 578 421 617 l 686 651 l 718 560 l 554 522 q 585 464 575 496 q 596 393 596 432 q 520 226 596 288 q 318 164 444 164 m 329 -310 q 167 -288 263 -310 q 32 -243 72 -267 l 71 -161 q 194 -203 121 -187 q 329 -218 268 -218 q 468 -198 418 -218 q 518 -133 518 -178 q 481 -69 518 -89 q 374 -49 443 -49 l 175 -49 l 175 225 l 281 190 l 281 38 l 403 38 q 569 -3 514 38 q 625 -124 625 -43 q 547 -260 625 -211 q 329 -310 468 -310 m 321 253 q 442 292 397 253 q 486 390 486 331 q 321 528 486 528 q 156 390 156 528 q 200 292 156 331 q 321 253 244 253 z "},"ģ":{"ha":743,"x_min":32,"x_max":718,"o":"m 318 164 q 119 223 192 164 q 46 386 46 282 q 119 554 46 492 q 319 617 193 617 q 489 578 421 617 l 686 651 l 718 560 l 554 522 q 585 464 575 496 q 596 393 596 432 q 520 226 596 288 q 318 164 444 164 m 329 -310 q 167 -288 263 -310 q 32 -243 72 -267 l 71 -161 q 194 -203 121 -187 q 329 -218 268 -218 q 468 -198 418 -218 q 518 -133 518 -178 q 481 -69 518 -89 q 374 -49 443 -49 l 175 -49 l 175 225 l 281 190 l 281 38 l 403 38 q 569 -3 514 38 q 625 -124 625 -43 q 547 -260 625 -211 q 329 -310 468 -310 m 321 253 q 442 292 397 253 q 486 390 486 331 q 321 528 486 528 q 156 390 156 528 q 200 292 156 331 q 321 253 244 253 z "},"ġ":{"ha":743,"x_min":32,"x_max":718,"o":"m 318 164 q 119 223 192 164 q 46 386 46 282 q 119 554 46 492 q 319 617 193 617 q 489 578 421 617 l 686 651 l 718 560 l 554 522 q 585 464 575 496 q 596 393 596 432 q 520 226 596 288 q 318 164 444 164 m 329 -310 q 167 -288 263 -310 q 32 -243 72 -267 l 71 -161 q 194 -203 121 -187 q 329 -218 268 -218 q 468 -198 418 -218 q 518 -133 518 -178 q 481 -69 518 -89 q 374 -49 443 -49 l 175 -49 l 175 225 l 281 190 l 281 38 l 403 38 q 569 -3 514 38 q 625 -124 625 -43 q 547 -260 625 -211 q 329 -310 468 -310 m 321 253 q 442 292 397 253 q 486 390 486 331 q 321 528 486 528 q 156 390 156 528 q 200 292 156 331 q 321 253 244 253 m 321 892 q 383 868 360 892 q 407 806 407 844 q 383 743 407 767 q 321 719 360 719 q 236 806 236 719 q 259 868 236 844 q 321 892 282 892 z "},"ḡ":{"ha":743,"x_min":32,"x_max":718,"o":"m 318 164 q 119 223 192 164 q 46 386 46 282 q 119 554 46 492 q 319 617 193 617 q 489 578 421 617 l 686 651 l 718 560 l 554 522 q 585 464 575 496 q 596 393 596 432 q 520 226 596 288 q 318 164 444 164 m 329 -310 q 167 -288 263 -310 q 32 -243 72 -267 l 71 -161 q 194 -203 121 -187 q 329 -218 268 -218 q 468 -198 418 -218 q 518 -133 518 -178 q 481 -69 518 -89 q 374 -49 443 -49 l 175 -49 l 175 225 l 281 190 l 281 38 l 403 38 q 569 -3 514 38 q 625 -124 625 -43 q 547 -260 625 -211 q 329 -310 468 -310 m 321 253 q 442 292 397 253 q 486 390 486 331 q 321 528 486 528 q 156 390 156 528 q 200 292 156 331 q 321 253 244 253 z "},"h":{"ha":833,"x_min":14,"x_max":801,"o":"m 29 0 l 29 86 l 146 86 l 146 771 l 14 817 l 43 903 l 254 831 l 254 558 q 436 617 344 617 q 624 560 564 617 q 685 382 685 503 l 685 86 l 801 86 l 801 0 l 514 0 l 514 86 l 576 86 l 576 360 q 429 528 576 528 q 254 481 325 528 l 254 86 l 317 86 l 317 0 l 29 0 z "},"ħ":{"ha":833,"x_min":14,"x_max":801,"o":"m 29 0 l 29 86 l 146 86 l 146 771 l 14 817 l 43 903 l 254 831 l 254 538 q 436 596 344 596 q 624 539 564 596 q 685 361 685 482 l 685 86 l 801 86 l 801 0 l 514 0 l 514 86 l 576 86 l 576 339 q 429 507 576 507 q 254 460 325 507 l 254 86 l 317 86 l 317 0 l 29 0 m 21 729 l 447 729 l 447 646 l 21 646 l 21 729 z "},"ḫ":{"ha":833,"x_min":14,"x_max":801,"o":"m 29 0 l 29 86 l 146 86 l 146 771 l 14 817 l 43 903 l 254 831 l 254 558 q 436 617 344 617 q 624 560 564 617 q 685 382 685 503 l 685 86 l 801 86 l 801 0 l 514 0 l 514 86 l 576 86 l 576 360 q 429 528 576 528 q 254 481 325 528 l 254 86 l 317 86 l 317 0 l 29 0 z "},"ĥ":{"ha":833,"x_min":-82,"x_max":801,"o":"m 29 0 l 29 86 l 146 86 l 146 771 l 14 817 l 43 903 l 254 831 l 254 558 q 436 617 344 617 q 624 560 564 617 q 685 382 685 503 l 685 86 l 801 86 l 801 0 l 514 0 l 514 86 l 576 86 l 576 360 q 429 528 576 528 q 254 481 325 528 l 254 86 l 317 86 l 317 0 l 29 0 m 156 1086 l 393 951 l 368 907 l 156 985 l -57 907 l -82 951 l 156 1086 z "},"ḥ":{"ha":833,"x_min":14,"x_max":801,"o":"m 29 0 l 29 86 l 146 86 l 146 771 l 14 817 l 43 903 l 254 831 l 254 558 q 436 617 344 617 q 624 560 564 617 q 685 382 685 503 l 685 86 l 801 86 l 801 0 l 514 0 l 514 86 l 576 86 l 576 360 q 429 528 576 528 q 254 481 325 528 l 254 86 l 317 86 l 317 0 l 29 0 z "},"i":{"ha":422,"x_min":50,"x_max":390,"o":"m 50 596 l 275 596 l 275 86 l 390 86 l 390 0 l 50 0 l 50 86 l 165 86 l 165 510 l 50 510 l 50 596 m 206 892 q 268 868 244 892 q 292 806 292 844 q 268 743 292 767 q 206 719 244 719 q 121 806 121 719 q 144 868 121 844 q 206 892 167 892 z "},"ı":{"ha":422,"x_min":50,"x_max":390,"o":"m 50 596 l 275 596 l 275 86 l 390 86 l 390 0 l 50 0 l 50 86 l 165 86 l 165 510 l 50 510 l 50 596 z "},"í":{"ha":422,"x_min":50,"x_max":390,"o":"m 50 596 l 275 596 l 275 86 l 390 86 l 390 0 l 50 0 l 50 86 l 165 86 l 165 510 l 50 510 l 50 596 z "},"ĭ":{"ha":422,"x_min":17,"x_max":396,"o":"m 50 596 l 275 596 l 275 86 l 390 86 l 390 0 l 50 0 l 50 86 l 165 86 l 165 510 l 50 510 l 50 596 m 206 681 q 17 847 46 681 l 107 864 q 206 769 118 769 q 306 864 297 769 l 396 847 q 206 681 367 681 z "},"î":{"ha":422,"x_min":-3,"x_max":417,"o":"m 50 596 l 275 596 l 275 86 l 390 86 l 390 0 l 50 0 l 50 86 l 165 86 l 165 510 l 50 510 l 50 596 z "},"ȉ":{"ha":422,"x_min":-114,"x_max":390,"o":"m 50 596 l 275 596 l 275 86 l 390 86 l 390 0 l 50 0 l 50 86 l 165 86 l 165 510 l 50 510 l 50 596 m 186 961 l 361 711 l 310 672 l 104 900 l 186 961 m -46 933 l 172 719 l 129 672 l -114 858 l -46 933 z "},"ï":{"ha":422,"x_min":6,"x_max":408,"o":"m 50 596 l 275 596 l 275 86 l 390 86 l 390 0 l 50 0 l 50 86 l 165 86 l 165 510 l 50 510 l 50 596 z "},"ḯ":{"ha":422,"x_min":6,"x_max":408,"o":"m 50 596 l 275 596 l 275 86 l 390 86 l 390 0 l 50 0 l 50 86 l 165 86 l 165 510 l 50 510 l 50 596 z "},"ị":{"ha":422,"x_min":50,"x_max":390,"o":"m 50 596 l 275 596 l 275 86 l 390 86 l 390 0 l 50 0 l 50 86 l 165 86 l 165 510 l 50 510 l 50 596 m 206 892 q 268 868 244 892 q 292 806 292 844 q 268 743 292 767 q 206 719 244 719 q 121 806 121 719 q 144 868 121 844 q 206 892 167 892 z "},"ì":{"ha":422,"x_min":-7,"x_max":390,"o":"m 50 596 l 275 596 l 275 86 l 390 86 l 390 0 l 50 0 l 50 86 l 165 86 l 165 510 l 50 510 l 50 596 z "},"ỉ":{"ha":422,"x_min":50,"x_max":390,"o":"m 50 596 l 275 596 l 275 86 l 390 86 l 390 0 l 50 0 l 50 86 l 165 86 l 165 510 l 50 510 l 50 596 m 221 671 l 186 714 q 232 797 232 751 q 190 839 232 839 q 125 803 156 839 l 76 858 q 207 922 128 922 q 288 893 253 922 q 322 807 322 864 q 299 742 322 775 q 221 671 276 708 z "},"ȋ":{"ha":422,"x_min":24,"x_max":390,"o":"m 50 596 l 275 596 l 275 86 l 390 86 l 390 0 l 50 0 l 50 86 l 165 86 l 165 510 l 50 510 l 50 596 m 206 878 q 389 711 365 878 l 310 694 q 206 789 301 789 q 103 694 111 789 l 24 711 q 206 878 47 878 z "},"ī":{"ha":422,"x_min":40,"x_max":390,"o":"m 50 596 l 275 596 l 275 86 l 390 86 l 390 0 l 50 0 l 50 86 l 165 86 l 165 510 l 50 510 l 50 596 m 40 818 l 372 818 l 372 736 l 40 736 l 40 818 z "},"į":{"ha":422,"x_min":50,"x_max":390,"o":"m 50 596 l 275 596 l 275 86 l 390 86 l 390 0 l 50 0 l 50 86 l 165 86 l 165 510 l 50 510 l 50 596 m 206 892 q 268 868 244 892 q 292 806 292 844 q 268 743 292 767 q 206 719 244 719 q 121 806 121 719 q 144 868 121 844 q 206 892 167 892 z "},"ĩ":{"ha":422,"x_min":35,"x_max":415,"o":"m 50 596 l 275 596 l 275 86 l 390 86 l 390 0 l 50 0 l 50 86 l 165 86 l 165 510 l 50 510 l 50 596 m 63 690 l 35 763 q 97 806 71 792 q 164 819 124 819 q 242 792 213 819 q 307 764 272 764 q 344 775 328 764 q 386 810 360 786 l 415 732 q 358 685 383 697 q 301 672 332 674 q 231 699 263 669 q 163 729 200 729 q 115 719 135 729 q 63 690 96 708 z "},"j":{"ha":353,"x_min":-64,"x_max":275,"o":"m 257 -43 q 246 -162 257 -100 q 182 -267 235 -225 q 4 -310 129 -310 q -31 -308 -10 -310 q -64 -304 -51 -306 l -50 -219 q -22 -222 -36 -221 q 8 -222 -8 -222 q 113 -194 83 -222 q 145 -126 142 -165 q 149 -51 149 -86 l 149 510 l 32 510 l 32 596 l 257 596 l 257 -43 m 189 892 q 251 868 228 892 q 275 806 275 844 q 251 743 275 767 q 189 719 228 719 q 104 806 104 719 q 127 868 104 844 q 189 892 150 892 z "},"ȷ":{"ha":353,"x_min":-64,"x_max":257,"o":"m 257 -43 q 246 -162 257 -100 q 182 -267 235 -225 q 4 -310 129 -310 q -31 -308 -10 -310 q -64 -304 -51 -306 l -50 -219 q -22 -222 -36 -221 q 8 -222 -8 -222 q 113 -194 83 -222 q 145 -126 142 -165 q 149 -51 149 -86 l 149 510 l 32 510 l 32 596 l 257 596 l 257 -43 z "},"ĵ":{"ha":353,"x_min":-64,"x_max":400,"o":"m 257 -43 q 246 -162 257 -100 q 182 -267 235 -225 q 4 -310 129 -310 q -31 -308 -10 -310 q -64 -304 -51 -306 l -50 -219 q -22 -222 -36 -221 q 8 -222 -8 -222 q 113 -194 83 -222 q 145 -126 142 -165 q 149 -51 149 -86 l 149 510 l 32 510 l 32 596 l 257 596 l 257 -43 z "},"k":{"ha":765,"x_min":17,"x_max":721,"o":"m 46 904 l 257 832 l 257 346 l 383 346 l 479 510 l 407 510 l 407 596 l 699 596 l 699 510 l 582 510 l 467 311 l 601 86 l 721 86 l 721 0 l 536 0 l 379 260 l 257 260 l 257 86 l 319 86 l 319 0 l 32 0 l 32 86 l 149 86 l 149 772 l 17 818 l 46 904 z "},"ķ":{"ha":765,"x_min":17,"x_max":721,"o":"m 46 904 l 257 832 l 257 346 l 383 346 l 479 510 l 407 510 l 407 596 l 699 596 l 699 510 l 582 510 l 467 311 l 601 86 l 721 86 l 721 0 l 536 0 l 379 260 l 257 260 l 257 86 l 319 86 l 319 0 l 32 0 l 32 86 l 149 86 l 149 772 l 17 818 l 46 904 z "},"ĸ":{"ha":792,"x_min":58,"x_max":747,"o":"m 58 596 l 346 596 l 346 510 l 283 510 l 283 338 l 410 338 l 518 510 l 447 510 l 447 596 l 739 596 l 739 510 l 622 510 l 493 303 l 628 86 l 747 86 l 747 0 l 560 0 l 404 251 l 283 251 l 283 86 l 346 86 l 346 0 l 58 0 l 58 86 l 175 86 l 175 510 l 58 510 l 58 596 z "},"l":{"ha":406,"x_min":10,"x_max":374,"o":"m 32 0 l 32 86 l 149 86 l 149 786 l 10 817 l 33 906 l 257 854 l 257 86 l 374 86 l 374 0 l 32 0 z "},"ĺ":{"ha":406,"x_min":10,"x_max":421,"o":"m 32 0 l 32 86 l 149 86 l 149 786 l 10 817 l 33 906 l 257 854 l 257 86 l 374 86 l 374 0 l 32 0 m 396 1117 l 421 1015 l 71 950 l 58 1000 l 396 1117 z "},"ľ":{"ha":406,"x_min":-25,"x_max":394,"o":"m 32 0 l 32 86 l 149 86 l 149 689 l 10 719 l 33 808 l 257 757 l 257 86 l 374 86 l 374 0 l 32 0 m 0 1029 l 185 938 l 369 1029 l 394 985 l 185 836 l -25 985 l 0 1029 z "},"ļ":{"ha":406,"x_min":10,"x_max":374,"o":"m 32 0 l 32 86 l 149 86 l 149 786 l 10 817 l 33 906 l 257 854 l 257 86 l 374 86 l 374 0 l 32 0 z "},"ŀ":{"ha":503,"x_min":10,"x_max":475,"o":"m 32 0 l 32 86 l 149 86 l 149 786 l 10 817 l 33 906 l 257 854 l 257 86 l 374 86 l 374 0 l 32 0 m 390 492 q 450 467 425 492 q 475 406 475 442 q 450 344 475 369 q 390 319 425 319 q 330 344 356 319 q 304 406 304 369 q 330 467 304 442 q 390 492 356 492 z "},"ḷ":{"ha":406,"x_min":10,"x_max":374,"o":"m 32 0 l 32 86 l 149 86 l 149 786 l 10 817 l 33 906 l 257 854 l 257 86 l 374 86 l 374 0 l 32 0 z "},"ḻ":{"ha":406,"x_min":-11,"x_max":415,"o":"m 32 0 l 32 86 l 149 86 l 149 786 l 10 817 l 33 906 l 257 854 l 257 86 l 374 86 l 374 0 l 32 0 m -11 -56 l 415 -56 l 415 -142 l -11 -142 l -11 -56 z "},"ł":{"ha":406,"x_min":10,"x_max":374,"o":"m 51 365 l 361 631 l 361 531 l 51 265 l 51 365 m 32 0 l 32 86 l 149 86 l 149 786 l 10 817 l 33 906 l 257 854 l 257 86 l 374 86 l 374 0 l 32 0 z "},"m":{"ha":1226,"x_min":42,"x_max":1194,"o":"m 58 0 l 58 86 l 175 86 l 175 485 l 42 531 l 71 617 l 254 553 q 442 617 339 617 q 562 599 511 617 q 642 544 613 581 q 731 597 676 576 q 839 617 786 617 q 1022 561 965 617 q 1078 382 1078 506 l 1078 86 l 1194 86 l 1194 0 l 907 0 l 907 86 l 969 86 l 969 360 q 938 490 969 451 q 832 528 907 528 q 681 481 731 528 l 681 86 l 743 86 l 743 0 l 510 0 l 510 86 l 572 86 l 572 360 q 541 490 572 451 q 435 528 510 528 q 283 481 333 528 l 283 86 l 346 86 l 346 0 l 58 0 z "},"ṃ":{"ha":1226,"x_min":42,"x_max":1194,"o":"m 58 0 l 58 86 l 175 86 l 175 485 l 42 531 l 71 617 l 254 553 q 442 617 339 617 q 562 599 511 617 q 642 544 613 581 q 731 597 676 576 q 839 617 786 617 q 1022 561 965 617 q 1078 382 1078 506 l 1078 86 l 1194 86 l 1194 0 l 907 0 l 907 86 l 969 86 l 969 360 q 938 490 969 451 q 832 528 907 528 q 681 481 731 528 l 681 86 l 743 86 l 743 0 l 510 0 l 510 86 l 572 86 l 572 360 q 541 490 572 451 q 435 528 510 528 q 283 481 333 528 l 283 86 l 346 86 l 346 0 l 58 0 z "},"n":{"ha":863,"x_min":42,"x_max":831,"o":"m 58 0 l 58 86 l 175 86 l 175 485 l 42 531 l 71 617 l 256 553 q 359 601 304 585 q 467 617 414 617 q 640 558 565 617 q 714 382 714 500 l 714 86 l 831 86 l 831 0 l 543 0 l 543 86 l 606 86 l 606 360 q 560 488 606 449 q 449 528 515 528 q 367 515 410 528 q 283 481 325 503 l 283 86 l 346 86 l 346 0 l 58 0 z "},"ń":{"ha":863,"x_min":42,"x_max":831,"o":"m 58 0 l 58 86 l 175 86 l 175 485 l 42 531 l 71 617 l 256 553 q 359 601 304 585 q 467 617 414 617 q 640 558 565 617 q 714 382 714 500 l 714 86 l 831 86 l 831 0 l 543 0 l 543 86 l 606 86 l 606 360 q 560 488 606 449 q 449 528 515 528 q 367 515 410 528 q 283 481 325 503 l 283 86 l 346 86 l 346 0 l 58 0 z "},"ň":{"ha":863,"x_min":42,"x_max":831,"o":"m 58 0 l 58 86 l 175 86 l 175 485 l 42 531 l 71 617 l 256 553 q 359 601 304 585 q 467 617 414 617 q 640 558 565 617 q 714 382 714 500 l 714 86 l 831 86 l 831 0 l 543 0 l 543 86 l 606 86 l 606 360 q 560 488 606 449 q 449 528 515 528 q 367 515 410 528 q 283 481 325 503 l 283 86 l 346 86 l 346 0 l 58 0 z "},"ņ":{"ha":863,"x_min":42,"x_max":831,"o":"m 58 0 l 58 86 l 175 86 l 175 485 l 42 531 l 71 617 l 256 553 q 359 601 304 585 q 467 617 414 617 q 640 558 565 617 q 714 382 714 500 l 714 86 l 831 86 l 831 0 l 543 0 l 543 86 l 606 86 l 606 360 q 560 488 606 449 q 449 528 515 528 q 367 515 410 528 q 283 481 325 503 l 283 86 l 346 86 l 346 0 l 58 0 z "},"ṅ":{"ha":863,"x_min":42,"x_max":831,"o":"m 58 0 l 58 86 l 175 86 l 175 485 l 42 531 l 71 617 l 256 553 q 359 601 304 585 q 467 617 414 617 q 640 558 565 617 q 714 382 714 500 l 714 86 l 831 86 l 831 0 l 543 0 l 543 86 l 606 86 l 606 360 q 560 488 606 449 q 449 528 515 528 q 367 515 410 528 q 283 481 325 503 l 283 86 l 346 86 l 346 0 l 58 0 m 424 892 q 486 868 463 892 q 510 806 510 844 q 486 743 510 767 q 424 719 463 719 q 339 806 339 719 q 362 868 339 844 q 424 892 385 892 z "},"ṇ":{"ha":863,"x_min":42,"x_max":831,"o":"m 58 0 l 58 86 l 175 86 l 175 485 l 42 531 l 71 617 l 256 553 q 359 601 304 585 q 467 617 414 617 q 640 558 565 617 q 714 382 714 500 l 714 86 l 831 86 l 831 0 l 543 0 l 543 86 l 606 86 l 606 360 q 560 488 606 449 q 449 528 515 528 q 367 515 410 528 q 283 481 325 503 l 283 86 l 346 86 l 346 0 l 58 0 z "},"ŋ":{"ha":783,"x_min":42,"x_max":714,"o":"m 467 617 q 646 553 578 617 q 714 382 714 489 l 714 29 q 653 -222 714 -133 q 482 -310 593 -310 q 315 -271 407 -310 l 340 -185 q 407 -204 375 -197 q 465 -211 439 -211 q 570 -160 535 -211 q 606 1 606 -110 l 606 360 q 449 528 606 528 q 283 481 369 528 l 283 86 l 346 86 l 346 0 l 58 0 l 58 86 l 175 86 l 175 485 l 42 531 l 71 617 l 256 553 q 357 600 303 583 q 467 617 411 617 z "},"ṉ":{"ha":863,"x_min":42,"x_max":831,"o":"m 58 0 l 58 86 l 175 86 l 175 485 l 42 531 l 71 617 l 256 553 q 359 601 304 585 q 467 617 414 617 q 640 558 565 617 q 714 382 714 500 l 714 86 l 831 86 l 831 0 l 543 0 l 543 86 l 606 86 l 606 360 q 560 488 606 449 q 449 528 515 528 q 367 515 410 528 q 283 481 325 503 l 283 86 l 346 86 l 346 0 l 58 0 m 211 -56 l 638 -56 l 638 -142 l 211 -142 l 211 -56 z "},"ñ":{"ha":863,"x_min":42,"x_max":831,"o":"m 58 0 l 58 86 l 175 86 l 175 485 l 42 531 l 71 617 l 256 553 q 359 601 304 585 q 467 617 414 617 q 640 558 565 617 q 714 382 714 500 l 714 86 l 831 86 l 831 0 l 543 0 l 543 86 l 606 86 l 606 360 q 560 488 606 449 q 449 528 515 528 q 367 515 410 528 q 283 481 325 503 l 283 86 l 346 86 l 346 0 l 58 0 m 258 690 l 229 763 q 304 806 274 792 q 382 819 335 819 q 479 792 444 819 q 556 764 514 764 q 597 775 579 764 q 646 810 614 786 l 679 732 q 611 685 639 697 q 553 672 583 674 q 468 699 507 669 q 386 729 429 729 q 323 719 347 729 q 258 690 299 708 z "},"o":{"ha":724,"x_min":57,"x_max":668,"o":"m 360 617 q 583 531 499 617 q 668 297 668 446 q 583 64 668 149 q 360 -21 499 -21 q 141 64 225 -21 q 57 297 57 149 q 141 531 57 446 q 360 617 225 617 m 361 528 q 217 467 265 528 q 168 297 168 407 q 361 68 168 68 q 557 297 557 68 q 508 467 557 407 q 361 528 458 528 z "},"ó":{"ha":724,"x_min":57,"x_max":668,"o":"m 360 617 q 583 531 499 617 q 668 297 668 446 q 583 64 668 149 q 360 -21 499 -21 q 141 64 225 -21 q 57 297 57 149 q 141 531 57 446 q 360 617 225 617 m 361 528 q 217 467 265 528 q 168 297 168 407 q 361 68 168 68 q 557 297 557 68 q 508 467 557 407 q 361 528 458 528 z "},"ŏ":{"ha":724,"x_min":57,"x_max":668,"o":"m 360 617 q 583 531 499 617 q 668 297 668 446 q 583 64 668 149 q 360 -21 499 -21 q 141 64 225 -21 q 57 297 57 149 q 141 531 57 446 q 360 617 225 617 m 361 528 q 217 467 265 528 q 168 297 168 407 q 361 68 168 68 q 557 297 557 68 q 508 467 557 407 q 361 528 458 528 m 361 681 q 144 847 178 681 l 235 864 q 361 769 250 769 q 489 864 476 769 l 579 847 q 361 681 546 681 z "},"ô":{"ha":724,"x_min":57,"x_max":668,"o":"m 360 617 q 583 531 499 617 q 668 297 668 446 q 583 64 668 149 q 360 -21 499 -21 q 141 64 225 -21 q 57 297 57 149 q 141 531 57 446 q 360 617 225 617 m 361 528 q 217 467 265 528 q 168 297 168 407 q 361 68 168 68 q 557 297 557 68 q 508 467 557 407 q 361 528 458 528 z "},"ố":{"ha":724,"x_min":57,"x_max":668,"o":"m 360 617 q 583 531 499 617 q 668 297 668 446 q 583 64 668 149 q 360 -21 499 -21 q 141 64 225 -21 q 57 297 57 149 q 141 531 57 446 q 360 617 225 617 m 361 528 q 217 467 265 528 q 168 297 168 407 q 361 68 168 68 q 557 297 557 68 q 508 467 557 407 q 361 528 458 528 m 561 1054 l 643 993 l 490 831 l 439 869 l 561 1054 m 365 875 l 572 738 l 540 676 l 365 767 l 190 679 l 153 738 l 365 875 z "},"ộ":{"ha":724,"x_min":57,"x_max":668,"o":"m 360 617 q 583 531 499 617 q 668 297 668 446 q 583 64 668 149 q 360 -21 499 -21 q 141 64 225 -21 q 57 297 57 149 q 141 531 57 446 q 360 617 225 617 m 361 528 q 217 467 265 528 q 168 297 168 407 q 361 68 168 68 q 557 297 557 68 q 508 467 557 407 q 361 528 458 528 z "},"ồ":{"ha":724,"x_min":57,"x_max":668,"o":"m 360 617 q 583 531 499 617 q 668 297 668 446 q 583 64 668 149 q 360 -21 499 -21 q 141 64 225 -21 q 57 297 57 149 q 141 531 57 446 q 360 617 225 617 m 361 528 q 217 467 265 528 q 168 297 168 407 q 361 68 168 68 q 557 297 557 68 q 508 467 557 407 q 361 528 458 528 m 507 831 l 353 992 l 435 1053 l 558 869 l 507 831 m 365 875 l 572 738 l 540 676 l 365 767 l 190 679 l 153 738 l 365 875 z "},"ổ":{"ha":724,"x_min":57,"x_max":668,"o":"m 360 617 q 583 531 499 617 q 668 297 668 446 q 583 64 668 149 q 360 -21 499 -21 q 141 64 225 -21 q 57 297 57 149 q 141 531 57 446 q 360 617 225 617 m 361 528 q 217 467 265 528 q 168 297 168 407 q 361 68 168 68 q 557 297 557 68 q 508 467 557 407 q 361 528 458 528 z "},"ỗ":{"ha":724,"x_min":57,"x_max":668,"o":"m 360 617 q 583 531 499 617 q 668 297 668 446 q 583 64 668 149 q 360 -21 499 -21 q 141 64 225 -21 q 57 297 57 149 q 141 531 57 446 q 360 617 225 617 m 361 528 q 217 467 265 528 q 168 297 168 407 q 361 68 168 68 q 557 297 557 68 q 508 467 557 407 q 361 528 458 528 m 175 917 l 153 985 q 227 1028 196 1014 q 306 1042 258 1042 q 403 1014 368 1042 q 479 986 438 986 q 519 997 501 986 q 569 1032 538 1008 l 596 958 q 528 912 556 924 q 469 899 500 900 q 385 926 424 897 q 303 956 346 956 q 240 946 264 956 q 175 917 215 936 m 365 875 l 572 738 l 540 676 l 365 767 l 190 679 l 153 738 l 365 875 z "},"ȍ":{"ha":724,"x_min":42,"x_max":668,"o":"m 360 617 q 583 531 499 617 q 668 297 668 446 q 583 64 668 149 q 360 -21 499 -21 q 141 64 225 -21 q 57 297 57 149 q 141 531 57 446 q 360 617 225 617 m 361 528 q 217 467 265 528 q 168 297 168 407 q 361 68 168 68 q 557 297 557 68 q 508 467 557 407 q 361 528 458 528 m 342 961 l 517 711 l 465 672 l 260 900 l 342 961 m 110 933 l 328 719 l 285 672 l 42 858 l 110 933 z "},"ö":{"ha":724,"x_min":57,"x_max":668,"o":"m 360 617 q 583 531 499 617 q 668 297 668 446 q 583 64 668 149 q 360 -21 499 -21 q 141 64 225 -21 q 57 297 57 149 q 141 531 57 446 q 360 617 225 617 m 361 528 q 217 467 265 528 q 168 297 168 407 q 361 68 168 68 q 557 297 557 68 q 508 467 557 407 q 361 528 458 528 z "},"ȫ":{"ha":724,"x_min":57,"x_max":668,"o":"m 360 617 q 583 531 499 617 q 668 297 668 446 q 583 64 668 149 q 360 -21 499 -21 q 141 64 225 -21 q 57 297 57 149 q 141 531 57 446 q 360 617 225 617 m 361 528 q 217 467 265 528 q 168 297 168 407 q 361 68 168 68 q 557 297 557 68 q 508 467 557 407 q 361 528 458 528 z "},"ȱ":{"ha":724,"x_min":57,"x_max":668,"o":"m 360 617 q 583 531 499 617 q 668 297 668 446 q 583 64 668 149 q 360 -21 499 -21 q 141 64 225 -21 q 57 297 57 149 q 141 531 57 446 q 360 617 225 617 m 361 528 q 217 467 265 528 q 168 297 168 407 q 361 68 168 68 q 557 297 557 68 q 508 467 557 407 q 361 528 458 528 m 361 892 q 424 868 400 892 q 447 806 447 844 q 424 743 447 767 q 361 719 400 719 q 276 806 276 719 q 299 868 276 844 q 361 892 322 892 z "},"ọ":{"ha":724,"x_min":57,"x_max":668,"o":"m 360 617 q 583 531 499 617 q 668 297 668 446 q 583 64 668 149 q 360 -21 499 -21 q 141 64 225 -21 q 57 297 57 149 q 141 531 57 446 q 360 617 225 617 m 361 528 q 217 467 265 528 q 168 297 168 407 q 361 68 168 68 q 557 297 557 68 q 508 467 557 407 q 361 528 458 528 z "},"ò":{"ha":724,"x_min":57,"x_max":668,"o":"m 360 617 q 583 531 499 617 q 668 297 668 446 q 583 64 668 149 q 360 -21 499 -21 q 141 64 225 -21 q 57 297 57 149 q 141 531 57 446 q 360 617 225 617 m 361 528 q 217 467 265 528 q 168 297 168 407 q 361 68 168 68 q 557 297 557 68 q 508 467 557 407 q 361 528 458 528 z "},"ỏ":{"ha":724,"x_min":57,"x_max":668,"o":"m 360 617 q 583 531 499 617 q 668 297 668 446 q 583 64 668 149 q 360 -21 499 -21 q 141 64 225 -21 q 57 297 57 149 q 141 531 57 446 q 360 617 225 617 m 361 528 q 217 467 265 528 q 168 297 168 407 q 361 68 168 68 q 557 297 557 68 q 508 467 557 407 q 361 528 458 528 m 376 671 l 342 714 q 388 797 388 751 q 346 839 388 839 q 281 803 311 839 l 232 858 q 363 922 283 922 q 443 893 408 922 q 478 807 478 864 q 455 742 478 775 q 376 671 432 708 z "},"ơ":{"ha":724,"x_min":57,"x_max":668,"o":"m 360 617 q 583 531 499 617 q 668 297 668 446 q 583 64 668 149 q 360 -21 499 -21 q 141 64 225 -21 q 57 297 57 149 q 141 531 57 446 q 360 617 225 617 m 361 528 q 217 467 265 528 q 168 297 168 407 q 361 68 168 68 q 557 297 557 68 q 508 467 557 407 q 361 528 458 528 m 479 510 l 479 596 q 575 706 575 596 l 661 706 q 479 510 661 510 z "},"ớ":{"ha":724,"x_min":57,"x_max":668,"o":"m 360 617 q 583 531 499 617 q 668 297 668 446 q 583 64 668 149 q 360 -21 499 -21 q 141 64 225 -21 q 57 297 57 149 q 141 531 57 446 q 360 617 225 617 m 361 528 q 217 467 265 528 q 168 297 168 407 q 361 68 168 68 q 557 297 557 68 q 508 467 557 407 q 361 528 458 528 m 479 510 l 479 596 q 575 706 575 596 l 661 706 q 479 510 661 510 z "},"ợ":{"ha":724,"x_min":57,"x_max":668,"o":"m 360 617 q 583 531 499 617 q 668 297 668 446 q 583 64 668 149 q 360 -21 499 -21 q 141 64 225 -21 q 57 297 57 149 q 141 531 57 446 q 360 617 225 617 m 361 528 q 217 467 265 528 q 168 297 168 407 q 361 68 168 68 q 557 297 557 68 q 508 467 557 407 q 361 528 458 528 m 479 510 l 479 596 q 575 706 575 596 l 661 706 q 479 510 661 510 z "},"ờ":{"ha":724,"x_min":57,"x_max":668,"o":"m 360 617 q 583 531 499 617 q 668 297 668 446 q 583 64 668 149 q 360 -21 499 -21 q 141 64 225 -21 q 57 297 57 149 q 141 531 57 446 q 360 617 225 617 m 361 528 q 217 467 265 528 q 168 297 168 407 q 361 68 168 68 q 557 297 557 68 q 508 467 557 407 q 361 528 458 528 m 479 510 l 479 596 q 575 706 575 596 l 661 706 q 479 510 661 510 z "},"ở":{"ha":724,"x_min":57,"x_max":668,"o":"m 360 617 q 583 531 499 617 q 668 297 668 446 q 583 64 668 149 q 360 -21 499 -21 q 141 64 225 -21 q 57 297 57 149 q 141 531 57 446 q 360 617 225 617 m 361 528 q 217 467 265 528 q 168 297 168 407 q 361 68 168 68 q 557 297 557 68 q 508 467 557 407 q 361 528 458 528 m 479 510 l 479 596 q 575 706 575 596 l 661 706 q 479 510 661 510 m 376 671 l 342 714 q 388 797 388 751 q 346 839 388 839 q 281 803 311 839 l 232 858 q 363 922 283 922 q 443 893 408 922 q 478 807 478 864 q 455 742 478 775 q 376 671 432 708 z "},"ỡ":{"ha":724,"x_min":57,"x_max":668,"o":"m 360 617 q 583 531 499 617 q 668 297 668 446 q 583 64 668 149 q 360 -21 499 -21 q 141 64 225 -21 q 57 297 57 149 q 141 531 57 446 q 360 617 225 617 m 361 528 q 217 467 265 528 q 168 297 168 407 q 361 68 168 68 q 557 297 557 68 q 508 467 557 407 q 361 528 458 528 m 479 510 l 479 596 q 575 706 575 596 l 661 706 q 479 510 661 510 m 196 690 l 167 763 q 242 806 211 792 q 319 819 272 819 q 417 792 382 819 q 493 764 451 764 q 534 775 517 764 q 583 810 551 786 l 617 732 q 549 685 576 697 q 490 672 521 674 q 406 699 444 669 q 324 729 367 729 q 260 719 285 729 q 196 690 236 708 z "},"ő":{"ha":724,"x_min":57,"x_max":692,"o":"m 360 617 q 583 531 499 617 q 668 297 668 446 q 583 64 668 149 q 360 -21 499 -21 q 141 64 225 -21 q 57 297 57 149 q 141 531 57 446 q 360 617 225 617 m 361 528 q 217 467 265 528 q 168 297 168 407 q 361 68 168 68 q 557 297 557 68 q 508 467 557 407 q 361 528 458 528 m 392 961 l 474 900 l 268 672 l 217 711 l 392 961 m 624 933 l 692 858 l 449 672 l 406 719 l 624 933 z "},"ȏ":{"ha":724,"x_min":57,"x_max":668,"o":"m 360 617 q 583 531 499 617 q 668 297 668 446 q 583 64 668 149 q 360 -21 499 -21 q 141 64 225 -21 q 57 297 57 149 q 141 531 57 446 q 360 617 225 617 m 361 528 q 217 467 265 528 q 168 297 168 407 q 361 68 168 68 q 557 297 557 68 q 508 467 557 407 q 361 528 458 528 z "},"ō":{"ha":724,"x_min":57,"x_max":668,"o":"m 360 617 q 583 531 499 617 q 668 297 668 446 q 583 64 668 149 q 360 -21 499 -21 q 141 64 225 -21 q 57 297 57 149 q 141 531 57 446 q 360 617 225 617 m 361 528 q 217 467 265 528 q 168 297 168 407 q 361 68 168 68 q 557 297 557 68 q 508 467 557 407 q 361 528 458 528 z "},"ṓ":{"ha":724,"x_min":57,"x_max":668,"o":"m 360 617 q 583 531 499 617 q 668 297 668 446 q 583 64 668 149 q 360 -21 499 -21 q 141 64 225 -21 q 57 297 57 149 q 141 531 57 446 q 360 617 225 617 m 361 528 q 217 467 265 528 q 168 297 168 407 q 361 68 168 68 q 557 297 557 68 q 508 467 557 407 q 361 528 458 528 z "},"ṑ":{"ha":724,"x_min":57,"x_max":668,"o":"m 360 617 q 583 531 499 617 q 668 297 668 446 q 583 64 668 149 q 360 -21 499 -21 q 141 64 225 -21 q 57 297 57 149 q 141 531 57 446 q 360 617 225 617 m 361 528 q 217 467 265 528 q 168 297 168 407 q 361 68 168 68 q 557 297 557 68 q 508 467 557 407 q 361 528 458 528 z "},"ǫ":{"ha":724,"x_min":57,"x_max":668,"o":"m 360 617 q 583 531 499 617 q 668 297 668 446 q 583 64 668 149 q 360 -21 499 -21 q 141 64 225 -21 q 57 297 57 149 q 141 531 57 446 q 360 617 225 617 m 361 528 q 217 467 265 528 q 168 297 168 407 q 361 68 168 68 q 557 297 557 68 q 508 467 557 407 q 361 528 458 528 z "},"ø":{"ha":724,"x_min":57,"x_max":668,"o":"m 235 -96 l 165 -96 l 493 693 l 563 693 l 235 -96 m 360 617 q 583 531 499 617 q 668 297 668 446 q 583 64 668 149 q 360 -21 499 -21 q 141 64 225 -21 q 57 297 57 149 q 141 531 57 446 q 360 617 225 617 m 361 528 q 217 467 265 528 q 168 297 168 407 q 361 68 168 68 q 557 297 557 68 q 508 467 557 407 q 361 528 458 528 z "},"ǿ":{"ha":724,"x_min":57,"x_max":668,"o":"m 235 -96 l 165 -96 l 493 693 l 563 693 l 235 -96 m 360 617 q 583 531 499 617 q 668 297 668 446 q 583 64 668 149 q 360 -21 499 -21 q 141 64 225 -21 q 57 297 57 149 q 141 531 57 446 q 360 617 225 617 m 361 528 q 217 467 265 528 q 168 297 168 407 q 361 68 168 68 q 557 297 557 68 q 508 467 557 407 q 361 528 458 528 z "},"õ":{"ha":724,"x_min":57,"x_max":668,"o":"m 360 617 q 583 531 499 617 q 668 297 668 446 q 583 64 668 149 q 360 -21 499 -21 q 141 64 225 -21 q 57 297 57 149 q 141 531 57 446 q 360 617 225 617 m 361 528 q 217 467 265 528 q 168 297 168 407 q 361 68 168 68 q 557 297 557 68 q 508 467 557 407 q 361 528 458 528 m 196 690 l 167 763 q 242 806 211 792 q 319 819 272 819 q 417 792 382 819 q 493 764 451 764 q 534 775 517 764 q 583 810 551 786 l 617 732 q 549 685 576 697 q 490 672 521 674 q 406 699 444 669 q 324 729 367 729 q 260 719 285 729 q 196 690 236 708 z "},"ṍ":{"ha":724,"x_min":57,"x_max":668,"o":"m 360 617 q 583 531 499 617 q 668 297 668 446 q 583 64 668 149 q 360 -21 499 -21 q 141 64 225 -21 q 57 297 57 149 q 141 531 57 446 q 360 617 225 617 m 361 528 q 217 467 265 528 q 168 297 168 407 q 361 68 168 68 q 557 297 557 68 q 508 467 557 407 q 361 528 458 528 m 196 690 l 167 763 q 242 806 211 792 q 319 819 272 819 q 417 792 382 819 q 493 764 451 764 q 534 775 517 764 q 583 810 551 786 l 617 732 q 549 685 576 697 q 490 672 521 674 q 406 699 444 669 q 324 729 367 729 q 260 719 285 729 q 196 690 236 708 z "},"ṏ":{"ha":724,"x_min":57,"x_max":668,"o":"m 360 617 q 583 531 499 617 q 668 297 668 446 q 583 64 668 149 q 360 -21 499 -21 q 141 64 225 -21 q 57 297 57 149 q 141 531 57 446 q 360 617 225 617 m 361 528 q 217 467 265 528 q 168 297 168 407 q 361 68 168 68 q 557 297 557 68 q 508 467 557 407 q 361 528 458 528 m 196 690 l 167 763 q 242 806 211 792 q 319 819 272 819 q 417 792 382 819 q 493 764 451 764 q 534 775 517 764 q 583 810 551 786 l 617 732 q 549 685 576 697 q 490 672 521 674 q 406 699 444 669 q 324 729 367 729 q 260 719 285 729 q 196 690 236 708 z "},"ȭ":{"ha":724,"x_min":57,"x_max":668,"o":"m 360 617 q 583 531 499 617 q 668 297 668 446 q 583 64 668 149 q 360 -21 499 -21 q 141 64 225 -21 q 57 297 57 149 q 141 531 57 446 q 360 617 225 617 m 361 528 q 217 467 265 528 q 168 297 168 407 q 361 68 168 68 q 557 297 557 68 q 508 467 557 407 q 361 528 458 528 m 196 690 l 167 763 q 242 806 211 792 q 319 819 272 819 q 417 792 382 819 q 493 764 451 764 q 534 775 517 764 q 583 810 551 786 l 617 732 q 549 685 576 697 q 490 672 521 674 q 406 699 444 669 q 324 729 367 729 q 260 719 285 729 q 196 690 236 708 z "},"œ":{"ha":1046,"x_min":56,"x_max":986,"o":"m 986 71 q 956 47 986 69 q 867 2 925 25 q 724 -21 808 -21 q 535 38 613 -21 q 456 -3 501 14 q 358 -21 411 -21 q 140 70 224 -21 q 56 310 56 161 q 143 531 56 444 q 358 617 231 617 q 469 602 421 617 q 551 569 517 588 q 724 617 625 617 q 905 559 825 617 q 985 339 985 501 q 984 307 985 324 q 981 272 983 290 l 533 269 q 725 68 544 68 q 879 102 822 68 q 936 136 936 136 l 986 71 m 360 528 q 219 466 271 528 q 167 311 167 404 q 215 135 167 201 q 360 68 264 68 q 424 77 394 68 q 476 99 453 86 q 435 187 450 138 q 421 297 421 236 q 437 414 421 361 q 483 507 453 467 q 433 521 464 514 q 360 528 401 528 m 886 357 q 844 484 885 440 q 725 528 803 528 q 535 356 561 528 l 886 357 z "},"p":{"ha":779,"x_min":28,"x_max":724,"o":"m 42 -289 l 42 -203 l 158 -203 l 158 489 l 28 532 l 56 621 l 242 557 q 426 617 336 617 q 644 536 564 617 q 724 317 724 456 q 640 74 724 168 q 421 -21 556 -21 q 267 3 342 -21 l 267 -203 l 383 -203 l 383 -289 l 42 -289 m 419 68 q 561 134 510 68 q 613 317 613 200 q 425 528 613 528 q 267 476 325 528 l 267 103 q 419 68 319 68 z "},"þ":{"ha":718,"x_min":-33,"x_max":663,"o":"m 206 572 q 278 603 238 590 q 365 617 319 617 q 580 539 497 617 q 663 315 663 461 q 578 73 663 167 q 360 -21 494 -21 q 274 -15 313 -21 q 206 3 236 -8 l 206 -203 l 322 -203 l 322 -289 l -19 -289 l -19 -203 l 97 -203 l 97 774 l -33 817 l -6 906 l 206 833 l 206 572 m 206 103 q 245 85 206 103 q 358 68 285 68 q 503 137 454 68 q 551 315 551 206 q 364 528 551 528 q 248 502 290 528 q 206 476 206 476 l 206 103 z "},"q":{"ha":714,"x_min":57,"x_max":740,"o":"m 399 -289 l 399 -203 l 515 -203 l 515 24 q 360 -21 438 -21 q 137 67 217 -21 q 57 311 57 156 q 144 536 57 456 q 374 617 231 617 q 624 538 533 617 l 624 -203 l 740 -203 l 740 -289 l 399 -289 m 361 68 q 515 121 444 68 l 515 492 q 449 518 483 508 q 361 528 414 528 q 222 469 275 528 q 168 313 168 410 q 222 135 168 203 q 361 68 275 68 z "},"r":{"ha":581,"x_min":43,"x_max":560,"o":"m 257 551 q 483 617 356 617 q 536 614 533 617 l 560 468 l 469 449 l 456 526 q 285 479 365 526 l 285 86 l 421 86 l 421 0 l 60 0 l 60 86 l 176 86 l 176 483 l 43 529 l 72 615 l 257 551 z "},"ŕ":{"ha":581,"x_min":43,"x_max":560,"o":"m 257 551 q 483 617 356 617 q 536 614 533 617 l 560 468 l 469 449 l 456 526 q 285 479 365 526 l 285 86 l 421 86 l 421 0 l 60 0 l 60 86 l 176 86 l 176 483 l 43 529 l 72 615 l 257 551 z "},"ř":{"ha":581,"x_min":43,"x_max":560,"o":"m 257 551 q 483 617 356 617 q 536 614 533 617 l 560 468 l 469 449 l 456 526 q 285 479 365 526 l 285 86 l 421 86 l 421 0 l 60 0 l 60 86 l 176 86 l 176 483 l 43 529 l 72 615 l 257 551 z "},"ŗ":{"ha":581,"x_min":43,"x_max":560,"o":"m 257 551 q 483 617 356 617 q 536 614 533 617 l 560 468 l 469 449 l 456 526 q 285 479 365 526 l 285 86 l 421 86 l 421 0 l 60 0 l 60 86 l 176 86 l 176 483 l 43 529 l 72 615 l 257 551 z "},"ȑ":{"ha":581,"x_min":-29,"x_max":560,"o":"m 257 551 q 483 617 356 617 q 536 614 533 617 l 560 468 l 469 449 l 456 526 q 285 479 365 526 l 285 86 l 421 86 l 421 0 l 60 0 l 60 86 l 176 86 l 176 483 l 43 529 l 72 615 l 257 551 m 271 961 l 446 711 l 394 672 l 189 900 l 271 961 m 39 933 l 257 719 l 214 672 l -29 858 l 39 933 z "},"ṛ":{"ha":581,"x_min":43,"x_max":560,"o":"m 257 551 q 483 617 356 617 q 536 614 533 617 l 560 468 l 469 449 l 456 526 q 285 479 365 526 l 285 86 l 421 86 l 421 0 l 60 0 l 60 86 l 176 86 l 176 483 l 43 529 l 72 615 l 257 551 z "},"ȓ":{"ha":581,"x_min":43,"x_max":560,"o":"m 257 551 q 483 617 356 617 q 536 614 533 617 l 560 468 l 469 449 l 456 526 q 285 479 365 526 l 285 86 l 421 86 l 421 0 l 60 0 l 60 86 l 176 86 l 176 483 l 43 529 l 72 615 l 257 551 z "},"ṟ":{"ha":581,"x_min":25,"x_max":560,"o":"m 257 551 q 483 617 356 617 q 536 614 533 617 l 560 468 l 469 449 l 456 526 q 285 479 365 526 l 285 86 l 421 86 l 421 0 l 60 0 l 60 86 l 176 86 l 176 483 l 43 529 l 72 615 l 257 551 m 25 -56 l 451 -56 l 451 -142 l 25 -142 l 25 -56 z "},"s":{"ha":625,"x_min":49,"x_max":567,"o":"m 438 508 q 379 528 407 521 q 307 535 351 535 q 212 511 254 535 q 169 444 169 488 q 205 379 169 403 q 304 350 240 356 l 361 344 q 521 288 475 333 q 567 169 567 243 q 497 31 567 83 q 317 -21 428 -21 q 183 -3 247 -21 q 72 42 119 14 l 49 182 l 144 206 l 165 108 q 313 71 231 71 q 420 95 374 71 q 467 167 467 119 q 439 226 467 208 q 342 251 411 243 l 281 258 q 124 318 178 269 q 69 438 69 367 q 144 574 69 529 q 308 618 219 618 q 425 606 374 618 q 524 569 476 593 l 549 438 l 461 418 l 438 508 z "},"ś":{"ha":625,"x_min":49,"x_max":567,"o":"m 438 508 q 379 528 407 521 q 307 535 351 535 q 212 511 254 535 q 169 444 169 488 q 205 379 169 403 q 304 350 240 356 l 361 344 q 521 288 475 333 q 567 169 567 243 q 497 31 567 83 q 317 -21 428 -21 q 183 -3 247 -21 q 72 42 119 14 l 49 182 l 144 206 l 165 108 q 313 71 231 71 q 420 95 374 71 q 467 167 467 119 q 439 226 467 208 q 342 251 411 243 l 281 258 q 124 318 178 269 q 69 438 69 367 q 144 574 69 529 q 308 618 219 618 q 425 606 374 618 q 524 569 476 593 l 549 438 l 461 418 l 438 508 z "},"ṥ":{"ha":625,"x_min":49,"x_max":567,"o":"m 438 508 q 379 528 407 521 q 307 535 351 535 q 212 511 254 535 q 169 444 169 488 q 205 379 169 403 q 304 350 240 356 l 361 344 q 521 288 475 333 q 567 169 567 243 q 497 31 567 83 q 317 -21 428 -21 q 183 -3 247 -21 q 72 42 119 14 l 49 182 l 144 206 l 165 108 q 313 71 231 71 q 420 95 374 71 q 467 167 467 119 q 439 226 467 208 q 342 251 411 243 l 281 258 q 124 318 178 269 q 69 438 69 367 q 144 574 69 529 q 308 618 219 618 q 425 606 374 618 q 524 569 476 593 l 549 438 l 461 418 l 438 508 m 383 1174 q 446 1150 422 1174 q 469 1088 469 1126 q 446 1025 469 1049 q 383 1001 422 1001 q 299 1088 299 1001 q 322 1150 299 1126 q 383 1174 344 1174 z "},"š":{"ha":625,"x_min":49,"x_max":567,"o":"m 438 508 q 379 528 407 521 q 307 535 351 535 q 212 511 254 535 q 169 444 169 488 q 205 379 169 403 q 304 350 240 356 l 361 344 q 521 288 475 333 q 567 169 567 243 q 497 31 567 83 q 317 -21 428 -21 q 183 -3 247 -21 q 72 42 119 14 l 49 182 l 144 206 l 165 108 q 313 71 231 71 q 420 95 374 71 q 467 167 467 119 q 439 226 467 208 q 342 251 411 243 l 281 258 q 124 318 178 269 q 69 438 69 367 q 144 574 69 529 q 308 618 219 618 q 425 606 374 618 q 524 569 476 593 l 549 438 l 461 418 l 438 508 z "},"ṧ":{"ha":625,"x_min":49,"x_max":567,"o":"m 438 508 q 379 528 407 521 q 307 535 351 535 q 212 511 254 535 q 169 444 169 488 q 205 379 169 403 q 304 350 240 356 l 361 344 q 521 288 475 333 q 567 169 567 243 q 497 31 567 83 q 317 -21 428 -21 q 183 -3 247 -21 q 72 42 119 14 l 49 182 l 144 206 l 165 108 q 313 71 231 71 q 420 95 374 71 q 467 167 467 119 q 439 226 467 208 q 342 251 411 243 l 281 258 q 124 318 178 269 q 69 438 69 367 q 144 574 69 529 q 308 618 219 618 q 425 606 374 618 q 524 569 476 593 l 549 438 l 461 418 l 438 508 m 308 1053 q 371 1029 347 1053 q 394 967 394 1006 q 371 904 394 928 q 308 881 347 881 q 224 967 224 881 q 247 1029 224 1006 q 308 1053 269 1053 z "},"ş":{"ha":625,"x_min":49,"x_max":567,"o":"m 438 508 q 379 528 407 521 q 307 535 351 535 q 212 511 254 535 q 169 444 169 488 q 205 379 169 403 q 304 350 240 356 l 361 344 q 521 288 475 333 q 567 169 567 243 q 497 31 567 83 q 317 -21 428 -21 q 183 -3 247 -21 q 72 42 119 14 l 49 182 l 144 206 l 165 108 q 313 71 231 71 q 420 95 374 71 q 467 167 467 119 q 439 226 467 208 q 342 251 411 243 l 281 258 q 124 318 178 269 q 69 438 69 367 q 144 574 69 529 q 308 618 219 618 q 425 606 374 618 q 524 569 476 593 l 549 438 l 461 418 l 438 508 z "},"ŝ":{"ha":625,"x_min":49,"x_max":567,"o":"m 438 508 q 379 528 407 521 q 307 535 351 535 q 212 511 254 535 q 169 444 169 488 q 205 379 169 403 q 304 350 240 356 l 361 344 q 521 288 475 333 q 567 169 567 243 q 497 31 567 83 q 317 -21 428 -21 q 183 -3 247 -21 q 72 42 119 14 l 49 182 l 144 206 l 165 108 q 313 71 231 71 q 420 95 374 71 q 467 167 467 119 q 439 226 467 208 q 342 251 411 243 l 281 258 q 124 318 178 269 q 69 438 69 367 q 144 574 69 529 q 308 618 219 618 q 425 606 374 618 q 524 569 476 593 l 549 438 l 461 418 l 438 508 z "},"ș":{"ha":625,"x_min":49,"x_max":567,"o":"m 438 508 q 379 528 407 521 q 307 535 351 535 q 212 511 254 535 q 169 444 169 488 q 205 379 169 403 q 304 350 240 356 l 361 344 q 521 288 475 333 q 567 169 567 243 q 497 31 567 83 q 317 -21 428 -21 q 183 -3 247 -21 q 72 42 119 14 l 49 182 l 144 206 l 165 108 q 313 71 231 71 q 420 95 374 71 q 467 167 467 119 q 439 226 467 208 q 342 251 411 243 l 281 258 q 124 318 178 269 q 69 438 69 367 q 144 574 69 529 q 308 618 219 618 q 425 606 374 618 q 524 569 476 593 l 549 438 l 461 418 l 438 508 z "},"ṡ":{"ha":625,"x_min":49,"x_max":567,"o":"m 438 508 q 379 528 407 521 q 307 535 351 535 q 212 511 254 535 q 169 444 169 488 q 205 379 169 403 q 304 350 240 356 l 361 344 q 521 288 475 333 q 567 169 567 243 q 497 31 567 83 q 317 -21 428 -21 q 183 -3 247 -21 q 72 42 119 14 l 49 182 l 144 206 l 165 108 q 313 71 231 71 q 420 95 374 71 q 467 167 467 119 q 439 226 467 208 q 342 251 411 243 l 281 258 q 124 318 178 269 q 69 438 69 367 q 144 574 69 529 q 308 618 219 618 q 425 606 374 618 q 524 569 476 593 l 549 438 l 461 418 l 438 508 m 308 892 q 371 868 347 892 q 394 806 394 844 q 371 743 394 767 q 308 719 347 719 q 224 806 224 719 q 247 868 224 844 q 308 892 269 892 z "},"ṣ":{"ha":625,"x_min":49,"x_max":567,"o":"m 438 508 q 379 528 407 521 q 307 535 351 535 q 212 511 254 535 q 169 444 169 488 q 205 379 169 403 q 304 350 240 356 l 361 344 q 521 288 475 333 q 567 169 567 243 q 497 31 567 83 q 317 -21 428 -21 q 183 -3 247 -21 q 72 42 119 14 l 49 182 l 144 206 l 165 108 q 313 71 231 71 q 420 95 374 71 q 467 167 467 119 q 439 226 467 208 q 342 251 411 243 l 281 258 q 124 318 178 269 q 69 438 69 367 q 144 574 69 529 q 308 618 219 618 q 425 606 374 618 q 524 569 476 593 l 549 438 l 461 418 l 438 508 z "},"ṩ":{"ha":625,"x_min":49,"x_max":567,"o":"m 438 508 q 379 528 407 521 q 307 535 351 535 q 212 511 254 535 q 169 444 169 488 q 205 379 169 403 q 304 350 240 356 l 361 344 q 521 288 475 333 q 567 169 567 243 q 497 31 567 83 q 317 -21 428 -21 q 183 -3 247 -21 q 72 42 119 14 l 49 182 l 144 206 l 165 108 q 313 71 231 71 q 420 95 374 71 q 467 167 467 119 q 439 226 467 208 q 342 251 411 243 l 281 258 q 124 318 178 269 q 69 438 69 367 q 144 574 69 529 q 308 618 219 618 q 425 606 374 618 q 524 569 476 593 l 549 438 l 461 418 l 438 508 m 308 892 q 371 868 347 892 q 394 806 394 844 q 371 743 394 767 q 308 719 347 719 q 224 806 224 719 q 247 868 224 844 q 308 892 269 892 z "},"ß":{"ha":811,"x_min":50,"x_max":767,"o":"m 569 -21 q 467 -3 517 -21 q 392 40 417 14 l 369 164 l 460 183 l 474 101 q 571 68 504 68 q 640 92 614 68 q 667 156 667 117 q 554 271 667 232 q 431 346 476 297 q 385 450 385 394 q 424 568 385 529 q 503 636 464 607 q 542 714 542 665 q 507 777 542 751 q 422 803 472 803 q 308 765 342 803 q 275 635 275 728 l 275 0 l 50 0 l 50 86 l 167 86 l 167 510 l 50 510 l 50 596 l 167 596 l 167 657 q 227 835 167 778 q 415 892 288 892 q 583 844 522 892 q 644 714 644 796 q 607 604 644 644 q 531 533 569 564 q 493 460 493 501 q 518 409 493 429 q 610 365 543 389 q 767 156 767 308 q 711 28 767 78 q 569 -21 656 -21 z "},"t":{"ha":504,"x_min":32,"x_max":468,"o":"m 343 -21 q 208 26 268 -21 q 147 207 147 72 l 147 510 l 32 510 l 32 596 l 147 596 l 147 731 l 253 756 l 253 596 l 426 596 l 426 510 l 253 510 l 253 268 q 271 118 253 175 q 350 61 289 61 q 447 86 393 61 l 468 8 q 407 -12 439 -3 q 343 -21 375 -21 z "},"ŧ":{"ha":504,"x_min":29,"x_max":468,"o":"m 343 -21 q 208 26 268 -21 q 147 207 147 72 l 147 510 l 32 510 l 32 596 l 147 596 l 147 731 l 253 756 l 253 596 l 426 596 l 426 510 l 253 510 l 253 268 q 271 118 253 175 q 350 61 289 61 q 447 86 393 61 l 468 8 q 407 -12 439 -3 q 343 -21 375 -21 m 29 443 l 456 443 l 456 357 l 29 357 l 29 443 z "},"ť":{"ha":504,"x_min":3,"x_max":468,"o":"m 343 -21 q 208 26 268 -21 q 147 207 147 72 l 147 510 l 32 510 l 32 596 l 147 596 l 147 731 l 253 756 l 253 596 l 426 596 l 426 510 l 253 510 l 253 268 q 271 118 253 175 q 350 61 289 61 q 447 86 393 61 l 468 8 q 407 -12 439 -3 q 343 -21 375 -21 z "},"ţ":{"ha":504,"x_min":32,"x_max":468,"o":"m 343 -21 q 208 26 268 -21 q 147 207 147 72 l 147 510 l 32 510 l 32 596 l 147 596 l 147 731 l 253 756 l 253 596 l 426 596 l 426 510 l 253 510 l 253 268 q 271 118 253 175 q 350 61 289 61 q 447 86 393 61 l 468 8 q 407 -12 439 -3 q 343 -21 375 -21 z "},"ț":{"ha":504,"x_min":32,"x_max":468,"o":"m 343 -21 q 208 26 268 -21 q 147 207 147 72 l 147 510 l 32 510 l 32 596 l 147 596 l 147 731 l 253 756 l 253 596 l 426 596 l 426 510 l 253 510 l 253 268 q 271 118 253 175 q 350 61 289 61 q 447 86 393 61 l 468 8 q 407 -12 439 -3 q 343 -21 375 -21 z "},"ẗ":{"ha":504,"x_min":11,"x_max":468,"o":"m 343 -21 q 208 26 268 -21 q 147 207 147 72 l 147 510 l 32 510 l 32 596 l 147 596 l 147 731 l 253 756 l 253 596 l 426 596 l 426 510 l 253 510 l 253 268 q 271 118 253 175 q 350 61 289 61 q 447 86 393 61 l 468 8 q 407 -12 439 -3 q 343 -21 375 -21 z "},"ṭ":{"ha":504,"x_min":32,"x_max":468,"o":"m 343 -21 q 208 26 268 -21 q 147 207 147 72 l 147 510 l 32 510 l 32 596 l 147 596 l 147 731 l 253 756 l 253 596 l 426 596 l 426 510 l 253 510 l 253 268 q 271 118 253 175 q 350 61 289 61 q 447 86 393 61 l 468 8 q 407 -12 439 -3 q 343 -21 375 -21 z "},"ṯ":{"ha":504,"x_min":29,"x_max":468,"o":"m 343 -21 q 208 26 268 -21 q 147 207 147 72 l 147 510 l 32 510 l 32 596 l 147 596 l 147 731 l 253 756 l 253 596 l 426 596 l 426 510 l 253 510 l 253 268 q 271 118 253 175 q 350 61 289 61 q 447 86 393 61 l 468 8 q 407 -12 439 -3 q 343 -21 375 -21 m 29 -56 l 456 -56 l 456 -142 l 29 -142 l 29 -56 z "},"u":{"ha":846,"x_min":32,"x_max":818,"o":"m 601 40 q 397 -21 504 -21 q 209 36 269 -21 q 149 214 149 93 l 149 510 l 32 510 l 32 596 l 257 596 l 257 236 q 404 68 257 68 q 579 115 508 68 l 579 510 l 463 510 l 463 596 l 688 596 l 688 108 l 818 64 l 790 -25 l 601 40 z "},"ú":{"ha":846,"x_min":32,"x_max":818,"o":"m 601 40 q 397 -21 504 -21 q 209 36 269 -21 q 149 214 149 93 l 149 510 l 32 510 l 32 596 l 257 596 l 257 236 q 404 68 257 68 q 579 115 508 68 l 579 510 l 463 510 l 463 596 l 688 596 l 688 108 l 818 64 l 790 -25 l 601 40 z "},"ŭ":{"ha":846,"x_min":32,"x_max":818,"o":"m 601 40 q 397 -21 504 -21 q 209 36 269 -21 q 149 214 149 93 l 149 510 l 32 510 l 32 596 l 257 596 l 257 236 q 404 68 257 68 q 579 115 508 68 l 579 510 l 463 510 l 463 596 l 688 596 l 688 108 l 818 64 l 790 -25 l 601 40 m 389 681 q 172 847 206 681 l 263 864 q 389 769 278 769 q 517 864 504 769 l 607 847 q 389 681 574 681 z "},"û":{"ha":846,"x_min":32,"x_max":818,"o":"m 601 40 q 397 -21 504 -21 q 209 36 269 -21 q 149 214 149 93 l 149 510 l 32 510 l 32 596 l 257 596 l 257 236 q 404 68 257 68 q 579 115 508 68 l 579 510 l 463 510 l 463 596 l 688 596 l 688 108 l 818 64 l 790 -25 l 601 40 z "},"ȕ":{"ha":846,"x_min":32,"x_max":818,"o":"m 601 40 q 397 -21 504 -21 q 209 36 269 -21 q 149 214 149 93 l 149 510 l 32 510 l 32 596 l 257 596 l 257 236 q 404 68 257 68 q 579 115 508 68 l 579 510 l 463 510 l 463 596 l 688 596 l 688 108 l 818 64 l 790 -25 l 601 40 m 369 961 l 544 711 l 493 672 l 288 900 l 369 961 m 138 933 l 356 719 l 313 672 l 69 858 l 138 933 z "},"ü":{"ha":846,"x_min":32,"x_max":818,"o":"m 601 40 q 397 -21 504 -21 q 209 36 269 -21 q 149 214 149 93 l 149 510 l 32 510 l 32 596 l 257 596 l 257 236 q 404 68 257 68 q 579 115 508 68 l 579 510 l 463 510 l 463 596 l 688 596 l 688 108 l 818 64 l 790 -25 l 601 40 z "},"ụ":{"ha":846,"x_min":32,"x_max":818,"o":"m 601 40 q 397 -21 504 -21 q 209 36 269 -21 q 149 214 149 93 l 149 510 l 32 510 l 32 596 l 257 596 l 257 236 q 404 68 257 68 q 579 115 508 68 l 579 510 l 463 510 l 463 596 l 688 596 l 688 108 l 818 64 l 790 -25 l 601 40 z "},"ù":{"ha":846,"x_min":32,"x_max":818,"o":"m 601 40 q 397 -21 504 -21 q 209 36 269 -21 q 149 214 149 93 l 149 510 l 32 510 l 32 596 l 257 596 l 257 236 q 404 68 257 68 q 579 115 508 68 l 579 510 l 463 510 l 463 596 l 688 596 l 688 108 l 818 64 l 790 -25 l 601 40 z "},"ủ":{"ha":846,"x_min":32,"x_max":818,"o":"m 601 40 q 397 -21 504 -21 q 209 36 269 -21 q 149 214 149 93 l 149 510 l 32 510 l 32 596 l 257 596 l 257 236 q 404 68 257 68 q 579 115 508 68 l 579 510 l 463 510 l 463 596 l 688 596 l 688 108 l 818 64 l 790 -25 l 601 40 m 404 671 l 369 714 q 415 797 415 751 q 374 839 415 839 q 308 803 339 839 l 260 858 q 390 922 311 922 q 471 893 436 922 q 506 807 506 864 q 483 742 506 775 q 404 671 460 708 z "},"ư":{"ha":860,"x_min":32,"x_max":818,"o":"m 601 40 q 397 -21 504 -21 q 209 36 269 -21 q 149 214 149 93 l 149 510 l 32 510 l 32 596 l 257 596 l 257 236 q 404 68 257 68 q 579 115 508 68 l 579 510 l 463 510 l 463 596 l 688 596 l 688 108 l 818 64 l 790 -25 l 601 40 m 633 510 l 633 596 q 729 706 729 596 l 815 706 q 633 510 815 510 z "},"ứ":{"ha":860,"x_min":32,"x_max":818,"o":"m 601 40 q 397 -21 504 -21 q 209 36 269 -21 q 149 214 149 93 l 149 510 l 32 510 l 32 596 l 257 596 l 257 236 q 404 68 257 68 q 579 115 508 68 l 579 510 l 463 510 l 463 596 l 688 596 l 688 108 l 818 64 l 790 -25 l 601 40 m 633 510 l 633 596 q 729 706 729 596 l 815 706 q 633 510 815 510 z "},"ự":{"ha":860,"x_min":32,"x_max":818,"o":"m 601 40 q 397 -21 504 -21 q 209 36 269 -21 q 149 214 149 93 l 149 510 l 32 510 l 32 596 l 257 596 l 257 236 q 404 68 257 68 q 579 115 508 68 l 579 510 l 463 510 l 463 596 l 688 596 l 688 108 l 818 64 l 790 -25 l 601 40 m 633 510 l 633 596 q 729 706 729 596 l 815 706 q 633 510 815 510 z "},"ừ":{"ha":860,"x_min":32,"x_max":818,"o":"m 601 40 q 397 -21 504 -21 q 209 36 269 -21 q 149 214 149 93 l 149 510 l 32 510 l 32 596 l 257 596 l 257 236 q 404 68 257 68 q 579 115 508 68 l 579 510 l 463 510 l 463 596 l 688 596 l 688 108 l 818 64 l 790 -25 l 601 40 m 633 510 l 633 596 q 729 706 729 596 l 815 706 q 633 510 815 510 z "},"ử":{"ha":860,"x_min":32,"x_max":818,"o":"m 601 40 q 397 -21 504 -21 q 209 36 269 -21 q 149 214 149 93 l 149 510 l 32 510 l 32 596 l 257 596 l 257 236 q 404 68 257 68 q 579 115 508 68 l 579 510 l 463 510 l 463 596 l 688 596 l 688 108 l 818 64 l 790 -25 l 601 40 m 633 510 l 633 596 q 729 706 729 596 l 815 706 q 633 510 815 510 m 404 671 l 369 714 q 415 797 415 751 q 374 839 415 839 q 308 803 339 839 l 260 858 q 390 922 311 922 q 471 893 436 922 q 506 807 506 864 q 483 742 506 775 q 404 671 460 708 z "},"ữ":{"ha":860,"x_min":32,"x_max":818,"o":"m 601 40 q 397 -21 504 -21 q 209 36 269 -21 q 149 214 149 93 l 149 510 l 32 510 l 32 596 l 257 596 l 257 236 q 404 68 257 68 q 579 115 508 68 l 579 510 l 463 510 l 463 596 l 688 596 l 688 108 l 818 64 l 790 -25 l 601 40 m 633 510 l 633 596 q 729 706 729 596 l 815 706 q 633 510 815 510 m 224 690 l 194 763 q 269 806 239 792 q 347 819 300 819 q 444 792 410 819 q 521 764 479 764 q 562 775 544 764 q 611 810 579 786 l 644 732 q 576 685 604 697 q 518 672 549 674 q 433 699 472 669 q 351 729 394 729 q 288 719 313 729 q 224 690 264 708 z "},"ű":{"ha":846,"x_min":32,"x_max":818,"o":"m 601 40 q 397 -21 504 -21 q 209 36 269 -21 q 149 214 149 93 l 149 510 l 32 510 l 32 596 l 257 596 l 257 236 q 404 68 257 68 q 579 115 508 68 l 579 510 l 463 510 l 463 596 l 688 596 l 688 108 l 818 64 l 790 -25 l 601 40 m 419 961 l 501 900 l 296 672 l 244 711 l 419 961 m 651 933 l 719 858 l 476 672 l 433 719 l 651 933 z "},"ȗ":{"ha":846,"x_min":32,"x_max":818,"o":"m 601 40 q 397 -21 504 -21 q 209 36 269 -21 q 149 214 149 93 l 149 510 l 32 510 l 32 596 l 257 596 l 257 236 q 404 68 257 68 q 579 115 508 68 l 579 510 l 463 510 l 463 596 l 688 596 l 688 108 l 818 64 l 790 -25 l 601 40 z "},"ū":{"ha":846,"x_min":32,"x_max":818,"o":"m 601 40 q 397 -21 504 -21 q 209 36 269 -21 q 149 214 149 93 l 149 510 l 32 510 l 32 596 l 257 596 l 257 236 q 404 68 257 68 q 579 115 508 68 l 579 510 l 463 510 l 463 596 l 688 596 l 688 108 l 818 64 l 790 -25 l 601 40 z "},"ṻ":{"ha":846,"x_min":32,"x_max":818,"o":"m 601 40 q 397 -21 504 -21 q 209 36 269 -21 q 149 214 149 93 l 149 510 l 32 510 l 32 596 l 257 596 l 257 236 q 404 68 257 68 q 579 115 508 68 l 579 510 l 463 510 l 463 596 l 688 596 l 688 108 l 818 64 l 790 -25 l 601 40 z "},"ų":{"ha":846,"x_min":32,"x_max":838,"o":"m 601 40 q 397 -21 504 -21 q 209 36 269 -21 q 149 214 149 93 l 149 510 l 32 510 l 32 596 l 257 596 l 257 236 q 404 68 257 68 q 579 115 508 68 l 579 510 l 463 510 l 463 596 l 688 596 l 688 108 l 818 64 l 790 -25 l 601 40 z "},"ů":{"ha":846,"x_min":32,"x_max":818,"o":"m 601 40 q 397 -21 504 -21 q 209 36 269 -21 q 149 214 149 93 l 149 510 l 32 510 l 32 596 l 257 596 l 257 236 q 404 68 257 68 q 579 115 508 68 l 579 510 l 463 510 l 463 596 l 688 596 l 688 108 l 818 64 l 790 -25 l 601 40 z "},"ũ":{"ha":846,"x_min":32,"x_max":818,"o":"m 601 40 q 397 -21 504 -21 q 209 36 269 -21 q 149 214 149 93 l 149 510 l 32 510 l 32 596 l 257 596 l 257 236 q 404 68 257 68 q 579 115 508 68 l 579 510 l 463 510 l 463 596 l 688 596 l 688 108 l 818 64 l 790 -25 l 601 40 m 224 690 l 194 763 q 269 806 239 792 q 347 819 300 819 q 444 792 410 819 q 521 764 479 764 q 562 775 544 764 q 611 810 579 786 l 644 732 q 576 685 604 697 q 518 672 549 674 q 433 699 472 669 q 351 729 394 729 q 288 719 313 729 q 224 690 264 708 z "},"ṹ":{"ha":846,"x_min":32,"x_max":818,"o":"m 601 40 q 397 -21 504 -21 q 209 36 269 -21 q 149 214 149 93 l 149 510 l 32 510 l 32 596 l 257 596 l 257 236 q 404 68 257 68 q 579 115 508 68 l 579 510 l 463 510 l 463 596 l 688 596 l 688 108 l 818 64 l 790 -25 l 601 40 m 224 690 l 194 763 q 269 806 239 792 q 347 819 300 819 q 444 792 410 819 q 521 764 479 764 q 562 775 544 764 q 611 810 579 786 l 644 732 q 576 685 604 697 q 518 672 549 674 q 433 699 472 669 q 351 729 394 729 q 288 719 313 729 q 224 690 264 708 z "},"v":{"ha":800,"x_min":3,"x_max":797,"o":"m 3 596 l 294 596 l 294 510 l 231 510 l 356 214 l 406 96 l 456 214 l 581 510 l 519 510 l 519 596 l 797 596 l 797 510 l 689 510 l 461 0 l 339 0 l 118 510 l 3 510 l 3 596 z "},"w":{"ha":1029,"x_min":3,"x_max":1026,"o":"m 286 0 l 119 510 l 3 510 l 3 596 l 317 596 l 317 510 l 226 510 l 303 272 l 349 128 l 392 269 l 467 511 l 572 511 l 649 263 l 692 125 l 733 256 l 815 510 l 740 510 l 740 596 l 1026 596 l 1026 510 l 908 510 l 746 0 l 640 0 l 519 375 l 394 0 l 286 0 z "},"ẃ":{"ha":1029,"x_min":3,"x_max":1026,"o":"m 286 0 l 119 510 l 3 510 l 3 596 l 317 596 l 317 510 l 226 510 l 303 272 l 349 128 l 392 269 l 467 511 l 572 511 l 649 263 l 692 125 l 733 256 l 815 510 l 740 510 l 740 596 l 1026 596 l 1026 510 l 908 510 l 746 0 l 640 0 l 519 375 l 394 0 l 286 0 z "},"ŵ":{"ha":1029,"x_min":3,"x_max":1026,"o":"m 286 0 l 119 510 l 3 510 l 3 596 l 317 596 l 317 510 l 226 510 l 303 272 l 349 128 l 392 269 l 467 511 l 572 511 l 649 263 l 692 125 l 733 256 l 815 510 l 740 510 l 740 596 l 1026 596 l 1026 510 l 908 510 l 746 0 l 640 0 l 519 375 l 394 0 l 286 0 z "},"ẅ":{"ha":1029,"x_min":3,"x_max":1026,"o":"m 286 0 l 119 510 l 3 510 l 3 596 l 317 596 l 317 510 l 226 510 l 303 272 l 349 128 l 392 269 l 467 511 l 572 511 l 649 263 l 692 125 l 733 256 l 815 510 l 740 510 l 740 596 l 1026 596 l 1026 510 l 908 510 l 746 0 l 640 0 l 519 375 l 394 0 l 286 0 z "},"ẁ":{"ha":1029,"x_min":3,"x_max":1026,"o":"m 286 0 l 119 510 l 3 510 l 3 596 l 317 596 l 317 510 l 226 510 l 303 272 l 349 128 l 392 269 l 467 511 l 572 511 l 649 263 l 692 125 l 733 256 l 815 510 l 740 510 l 740 596 l 1026 596 l 1026 510 l 908 510 l 746 0 l 640 0 l 519 375 l 394 0 l 286 0 z "},"x":{"ha":821,"x_min":35,"x_max":794,"o":"m 35 0 l 35 86 l 156 86 l 336 301 l 139 510 l 35 510 l 35 596 l 350 596 l 350 510 l 275 510 l 424 353 l 553 510 l 492 510 l 492 596 l 769 596 l 769 510 l 665 510 l 482 292 l 678 86 l 794 86 l 794 0 l 478 0 l 478 86 l 540 86 l 396 238 l 268 86 l 329 86 l 329 0 l 35 0 z "},"y":{"ha":754,"x_min":1,"x_max":753,"o":"m 211 -311 q 119 -296 165 -311 l 136 -212 q 203 -224 174 -224 q 290 -195 261 -224 q 354 -65 319 -167 l 551 510 l 475 510 l 475 596 l 753 596 l 753 510 l 653 510 l 426 -125 q 342 -262 394 -214 q 211 -311 289 -311 m 385 -97 l 100 510 l 1 510 l 1 596 l 290 596 l 290 510 l 211 510 l 428 17 l 385 -97 z "},"ý":{"ha":754,"x_min":1,"x_max":753,"o":"m 211 -311 q 119 -296 165 -311 l 136 -212 q 203 -224 174 -224 q 290 -195 261 -224 q 354 -65 319 -167 l 551 510 l 475 510 l 475 596 l 753 596 l 753 510 l 653 510 l 426 -125 q 342 -262 394 -214 q 211 -311 289 -311 m 385 -97 l 100 510 l 1 510 l 1 596 l 290 596 l 290 510 l 211 510 l 428 17 l 385 -97 z "},"ŷ":{"ha":754,"x_min":1,"x_max":753,"o":"m 211 -311 q 119 -296 165 -311 l 136 -212 q 203 -224 174 -224 q 290 -195 261 -224 q 354 -65 319 -167 l 551 510 l 475 510 l 475 596 l 753 596 l 753 510 l 653 510 l 426 -125 q 342 -262 394 -214 q 211 -311 289 -311 m 385 -97 l 100 510 l 1 510 l 1 596 l 290 596 l 290 510 l 211 510 l 428 17 l 385 -97 z "},"ÿ":{"ha":754,"x_min":1,"x_max":753,"o":"m 211 -311 q 119 -296 165 -311 l 136 -212 q 203 -224 174 -224 q 290 -195 261 -224 q 354 -65 319 -167 l 551 510 l 475 510 l 475 596 l 753 596 l 753 510 l 653 510 l 426 -125 q 342 -262 394 -214 q 211 -311 289 -311 m 385 -97 l 100 510 l 1 510 l 1 596 l 290 596 l 290 510 l 211 510 l 428 17 l 385 -97 z "},"ẏ":{"ha":754,"x_min":1,"x_max":753,"o":"m 211 -311 q 119 -296 165 -311 l 136 -212 q 203 -224 174 -224 q 290 -195 261 -224 q 354 -65 319 -167 l 551 510 l 475 510 l 475 596 l 753 596 l 753 510 l 653 510 l 426 -125 q 342 -262 394 -214 q 211 -311 289 -311 m 385 -97 l 100 510 l 1 510 l 1 596 l 290 596 l 290 510 l 211 510 l 428 17 l 385 -97 m 378 892 q 440 868 417 892 q 464 806 464 844 q 440 743 464 767 q 378 719 417 719 q 293 806 293 719 q 316 868 293 844 q 378 892 339 892 z "},"ỵ":{"ha":754,"x_min":1,"x_max":753,"o":"m 211 -311 q 119 -296 165 -311 l 136 -212 q 203 -224 174 -224 q 290 -195 261 -224 q 354 -65 319 -167 l 551 510 l 475 510 l 475 596 l 753 596 l 753 510 l 653 510 l 426 -125 q 342 -262 394 -214 q 211 -311 289 -311 m 385 -97 l 100 510 l 1 510 l 1 596 l 290 596 l 290 510 l 211 510 l 428 17 l 385 -97 z "},"ỳ":{"ha":754,"x_min":1,"x_max":753,"o":"m 211 -311 q 119 -296 165 -311 l 136 -212 q 203 -224 174 -224 q 290 -195 261 -224 q 354 -65 319 -167 l 551 510 l 475 510 l 475 596 l 753 596 l 753 510 l 653 510 l 426 -125 q 342 -262 394 -214 q 211 -311 289 -311 m 385 -97 l 100 510 l 1 510 l 1 596 l 290 596 l 290 510 l 211 510 l 428 17 l 385 -97 z "},"ỷ":{"ha":754,"x_min":1,"x_max":753,"o":"m 211 -311 q 119 -296 165 -311 l 136 -212 q 203 -224 174 -224 q 290 -195 261 -224 q 354 -65 319 -167 l 551 510 l 475 510 l 475 596 l 753 596 l 753 510 l 653 510 l 426 -125 q 342 -262 394 -214 q 211 -311 289 -311 m 385 -97 l 100 510 l 1 510 l 1 596 l 290 596 l 290 510 l 211 510 l 428 17 l 385 -97 m 393 671 l 358 714 q 404 797 404 751 q 363 839 404 839 q 297 803 328 839 l 249 858 q 379 922 300 922 q 460 893 425 922 q 494 807 494 864 q 472 742 494 775 q 393 671 449 708 z "},"ȳ":{"ha":754,"x_min":1,"x_max":753,"o":"m 211 -311 q 119 -296 165 -311 l 136 -212 q 203 -224 174 -224 q 290 -195 261 -224 q 354 -65 319 -167 l 551 510 l 475 510 l 475 596 l 753 596 l 753 510 l 653 510 l 426 -125 q 342 -262 394 -214 q 211 -311 289 -311 m 385 -97 l 100 510 l 1 510 l 1 596 l 290 596 l 290 510 l 211 510 l 428 17 l 385 -97 z "},"ỹ":{"ha":754,"x_min":1,"x_max":753,"o":"m 211 -311 q 119 -296 165 -311 l 136 -212 q 203 -224 174 -224 q 290 -195 261 -224 q 354 -65 319 -167 l 551 510 l 475 510 l 475 596 l 753 596 l 753 510 l 653 510 l 426 -125 q 342 -262 394 -214 q 211 -311 289 -311 m 385 -97 l 100 510 l 1 510 l 1 596 l 290 596 l 290 510 l 211 510 l 428 17 l 385 -97 m 213 690 l 183 763 q 258 806 228 792 q 336 819 289 819 q 433 792 399 819 q 510 764 468 764 q 551 775 533 764 q 600 810 568 786 l 633 732 q 565 685 593 697 q 507 672 538 674 q 422 699 461 669 q 340 729 383 729 q 277 719 301 729 q 213 690 253 708 z "},"z":{"ha":628,"x_min":42,"x_max":582,"o":"m 58 0 l 58 74 l 431 510 l 147 510 l 132 432 l 42 451 l 68 596 l 556 596 l 556 526 l 181 86 l 475 86 l 489 169 l 582 153 l 553 0 l 58 0 z "},"ź":{"ha":628,"x_min":42,"x_max":582,"o":"m 58 0 l 58 74 l 431 510 l 147 510 l 132 432 l 42 451 l 68 596 l 556 596 l 556 526 l 181 86 l 475 86 l 489 169 l 582 153 l 553 0 l 58 0 z "},"ž":{"ha":628,"x_min":42,"x_max":582,"o":"m 58 0 l 58 74 l 431 510 l 147 510 l 132 432 l 42 451 l 68 596 l 556 596 l 556 526 l 181 86 l 475 86 l 489 169 l 582 153 l 553 0 l 58 0 z "},"ż":{"ha":628,"x_min":42,"x_max":582,"o":"m 58 0 l 58 74 l 431 510 l 147 510 l 132 432 l 42 451 l 68 596 l 556 596 l 556 526 l 181 86 l 475 86 l 489 169 l 582 153 l 553 0 l 58 0 m 311 892 q 374 868 350 892 q 397 806 397 844 q 374 743 397 767 q 311 719 350 719 q 226 806 226 719 q 249 868 226 844 q 311 892 272 892 z "},"ẓ":{"ha":628,"x_min":42,"x_max":582,"o":"m 58 0 l 58 74 l 431 510 l 147 510 l 132 432 l 42 451 l 68 596 l 556 596 l 556 526 l 181 86 l 475 86 l 489 169 l 582 153 l 553 0 l 58 0 z "},"ﬁ":{"ha":921,"x_min":50,"x_max":889,"o":"m 167 679 q 232 851 167 789 q 415 914 297 914 q 589 856 522 914 l 546 779 q 408 825 496 825 q 275 657 275 825 l 275 596 l 447 596 l 447 510 l 275 510 l 275 86 l 400 86 l 400 0 l 50 0 l 50 86 l 167 86 l 167 510 l 50 510 l 50 596 l 167 596 l 167 679 m 549 596 l 774 596 l 774 86 l 889 86 l 889 0 l 549 0 l 549 86 l 664 86 l 664 510 l 549 510 l 549 596 m 704 892 q 767 868 743 892 q 790 806 790 844 q 767 743 790 767 q 704 719 743 719 q 619 806 619 719 q 642 868 619 844 q 704 892 665 892 z "},"ﬂ":{"ha":890,"x_min":50,"x_max":858,"o":"m 742 86 l 858 86 l 858 0 l 517 0 l 517 86 l 633 86 l 633 772 q 546 815 592 800 q 449 831 500 831 q 324 790 374 831 q 275 657 275 749 l 275 596 l 447 596 l 447 510 l 275 510 l 275 86 l 400 86 l 400 0 l 50 0 l 50 86 l 167 86 l 167 510 l 50 510 l 50 596 l 167 596 l 167 679 q 246 857 167 786 q 449 928 325 928 q 602 903 531 928 q 742 826 674 879 l 742 86 z "},"ª":{"ha":492,"x_min":61,"x_max":449,"o":"m 428 222 l 339 258 q 277 231 307 242 q 211 221 247 221 q 101 255 140 221 q 63 339 63 289 q 103 426 61 400 q 206 453 146 453 l 308 451 q 293 530 308 508 q 229 551 278 551 q 190 548 207 551 q 161 542 172 544 l 150 494 l 85 507 l 100 592 q 136 604 100 592 q 226 617 172 617 q 339 590 306 617 q 380 525 372 564 q 388 451 388 486 l 388 308 l 449 286 l 428 222 m 215 285 q 272 297 249 285 q 308 319 296 308 l 308 390 l 208 390 q 163 381 182 390 q 143 339 143 372 q 164 298 143 311 q 215 285 185 285 z "},"º":{"ha":500,"x_min":61,"x_max":439,"o":"m 249 617 q 386 565 333 617 q 439 419 439 514 q 386 275 439 326 q 249 224 333 224 q 114 275 167 224 q 61 419 61 326 q 114 565 61 514 q 249 617 167 617 m 250 550 q 168 516 196 550 q 140 419 140 482 q 168 324 140 358 q 250 290 196 290 q 332 324 304 290 q 360 419 360 358 q 332 516 360 482 q 250 550 304 550 z "},"Ԯ":{"ha":935,"x_min":54,"x_max":872,"o":"m 94 -14 q 74 -14 85 -14 q 54 -12 64 -14 l 54 89 q 204 161 169 89 q 250 386 239 233 l 274 725 l 154 725 l 154 821 l 872 821 l 872 725 l 740 725 l 738 96 l 869 96 l 869 0 l 513 0 l 513 96 l 629 96 l 631 725 l 375 725 l 346 351 q 283 92 335 197 q 94 -14 232 -12 m 761 -243 l 763 0 l 628 0 l 628 96 l 871 96 l 871 -243 l 761 -243 z "},"Ԩ":{"ha":992,"x_min":-75,"x_max":940,"o":"m 939 818 l 939 722 l 806 722 l 807 96 l 940 96 l 940 0 l 608 0 l 608 96 l 697 96 l 696 371 l 296 371 l 296 0 l 188 0 l 183 722 l 51 722 l 51 818 l 383 818 l 383 722 l 294 722 l 296 467 l 696 467 l 694 722 l 606 722 l 606 818 l 939 818 m 296 0 q 231 -229 296 -151 q 58 -307 167 -307 q -75 -271 0 -307 l -44 -174 q 51 -197 11 -197 q 153 -143 119 -197 q 188 0 188 -89 l 296 0 z "},"А":{"ha":904,"x_min":14,"x_max":890,"o":"m 14 0 l 14 96 l 147 96 l 378 722 l 238 722 l 238 818 l 507 818 l 758 96 l 890 96 l 890 0 l 553 0 l 553 96 l 640 96 l 596 222 l 296 222 l 249 96 l 338 96 l 338 0 l 14 0 m 331 318 l 563 318 l 453 678 l 331 318 z "},"Б":{"ha":776,"x_min":51,"x_max":735,"o":"m 461 467 q 735 256 735 475 q 489 0 735 0 l 51 0 l 51 96 l 183 96 l 183 722 l 51 722 l 51 818 l 657 818 l 700 614 l 599 592 l 568 722 l 292 722 l 292 461 l 461 467 m 456 97 q 617 244 617 97 q 467 371 617 375 l 292 365 l 290 97 l 456 97 z "},"В":{"ha":772,"x_min":51,"x_max":738,"o":"m 51 0 l 51 96 l 183 96 l 183 722 l 51 722 l 51 818 l 406 818 q 711 604 711 818 q 599 422 711 481 q 697 350 657 401 q 738 224 738 299 q 671 63 738 126 q 464 0 604 0 l 51 0 m 293 97 l 458 97 q 619 239 619 97 q 467 372 619 372 l 294 372 l 293 97 m 294 456 l 468 456 q 593 589 593 456 q 421 722 593 722 l 294 722 l 294 456 z "},"Г":{"ha":706,"x_min":63,"x_max":693,"o":"m 64 818 l 654 818 l 693 613 l 597 592 l 567 722 l 306 722 l 303 96 l 474 96 l 474 0 l 63 0 l 63 96 l 194 96 l 196 722 l 64 722 l 64 818 z "},"Ѓ":{"ha":706,"x_min":63,"x_max":693,"o":"m 64 818 l 654 818 l 693 613 l 597 592 l 567 722 l 306 722 l 303 96 l 474 96 l 474 0 l 63 0 l 63 96 l 194 96 l 196 722 l 64 722 l 64 818 z "},"Ґ":{"ha":711,"x_min":51,"x_max":699,"o":"m 603 949 l 699 928 l 660 722 l 294 722 l 292 96 l 463 96 l 463 0 l 51 0 l 51 96 l 183 96 l 185 722 l 53 722 l 53 818 l 572 818 l 603 949 z "},"Д":{"ha":940,"x_min":54,"x_max":878,"o":"m 151 96 q 215 217 190 139 q 249 425 239 296 l 274 722 l 126 722 l 126 818 l 878 818 l 878 722 l 743 722 l 743 96 l 872 96 l 872 -185 l 778 -185 l 778 0 l 149 0 l 149 -185 l 54 -185 l 54 96 l 151 96 m 253 96 l 636 96 l 636 722 l 376 722 l 347 411 q 314 222 336 300 q 253 96 292 144 z "},"Е":{"ha":815,"x_min":51,"x_max":768,"o":"m 53 818 l 669 818 l 740 604 l 650 574 l 594 722 l 297 722 l 297 471 l 557 471 l 557 375 l 297 375 l 296 96 l 622 96 l 678 244 l 768 214 l 697 0 l 51 0 l 51 96 l 185 96 l 186 722 l 53 722 l 53 818 z "},"Ѐ":{"ha":815,"x_min":51,"x_max":768,"o":"m 53 818 l 669 818 l 740 604 l 650 574 l 594 722 l 297 722 l 297 471 l 557 471 l 557 375 l 297 375 l 296 96 l 622 96 l 678 244 l 768 214 l 697 0 l 51 0 l 51 96 l 185 96 l 186 722 l 53 722 l 53 818 z "},"Ё":{"ha":815,"x_min":51,"x_max":768,"o":"m 53 818 l 669 818 l 740 604 l 650 574 l 594 722 l 297 722 l 297 471 l 557 471 l 557 375 l 297 375 l 296 96 l 622 96 l 678 244 l 768 214 l 697 0 l 51 0 l 51 96 l 185 96 l 186 722 l 53 722 l 53 818 z "},"Ж":{"ha":1338,"x_min":63,"x_max":1275,"o":"m 68 818 l 410 818 l 410 722 l 310 722 l 501 468 l 614 468 l 614 721 l 525 721 l 525 817 l 813 817 l 813 721 l 724 721 l 722 468 l 836 468 l 1026 722 l 928 722 l 928 818 l 1269 818 l 1269 722 l 1143 722 l 921 425 l 1143 96 l 1275 96 l 1275 0 l 928 0 l 928 96 l 1015 96 l 844 372 l 722 372 l 721 96 l 813 96 l 813 0 l 525 0 l 525 96 l 614 96 l 614 372 l 493 372 l 322 96 l 410 96 l 410 0 l 63 0 l 63 96 l 194 96 l 415 425 l 194 722 l 68 722 l 68 818 z "},"З":{"ha":713,"x_min":60,"x_max":664,"o":"m 107 774 q 235 823 167 807 q 363 839 303 839 q 562 779 490 839 q 633 611 633 719 q 497 424 633 476 q 621 349 578 400 q 664 225 664 299 q 580 48 664 117 q 354 -21 496 -21 q 222 -1 283 -21 q 89 67 160 19 l 60 204 l 154 226 l 178 135 q 259 89 215 101 q 356 76 303 76 q 502 115 458 76 q 546 219 546 154 q 499 331 546 293 q 378 368 453 368 l 256 368 l 256 464 l 378 464 q 478 506 442 464 q 515 608 515 547 q 471 710 515 675 q 351 744 426 744 q 272 735 311 744 q 200 711 233 725 l 174 592 l 78 613 l 107 774 z "},"И":{"ha":1029,"x_min":51,"x_max":978,"o":"m 53 818 l 383 818 l 383 722 l 294 722 l 292 144 l 738 818 l 978 818 l 978 722 l 844 722 l 843 96 l 975 96 l 975 0 l 646 0 l 646 96 l 735 96 l 736 660 l 292 0 l 51 0 l 51 96 l 183 96 l 185 722 l 53 722 l 53 818 z "},"Й":{"ha":1029,"x_min":51,"x_max":978,"o":"m 53 818 l 383 818 l 383 722 l 294 722 l 292 144 l 738 818 l 978 818 l 978 722 l 844 722 l 843 96 l 975 96 l 975 0 l 646 0 l 646 96 l 735 96 l 736 660 l 292 0 l 51 0 l 51 96 l 183 96 l 185 722 l 53 722 l 53 818 m 531 889 q 304 1025 343 889 l 404 1039 q 531 964 424 964 q 657 1039 640 964 l 757 1025 q 531 889 708 889 z "},"Ѝ":{"ha":1029,"x_min":51,"x_max":978,"o":"m 53 818 l 383 818 l 383 722 l 294 722 l 292 144 l 738 818 l 978 818 l 978 722 l 844 722 l 843 96 l 975 96 l 975 0 l 646 0 l 646 96 l 735 96 l 736 660 l 292 0 l 51 0 l 51 96 l 183 96 l 185 722 l 53 722 l 53 818 z "},"Ҋ":{"ha":1029,"x_min":51,"x_max":978,"o":"m 53 818 l 383 818 l 383 722 l 294 722 l 292 144 l 738 818 l 978 818 l 978 722 l 844 722 l 843 96 l 975 96 l 975 0 l 646 0 l 646 96 l 735 96 l 736 660 l 292 0 l 51 0 l 51 96 l 183 96 l 185 722 l 53 722 l 53 818 m 531 889 q 304 1025 343 889 l 404 1039 q 531 964 424 964 q 657 1039 640 964 l 757 1025 q 531 889 708 889 m 783 -243 l 867 0 l 733 0 l 733 96 l 976 96 l 976 0 l 879 -243 l 783 -243 z "},"К":{"ha":929,"x_min":51,"x_max":883,"o":"m 51 818 l 381 818 l 381 722 l 292 722 l 292 461 l 421 461 l 613 722 l 510 722 l 510 818 l 851 818 l 851 722 l 725 722 l 515 438 l 744 96 l 883 96 l 883 0 l 510 0 l 510 96 l 622 96 l 443 365 l 292 365 l 293 96 l 381 96 l 381 0 l 51 0 l 51 96 l 182 96 l 182 722 l 51 722 l 51 818 z "},"Ќ":{"ha":929,"x_min":51,"x_max":883,"o":"m 51 818 l 381 818 l 381 722 l 292 722 l 292 461 l 421 461 l 613 722 l 510 722 l 510 818 l 851 818 l 851 722 l 725 722 l 515 438 l 744 96 l 883 96 l 883 0 l 510 0 l 510 96 l 622 96 l 443 365 l 292 365 l 293 96 l 381 96 l 381 0 l 51 0 l 51 96 l 182 96 l 182 722 l 51 722 l 51 818 z "},"Л":{"ha":935,"x_min":54,"x_max":872,"o":"m 94 -14 q 74 -14 85 -14 q 54 -12 64 -14 l 54 89 q 204 161 169 89 q 250 386 239 233 l 274 725 l 154 725 l 154 821 l 872 821 l 872 725 l 740 725 l 738 96 l 869 96 l 869 0 l 513 0 l 513 96 l 629 96 l 631 725 l 375 725 l 346 351 q 283 92 335 197 q 94 -14 232 -12 z "},"М":{"ha":1174,"x_min":50,"x_max":1122,"o":"m 56 818 l 363 818 l 596 222 l 826 818 l 1122 818 l 1122 722 l 992 722 l 992 96 l 1122 96 l 1122 0 l 792 0 l 792 96 l 881 96 l 881 722 l 818 542 l 649 99 l 529 99 l 351 544 l 288 722 l 283 96 l 375 96 l 375 0 l 50 0 l 50 96 l 183 96 l 185 722 l 56 722 l 56 818 z "},"Н":{"ha":992,"x_min":51,"x_max":940,"o":"m 53 818 l 386 818 l 386 722 l 297 722 l 296 467 l 696 467 l 697 722 l 608 722 l 608 818 l 940 818 l 940 722 l 808 722 l 804 96 l 938 96 l 938 0 l 607 0 l 607 96 l 696 96 l 696 371 l 296 371 l 294 96 l 383 96 l 383 0 l 51 0 l 51 96 l 185 96 l 186 722 l 53 722 l 53 818 z "},"О":{"ha":883,"x_min":61,"x_max":822,"o":"m 440 839 q 717 721 613 839 q 822 410 822 603 q 717 98 822 217 q 442 -21 613 -21 q 166 98 271 -21 q 61 410 61 217 q 165 721 61 603 q 440 839 269 839 m 442 742 q 249 654 318 742 q 179 410 179 567 q 249 164 179 251 q 442 76 318 76 q 635 164 565 76 q 704 410 704 251 q 635 654 704 567 q 442 742 565 742 z "},"П":{"ha":951,"x_min":51,"x_max":900,"o":"m 53 818 l 900 818 l 900 722 l 768 722 l 765 96 l 897 96 l 897 0 l 540 0 l 540 96 l 657 96 l 658 722 l 294 722 l 292 96 l 408 96 l 408 0 l 51 0 l 51 96 l 183 96 l 185 722 l 53 722 l 53 818 z "},"Р":{"ha":753,"x_min":51,"x_max":725,"o":"m 419 818 q 725 563 725 818 q 419 303 725 303 l 292 303 l 292 96 l 458 96 l 458 0 l 51 0 l 51 96 l 181 96 l 181 722 l 51 722 l 51 818 l 419 818 m 418 400 q 607 561 607 400 q 418 722 607 722 l 293 722 l 293 400 l 418 400 z "},"С":{"ha":799,"x_min":60,"x_max":740,"o":"m 618 711 q 557 733 597 722 q 456 744 517 744 q 250 655 321 744 q 179 410 179 565 q 252 163 179 251 q 456 74 325 74 q 550 83 508 74 q 618 103 592 93 l 644 214 l 739 192 l 704 31 q 636 5 704 31 q 456 -21 568 -21 q 169 95 276 -21 q 61 410 63 211 q 167 723 60 606 q 454 839 275 840 q 651 806 592 838 q 710 774 710 775 l 740 613 l 646 592 l 618 711 z "},"Т":{"ha":815,"x_min":50,"x_max":765,"o":"m 50 818 l 765 818 l 765 590 l 660 590 l 660 722 l 464 722 l 461 96 l 593 96 l 593 0 l 218 0 l 218 96 l 350 96 l 351 722 l 156 722 l 156 590 l 50 590 l 50 818 z "},"У":{"ha":864,"x_min":1,"x_max":863,"o":"m 310 -22 q 240 -17 275 -22 q 165 0 204 -11 l 193 93 q 304 71 256 71 q 370 94 350 71 q 411 172 390 117 l 119 722 l 1 722 l 1 818 l 332 818 l 332 722 l 244 722 l 460 297 l 622 722 l 529 722 l 529 818 l 863 818 l 863 722 l 731 722 l 496 139 q 425 18 464 58 q 310 -22 386 -22 z "},"Ў":{"ha":864,"x_min":1,"x_max":863,"o":"m 310 -22 q 240 -17 275 -22 q 165 0 204 -11 l 193 93 q 304 71 256 71 q 370 94 350 71 q 411 172 390 117 l 119 722 l 1 722 l 1 818 l 332 818 l 332 722 l 244 722 l 460 297 l 622 722 l 529 722 l 529 818 l 863 818 l 863 722 l 731 722 l 496 139 q 425 18 464 58 q 310 -22 386 -22 m 431 889 q 204 1025 243 889 l 304 1039 q 431 964 324 964 q 557 1039 540 964 l 657 1025 q 431 889 608 889 z "},"Ф":{"ha":1014,"x_min":47,"x_max":967,"o":"m 322 -56 l 322 36 l 453 36 l 453 113 l 424 113 q 242 143 328 113 q 101 247 156 174 q 47 450 47 321 q 101 649 47 581 q 242 740 156 717 q 424 764 328 764 l 453 764 l 453 835 l 288 879 l 313 981 l 563 907 l 563 764 l 590 764 q 772 740 686 764 q 913 649 858 717 q 967 450 967 581 q 913 247 967 321 q 772 143 858 174 q 590 113 686 113 l 563 113 l 563 36 l 693 36 l 693 -56 l 322 -56 m 415 204 l 451 204 l 451 672 l 415 672 q 293 659 350 672 q 201 599 236 646 q 165 451 165 553 q 242 252 165 300 q 415 204 318 204 m 563 204 l 599 204 q 772 252 696 204 q 849 451 849 300 q 813 599 849 553 q 721 659 778 646 q 599 672 664 672 l 563 672 l 563 204 z "},"Х":{"ha":922,"x_min":26,"x_max":903,"o":"m 28 0 l 28 96 l 146 96 l 386 418 l 144 722 l 26 722 l 26 818 l 376 818 l 376 722 l 288 722 l 463 501 l 626 722 l 531 722 l 531 818 l 878 818 l 878 722 l 746 722 l 525 424 l 785 96 l 903 96 l 903 0 l 540 0 l 540 96 l 643 96 l 447 340 l 265 96 l 368 96 l 368 0 l 28 0 z "},"Ч":{"ha":958,"x_min":54,"x_max":896,"o":"m 447 0 l 447 96 l 656 96 l 656 356 q 597 323 642 343 q 461 303 551 303 q 266 369 347 303 q 186 581 185 436 l 188 722 l 54 722 l 54 818 l 385 818 l 385 722 l 294 722 l 294 581 q 342 436 294 476 q 486 396 389 396 q 601 415 561 396 q 656 446 642 433 l 656 722 l 565 722 l 565 818 l 896 818 l 896 722 l 764 722 l 764 96 l 893 96 l 893 0 l 447 0 z "},"Ц":{"ha":969,"x_min":63,"x_max":907,"o":"m 796 -243 l 797 0 l 63 0 l 63 96 l 194 96 l 196 722 l 63 722 l 63 818 l 394 818 l 394 722 l 306 722 l 304 96 l 663 96 l 664 722 l 576 722 l 576 818 l 907 818 l 907 722 l 774 722 l 772 96 l 906 96 l 906 -243 l 796 -243 z "},"Ш":{"ha":1343,"x_min":63,"x_max":1281,"o":"m 63 0 l 63 96 l 194 96 l 196 722 l 64 722 l 64 818 l 394 818 l 394 722 l 306 722 l 304 96 l 608 96 l 610 722 l 522 722 l 522 818 l 808 818 l 808 722 l 719 722 l 718 96 l 1039 96 l 1040 722 l 953 722 l 953 818 l 1281 818 l 1281 722 l 1150 722 l 1149 96 l 1281 96 l 1281 0 l 63 0 z "},"Щ":{"ha":1367,"x_min":63,"x_max":1308,"o":"m 64 818 l 394 818 l 394 722 l 306 722 l 304 96 l 608 96 l 610 722 l 522 722 l 522 818 l 808 818 l 808 722 l 719 722 l 718 96 l 1039 96 l 1040 722 l 953 722 l 953 818 l 1281 818 l 1281 722 l 1150 722 l 1149 96 l 1308 96 l 1308 -243 l 1199 -243 l 1200 0 l 63 0 l 63 96 l 194 96 l 196 722 l 64 722 l 64 818 z "},"Џ":{"ha":969,"x_min":63,"x_max":907,"o":"m 435 -286 l 442 0 l 63 0 l 63 96 l 194 96 l 196 722 l 63 722 l 63 818 l 394 818 l 394 722 l 306 722 l 304 96 l 663 96 l 664 722 l 576 722 l 576 818 l 907 818 l 907 722 l 774 722 l 772 96 l 906 96 l 906 0 l 538 0 l 544 -286 l 435 -286 z "},"Ь":{"ha":765,"x_min":63,"x_max":731,"o":"m 425 518 q 663 456 594 518 q 731 268 731 394 q 651 65 731 129 q 453 0 571 0 l 63 1 l 63 97 l 190 97 l 190 724 l 68 724 l 68 819 l 390 819 l 390 724 l 299 724 l 299 518 l 425 518 m 426 97 q 507 108 464 97 q 581 156 550 119 q 613 267 613 192 q 561 397 613 372 q 424 422 510 422 l 299 422 l 299 97 l 426 97 z "},"Ъ":{"ha":943,"x_min":65,"x_max":908,"o":"m 239 0 l 239 97 l 367 97 l 367 724 l 161 724 l 161 561 l 65 561 l 65 818 l 567 819 l 567 724 l 475 724 l 475 518 l 603 518 q 840 456 772 518 q 908 268 908 394 q 828 65 908 129 q 631 0 749 0 l 239 0 m 476 97 l 604 97 q 685 108 642 97 q 759 156 728 119 q 790 267 790 192 q 739 397 790 372 q 601 422 688 422 l 476 422 l 476 97 z "},"Ы":{"ha":1188,"x_min":63,"x_max":1125,"o":"m 63 1 l 63 97 l 190 97 l 190 724 l 68 724 l 68 819 l 390 819 l 390 724 l 299 724 l 299 518 l 426 518 q 664 456 596 518 q 732 268 732 394 q 652 65 732 129 q 454 0 572 0 l 63 1 m 300 97 l 428 97 q 508 108 464 97 q 583 156 551 119 q 614 267 614 192 q 563 397 614 372 q 425 422 511 422 l 300 422 l 300 97 m 794 0 l 794 96 l 883 96 l 885 721 l 794 721 l 794 817 l 1125 817 l 1125 721 l 994 721 l 992 96 l 1125 96 l 1125 0 l 794 0 z "},"Љ":{"ha":1208,"x_min":54,"x_max":1174,"o":"m 868 518 q 1095 456 1017 518 q 1174 268 1174 394 q 1094 65 1174 129 q 896 0 1014 0 l 513 0 l 513 96 l 629 96 l 631 725 l 375 725 l 354 449 q 275 85 336 207 q 54 -12 214 -36 l 54 89 q 210 171 179 78 q 256 469 242 264 l 274 725 l 154 725 l 154 818 l 872 818 l 872 725 l 740 725 l 740 518 l 868 518 m 869 97 q 1001 135 946 97 q 1056 267 1056 174 q 1004 387 1056 351 q 867 422 953 422 l 740 422 l 740 97 l 869 97 z "},"Њ":{"ha":1276,"x_min":51,"x_max":1242,"o":"m 51 0 l 51 96 l 183 96 l 185 722 l 53 722 l 53 818 l 385 818 l 385 722 l 296 722 l 294 467 l 694 467 l 696 722 l 607 722 l 607 818 l 939 818 l 939 722 l 807 722 l 806 465 l 933 465 q 1173 410 1104 465 q 1242 242 1242 354 q 1161 58 1242 117 q 961 0 1081 0 l 606 0 l 606 96 l 694 96 l 694 371 l 294 371 l 293 96 l 382 96 l 382 0 l 51 0 m 806 96 l 936 96 q 1010 103 967 96 q 1089 142 1054 111 q 1124 240 1124 172 q 1061 352 1124 333 q 932 371 999 371 l 806 371 l 806 96 z "},"Ѕ":{"ha":744,"x_min":60,"x_max":682,"o":"m 379 -21 q 207 -3 281 -21 q 86 33 133 14 l 60 203 l 151 211 l 171 107 q 259 83 213 93 q 378 74 306 74 q 513 107 454 74 q 571 224 571 140 q 541 319 571 279 q 431 371 511 360 l 325 386 q 142 465 206 404 q 79 618 79 526 q 151 775 79 711 q 372 839 222 839 q 510 829 453 839 q 636 793 567 819 l 660 621 l 568 611 l 550 722 q 478 740 522 733 q 374 746 433 746 q 233 713 285 746 q 181 621 181 681 q 219 531 181 563 q 325 489 257 499 l 451 469 q 626 390 569 451 q 682 239 682 329 q 640 95 682 153 q 530 8 599 38 q 379 -21 461 -21 z "},"Є":{"ha":840,"x_min":67,"x_max":776,"o":"m 188 358 q 267 149 197 224 q 463 74 336 74 q 574 84 524 74 q 653 104 624 94 l 679 214 l 774 192 l 739 31 q 667 5 739 31 q 463 -21 596 -21 q 176 95 283 -21 q 68 410 69 211 q 174 723 67 606 q 461 839 282 840 q 682 806 619 838 q 746 774 744 775 l 776 613 l 681 592 l 653 708 q 583 732 631 719 q 463 744 536 744 q 260 663 328 744 q 186 436 192 581 l 382 446 l 561 446 l 561 350 l 383 350 l 188 358 z "},"Э":{"ha":833,"x_min":64,"x_max":774,"o":"m 378 -21 q 173 5 244 -21 q 101 31 101 31 l 67 192 l 161 214 l 186 106 q 264 85 214 96 q 378 74 314 74 q 574 149 506 74 q 651 360 642 225 l 417 350 l 279 350 l 279 446 l 421 446 l 653 436 q 581 663 647 581 q 378 744 514 744 q 258 732 307 744 q 186 708 210 719 l 160 592 l 64 613 l 94 774 q 211 822 150 807 q 379 839 272 838 q 666 724 558 842 q 772 410 774 606 q 664 95 771 211 q 378 -21 557 -21 z "},"І":{"ha":479,"x_min":51,"x_max":428,"o":"m 53 818 l 428 818 l 428 722 l 299 722 l 296 96 l 428 96 l 428 0 l 51 0 l 51 96 l 186 96 l 186 722 l 53 722 l 53 818 z "},"Ї":{"ha":479,"x_min":39,"x_max":442,"o":"m 53 818 l 428 818 l 428 722 l 299 722 l 296 96 l 428 96 l 428 0 l 51 0 l 51 96 l 186 96 l 186 722 l 53 722 l 53 818 z "},"Ј":{"ha":714,"x_min":35,"x_max":676,"o":"m 546 328 q 471 71 546 161 q 263 -19 396 -19 q 171 -10 219 -19 q 69 21 122 0 l 35 196 l 129 218 l 158 94 q 265 71 215 71 q 388 133 343 71 q 433 317 433 194 l 435 722 l 251 722 l 251 818 l 676 818 l 676 722 l 546 722 l 546 328 z "},"Ћ":{"ha":1050,"x_min":21,"x_max":1008,"o":"m 433 456 q 513 496 464 475 q 622 517 561 517 q 819 456 760 517 q 879 274 879 394 l 879 96 l 1008 96 l 1008 0 l 678 0 l 678 96 l 767 96 l 767 250 q 738 376 767 328 q 615 424 708 424 q 497 402 547 424 q 433 374 446 381 l 433 96 l 564 96 l 564 0 l 189 0 l 189 96 l 321 96 l 322 722 l 126 722 l 126 590 l 21 590 l 21 818 l 736 818 l 736 590 l 631 590 l 631 722 l 435 722 l 433 456 z "},"Ю":{"ha":1225,"x_min":51,"x_max":1164,"o":"m 811 -21 q 564 85 660 -21 q 458 374 468 192 l 347 368 l 292 368 l 290 96 l 383 96 l 383 0 l 51 0 l 51 96 l 182 96 l 183 721 l 51 721 l 51 817 l 383 817 l 383 721 l 293 721 l 292 464 l 347 464 l 460 457 q 566 736 471 633 q 810 839 661 839 q 1067 724 969 839 q 1164 410 1164 608 q 1068 95 1164 211 q 811 -21 972 -21 m 811 74 q 992 163 938 74 q 1046 410 1046 251 q 992 656 1046 568 q 811 744 938 744 q 631 656 685 744 q 576 410 576 568 q 631 163 576 251 q 811 74 685 74 z "},"Я":{"ha":854,"x_min":54,"x_max":803,"o":"m 54 0 l 54 96 l 188 96 l 306 336 q 182 420 225 363 q 139 563 139 478 q 215 753 139 688 q 438 818 292 818 l 803 818 l 803 722 l 674 722 l 674 96 l 803 96 l 803 0 l 476 0 l 476 96 l 565 96 l 565 321 l 413 321 l 257 0 l 54 0 m 436 418 l 564 418 l 564 722 l 439 722 q 257 561 257 722 q 436 418 257 418 z "},"Ђ":{"ha":956,"x_min":50,"x_max":907,"o":"m 463 451 q 567 499 514 485 q 669 513 619 513 q 840 448 774 513 q 907 267 907 383 q 852 88 907 176 q 679 -1 797 -1 q 635 3 664 -1 l 644 94 q 679 90 667 90 q 766 137 736 90 q 796 264 796 183 q 752 388 796 351 q 643 425 708 425 q 555 414 601 425 q 463 378 508 403 l 463 96 l 551 96 l 551 0 l 218 0 l 218 96 l 350 96 l 351 722 l 156 722 l 156 590 l 50 590 l 50 818 l 765 818 l 765 590 l 660 590 l 660 722 l 464 722 l 463 451 z "},"Ѣ":{"ha":847,"x_min":21,"x_max":813,"o":"m 144 0 l 144 97 l 272 97 l 272 650 l 111 650 l 111 561 l 21 561 l 21 740 l 272 740 l 272 818 l 150 818 l 150 914 l 472 914 l 472 818 l 381 818 l 381 740 l 654 740 l 654 561 l 563 561 l 563 650 l 381 650 l 381 490 l 507 490 q 744 428 676 490 q 813 256 813 365 q 733 58 813 117 q 535 0 653 0 l 144 0 m 381 97 l 508 97 q 629 123 564 97 q 694 254 694 149 q 656 363 694 331 q 506 394 617 394 l 381 394 l 381 97 z "},"Ѫ":{"ha":1185,"x_min":11,"x_max":1171,"o":"m 11 0 l 11 96 l 143 96 l 306 335 q 358 403 318 354 q 465 457 399 453 l 193 722 l 76 722 l 76 818 l 1122 818 l 1122 722 l 989 722 l 721 457 q 824 402 786 450 q 876 335 863 354 l 1039 96 l 1171 96 l 1171 0 l 824 0 l 824 96 l 911 96 l 775 315 q 733 369 750 356 q 664 383 715 383 l 649 383 l 646 96 l 735 96 l 735 0 l 447 0 l 447 96 l 536 96 l 536 383 l 518 383 q 449 369 467 383 q 407 315 432 356 l 271 96 l 358 96 l 358 0 l 11 0 m 600 456 l 864 722 l 333 722 l 600 456 z "},"Ѳ":{"ha":883,"x_min":61,"x_max":822,"o":"m 157 460 l 765 460 l 765 378 l 157 378 l 157 460 m 440 839 q 717 721 613 839 q 822 410 822 603 q 717 98 822 217 q 442 -21 613 -21 q 166 98 271 -21 q 61 410 61 217 q 165 721 61 603 q 440 839 269 839 m 442 742 q 249 654 318 742 q 179 410 179 567 q 249 164 179 251 q 442 76 318 76 q 635 164 565 76 q 704 410 704 251 q 635 654 704 567 q 442 742 565 742 z "},"Ѵ":{"ha":888,"x_min":6,"x_max":888,"o":"m 649 651 q 819 821 707 821 q 888 808 853 821 l 861 697 q 789 692 817 714 q 735 593 761 669 l 528 0 l 410 0 l 138 722 l 6 722 l 6 818 l 346 818 l 346 722 l 257 722 l 400 342 l 474 124 l 539 331 l 649 651 z "},"Ғ":{"ha":706,"x_min":63,"x_max":693,"o":"m 64 818 l 654 818 l 693 613 l 597 592 l 567 722 l 306 722 l 303 96 l 474 96 l 474 0 l 63 0 l 63 96 l 194 96 l 196 722 l 64 722 l 64 818 m 85 457 l 511 457 l 511 371 l 85 371 l 85 457 z "}}}
